<?xml version="1.0" standalone="no"?>
<!DOCTYPE svg PUBLIC "-//W3C//DTD SVG 1.1//EN" "http://www.w3.org/Graphics/SVG/1.1/DTD/svg11.dtd" >
<svg xmlns="http://www.w3.org/2000/svg">
<metadata>
Created by FontPrep 20130207 at Tue Apr 15 15:55:33 2014
 By Rudolph Steyn
Copyright (c) 2010, Kimberly Geswein (kimberlygeswein.com)
</metadata>
<defs>
<font id="832582b849508c4d82a7ba06b8586b82" horiz-adv-x='1024' >
  <font-face 
    font-family="ShadowsIntoLight"
    font-weight="400"
    font-stretch="normal"
    units-per-em="2048"
    panose-1="2 0 0 0 0 0 0 0 0 0"
    ascent="1638"
    descent="-410"
    x-height="994"
    cap-height="1524"
    bbox="-352 -872.687 2558 2406"
    underline-thickness="0"
    underline-position="0"
    unicode-range="U+0020-FB02"
  />
<missing-glyph horiz-adv-x="922" 
 />
    <glyph glyph-name=".notdef" horiz-adv-x="922" 
 />
    <glyph glyph-name=".null" horiz-adv-x="0" 
 />
    <glyph glyph-name="nonmarkingreturn" horiz-adv-x="922" 
 />
    <glyph glyph-name="space" unicode=" " horiz-adv-x="922" 
 />
    <glyph glyph-name="exclam" unicode="!" horiz-adv-x="282" 
d="M188 0q-28 0 -28 48v32q0 48 28 48q40 0 47 -19t7 -46t-7 -45t-47 -18zM98 690q-80 0 -67 216q3 48 3 205t28 605q10 26 36 26q45 0 41 -67q-1 -17 -1 -29v-612q0 -36 6 -76l12 -80q19 -95 6 -134q-4 -22 -23 -38t-41 -16z" />
    <glyph glyph-name="quotedbl" unicode="&#x22;" horiz-adv-x="436" 
d="M360 1538v-452q-30 0 -54 16t-24 50v438q30 7 54 -12q24 -20 24 -40zM180 1181q0 -75 1 -91q4 -68 -41 -68q-25 0 -37 87q-16 124 -28 282q-13 158 -23 199q8 20 22 23t34 3t34 -9t12 -45q26 -306 26 -381z" />
    <glyph glyph-name="numbersign" unicode="#" horiz-adv-x="922" 
d="M358 729q0 -37 5 -76t12 -80t13 -77l154 104v264q-64 0 -115 -18t-59 -50q-10 -30 -10 -67zM183 314q-43 0 -60 7t-17 47q0 25 72 53q28 11 52 17t30 8v308q-120 7 -126 48q-4 10 -5 20t-3 21t-2 25h132q7 55 4 90l-26 152v30q0 52 40 52q65 0 82 -169q6 -65 6 -89t2 -26
q21 -12 82 5q62 17 70 45v332q0 6 10 16t16 10t27 -10t25 -16q11 -153 50 -270h156q0 -38 -78 -61q-30 -9 -54 -20t-24 -31v-226q56 0 117 34t96 50t75 16q0 -57 -68 -93q-28 -15 -63 -30t-63 -32q-68 -41 -68 -109q0 -125 24 -224l-66 -70l-62 272l-2 2l-8 2
q-106 0 -163 -96q-25 -42 -27 -93t22 -95l-24 -28q-42 23 -78 154q-60 -28 -103 -28z" />
    <glyph glyph-name="dollar" unicode="$" horiz-adv-x="912" 
d="M556 382q54 0 138 73t84 136q0 64 -122 85q-48 8 -90 8h-54q0 -117 32 -300zM134 822q0 -80 144 -80q40 0 53 -1q57 -4 57 27v338q-74 0 -166 -106q-38 -44 -63 -94t-25 -84zM566 166q0 -44 9 -85t18 -83t18 -83t9 -74t-12 -43t-40 -28l-24 24l-104 412q-18 -14 -51 -27
t-50 -20t-27 -7q-28 0 -28 59q0 19 4 19l152 78v10l2 18q0 90 -9 162t-13 112t-6 56q-97 -14 -187 -3q-89 11 -129 26q-92 34 -91 112q1 77 41 140t97 116t122 99t121 98q-2 32 -6 88q-18 254 110 254v-316q71 26 126 26q56 0 56 -38q0 -26 -22 -39t-52 -21t-60 -13t-48 -17
l-2 -78v-206q0 -66 28 -126q213 -25 332 -130q2 -2 2 -18v-18q0 -102 -107 -195q-45 -39 -94 -75t-83 -76l-2 -46v-44z" />
    <glyph glyph-name="percent" unicode="%" horiz-adv-x="922" 
d="M724 512q0 -18 3 -31t25 -21q26 40 39 65t13 63t-26 78q-54 -27 -54 -154zM212 1332q-55 0 -73 -133q-7 -51 -7 -99v-66q65 0 125 75q59 75 59 137q0 61 -70 81q-18 5 -34 5zM646 509q0 21 -1 67t6 95t26 86t58 37q71 0 108 -63t37 -114q0 -97 -46 -193t-122 -96
q-34 0 -48 20t-19 49t-2 60t3 52zM32 1186q0 96 44 160t144 64q52 0 100 -44t48 -90q0 -99 -65 -215q-65 -117 -151 -117q-110 0 -118 165q-2 39 -2 77zM658 1612q44 0 44 -38v-8q0 -4 -33 -101q-95 -278 -195 -684t-170 -783q-42 0 -42 54l2 26q124 937 336 1510
q38 24 58 24z" />
    <glyph glyph-name="ampersand" unicode="&#x26;" horiz-adv-x="730" 
d="M188 692q-42 0 -63 -41t-24 -91t8 -93t31 -47q-2 -16 11 -7t34 29q54 52 100 106q45 54 41 58q-70 86 -138 86zM32 546q0 74 24 120q48 92 136 103t140 -41q20 -24 24 -54v426q0 34 88 34l-6 -412q103 91 184 120q34 12 50 4q56 -28 -182 -226q-13 -4 -17 -57
q-3 -52 -3 -281q0 -38 -58 -51q-22 -5 -40 1t-16 24l16 256q-278 -299 -326 -99q-14 59 -14 133z" />
    <glyph glyph-name="quotesingle" unicode="'" horiz-adv-x="318" 
d="M66 1218q0 66 50 66q95 0 89 -262q-1 -42 -4 -73t-3 -41v-44l-4 -172q-30 2 -51 24t-24 45t-7 58t-9 77t-11 90t-14 120t-12 98v14z" />
    <glyph glyph-name="parenleft" unicode="(" horiz-adv-x="598" 
d="M410 -2q-56 0 -109 32t-95 84q-82 101 -128 244q-46 142 -46 268q0 261 127 545q127 285 335 519l16 2q38 0 38 -54v-26q-414 -497 -414 -1006q0 -198 93 -360q107 -187 295 -220q-56 -28 -112 -28z" />
    <glyph glyph-name="parenright" unicode=")" horiz-adv-x="494" 
d="M50 1484q0 54 40 54h6q4 0 6 -2q193 -162 265 -345q73 -183 73 -449q0 -355 -133 -590q-51 -90 -129 -152v26q0 68 29 143t63 161t63 179t29 203q0 239 -70 423t-240 325q-2 4 -2 12v12z" />
    <glyph glyph-name="asterisk" unicode="*" horiz-adv-x="986" 
d="M32 551q0 27 34 38t82 15t97 8t79 16l-244 150q-47 28 -27 58q20 29 45 20l258 -98v342q0 34 88 34l6 -356q96 80 187 215q25 37 29 57q17 4 39 -21q23 -25 37 -33t5 -28t-32 -45t-55 -53t-81 -74t-49 -74q222 74 410 74q0 -68 -34 -80q-87 -17 -154 -34
q-66 -16 -114 -27t-60 -14t-19 -4t-15 -5l296 -178q22 -13 -10 -78q-6 -12 -8 -14l-332 188l46 -372q0 -43 -39 -51t-39 25l-46 358q-23 -133 -186 -270l-62 -54q-14 10 -23 32t-22 34t2 37t41 55q58 67 115 126q57 60 47 60q-86 -14 -149 -19t-89 -25q-54 38 -54 65z" />
    <glyph glyph-name="plus" unicode="+" horiz-adv-x="956" 
d="M342 538l-30 4q-92 0 -226 -56q-54 39 -54 62q0 24 24 36t60 17t78 8t78 8q84 12 84 49v434q0 34 88 34v-442q114 36 243 70t253 34q0 -68 -34 -80q-87 -17 -154 -34q-66 -16 -114 -27t-60 -14t-23 -6t-24 -8t-23 -8t-24 -13t-14 -18v-306q0 -54 -35 -54t-43 28z" />
    <glyph glyph-name="comma" unicode="," horiz-adv-x="230" 
d="M58 154q0 88 112 88q40 -62 40 -138t-62 -308l-78 -24l12 290q-24 48 -24 92z" />
    <glyph glyph-name="hyphen" unicode="-" horiz-adv-x="818" 
d="M26 408q0 8 10 28t16 24q88 6 177 38t177 69t173 68t165 31q28 0 28 -58v-14l-4 -32l-590 -178q-8 -4 -58 -4l-16 -2q-78 0 -78 30z" />
    <glyph glyph-name="period" unicode="." horiz-adv-x="264" 
d="M152 130q54 0 54 -52q0 -24 -26 -57t-50 -21q-26 -18 -56 12t-22 66q28 30 48 41t52 11z" />
    <glyph glyph-name="slash" unicode="/" horiz-adv-x="628" 
d="M12 -106v14l464 1522h98l-496 -1602q-26 0 -46 20t-20 46z" />
    <glyph glyph-name="zero" unicode="0" horiz-adv-x="632" 
d="M152 756v-8q0 -2 2 -4q0 -392 60 -558q49 -135 123 -85t121 210q47 161 32 303q0 229 -72 345q-28 45 -70 65q-67 0 -132 -100q-64 -100 -64 -168zM338 1104q86 -16 130 -71t62 -130t23 -159t13 -154q0 -433 -155 -556q-43 -34 -103 -34q-71 -31 -142 121
q-72 152 -92 358q-36 370 120 543q56 62 144 82z" />
    <glyph glyph-name="one" unicode="1" horiz-adv-x="230" 
d="M170 66q0 -14 1 -26t-5 -26t-29 -14t-33 10t-10 16q-33 270 -32 518q2 248 6 398t0 312q0 6 10 16t16 10t26 -10t26 -16l24 -1126v-62z" />
    <glyph glyph-name="two" unicode="2" horiz-adv-x="1050" 
d="M94 794q-52 35 -52 62l2 14q38 42 87 96q192 212 363 212q129 -59 131 -267q3 -261 -162 -605q-45 -94 -87 -160l536 162l26 2q46 0 62 -14t16 -26q-72 -46 -167 -76t-196 -57t-197 -53t-172 -62q-26 0 -44 7t-18 49q141 239 198 376q107 261 110 472q-20 66 -43 103
t-67 28t-120 -71t-206 -192z" />
    <glyph glyph-name="three" unicode="3" horiz-adv-x="946" 
d="M808 630q0 166 -228 166q-44 4 -83 -13t-78 -40t-76 -48t-72 -40q-75 -32 -135 25v6q0 6 2 6l356 408q58 80 59 124t-32 59q-68 31 -213 -33t-196 -150l-14 -2q-24 0 -45 21t-21 47t32 55t82 56q95 51 231 92t195 41q167 -83 -23 -376q-35 -54 -71 -104t-60 -86
q42 26 91 27t98 1q115 0 208 -61t93 -166t-54 -197t-132 -174t-168 -151t-162 -123q-52 29 -52 62q0 34 35 68t86 73t113 84t113 98q121 126 121 245z" />
    <glyph glyph-name="four" unicode="4" horiz-adv-x="1032" 
d="M622 1280q-44 -70 -99 -146q-228 -315 -283 -468h24q108 27 318 90l40 12v512zM674 1590q52 0 52 -30v-766q68 0 132 16t132 16q18 -58 -4 -78t-65 -26t-97 -9t-98 -21v-640q0 -28 -77 -51q-17 -5 -27 -5v678l-608 -136q0 81 31 118q15 18 41 10q190 242 409 661
q132 253 147 258q14 5 32 5z" />
    <glyph glyph-name="five" unicode="5" horiz-adv-x="980" 
d="M586 900q77 0 114 -64q36 -64 36 -156q0 -178 -111 -357q-111 -178 -275 -323q-22 8 -25 21t-3 42t23 71t58 86t76 92q157 184 157 354q-2 158 -133 118t-369 -300q-24 5 -31 27q-35 110 -9 589q-65 40 -57 112q9 72 59 122t82 18q49 0 61 -67q3 -17 7 -31l614 154l30 2
q50 0 50 -38q0 -32 -28 -68q-100 16 -193 -3t-201 -49t-174 -57t-100 -70t-42 -114t-8 -193v-36l2 -108v-36q44 50 85 97q144 165 305 165z" />
    <glyph glyph-name="six" unicode="6" horiz-adv-x="768" 
d="M273 164q63 -186 317 296q84 201 41 233t-145 -68t-172 -238t-41 -223zM152 653v-245q0 -96 26 -178q20 52 42 115t49 126q64 150 135 226q92 99 212 99q72 0 88 -15t16 -69t-16 -122t-45 -146q-66 -178 -162 -312t-189 -134q-119 4 -188 136q-70 132 -70 391q0 65 2 113
l178 1000q4 12 27 19t39 7q38 0 38 -52l-2 -24q-180 -818 -180 -935z" />
    <glyph glyph-name="seven" unicode="7" horiz-adv-x="938" 
d="M76 1304q-52 0 -52 38t347 104t449 66q52 0 52 -52v-12q0 -10 -26 -67q-89 -195 -162 -445q-72 -250 -72 -451q0 -202 18 -286q18 -83 36 -147q-11 -54 -39 -55q-91 -5 -116 175q-40 282 141 1064l64 136q-103 0 -302 -34t-314 -34h-24z" />
    <glyph glyph-name="eight" unicode="8" horiz-adv-x="682" 
d="M246 152q14 -36 61 -51t98 -6t89 40t37 76q-2 83 -48 159t-107 116q-60 -35 -95 -138t-35 -196zM180 806q38 -57 144 -140q144 144 206 422q16 72 16 124q-58 -34 -113 -40t-82 9t-15 48t90 75h-76q-46 0 -85 -39t-66 -94q-57 -116 -57 -212t38 -153zM168 150
q0 97 52 210l42 98q22 52 36 106q-109 95 -155 148q-99 114 -99 210q-30 108 49 243t201 212t216 35t98 -244q0 -158 -128 -438q-32 -70 -56 -128q0 -46 29 -90t62 -91t62 -97t29 -108q0 -111 -82 -164q-82 -54 -202 -54q-154 0 -154 152z" />
    <glyph glyph-name="nine" unicode="9" horiz-adv-x="974" 
d="M130 818q-29 -122 44 -100q67 20 182 131t213 243q97 133 105 198q-280 0 -453 -292q-51 -86 -91 -180zM26 739q0 41 23 114t63 148q86 161 218 272t264 111q194 0 231 -165q20 -90 19 -180q-2 -91 1 -165q3 -81 28 -349t25 -346q0 -111 -7 -137q-12 -44 -59 -44
q-20 0 -27 16t-11 38q6 141 -10 389q-35 550 -40 685q-40 -50 -87 -113t-100 -126q-129 -154 -223 -220q-128 -90 -234 -61q-26 0 -44 26t-24 46t-6 61z" />
    <glyph glyph-name="colon" unicode=":" horiz-adv-x="246" 
d="M48 808q0 26 7 44t48 18t47 -17t6 -41t-5 -47t-35 -23q-68 0 -68 66zM76 299q0 27 10 44t44 17q52 0 52 -54q0 -26 -18 -52t-48 -26t-35 22t-5 49z" />
    <glyph glyph-name="semicolon" unicode=";" horiz-adv-x="248" 
d="M58 154q0 88 112 88q40 -62 40 -138t-62 -308l-78 -24l12 290q-24 48 -24 92zM60 539q0 27 19 47t42 20t43 -17t24 -37q7 -34 -12 -43q-18 -9 -45 -9t-49 6t-22 33z" />
    <glyph glyph-name="less" unicode="&#x3c;" horiz-adv-x="838" 
d="M812 1211q0 -3 -2 -5q-66 -92 -131 -150t-135 -108t-147 -102t-165 -132l14 -32q8 -16 164 -108t178 -105t45 -23t50 -20t51 -19t34 -11q28 -101 -78 -136q-36 33 -161 108q-254 151 -325 204q-127 95 -106 154q6 9 6 12l606 504q10 10 17 23t19 28t41 5t32 -33t-2 -37
t-5 -17z" />
    <glyph glyph-name="equal" unicode="=" horiz-adv-x="888" 
d="M158 530q-68 0 -68 66q0 20 6 38q46 9 170 22l122 16q66 8 173 23t143 15l88 4q0 -67 -283 -131q-119 -27 -223 -40t-128 -13zM44 230q0 8 9 28t15 24q102 8 200 37t195 61t196 57t201 25q0 -56 -46 -84t-106 -42t-119 -18t-83 -11t-80 -24t-117 -38t-115 -39t-74 -28
q-76 35 -76 52z" />
    <glyph glyph-name="greater" unicode="&#x3e;" horiz-adv-x="922" 
d="M112 1313q16 24 36 39l612 -354q90 -60 -7 -208q-76 -117 -233 -253q-157 -137 -262 -212q-106 -75 -133 -88t-3 7q-22 0 -25 20t0 46t56 79t126 110t154 117t144 115q147 128 105 191l-560 302q-6 6 -16 25t-10 29t16 35z" />
    <glyph glyph-name="question" unicode="?" horiz-adv-x="912" 
d="M460 714q-77 0 -142 47q-64 47 -64 126t39 145t95 125t124 115t124 116t95 127t39 149q0 111 -162 107q-42 -1 -92 -1t-108 -26t-111 -55t-105 -54t-91 -25t-57 7t-18 39t34 56t87 47q114 49 250 80t181 31q118 0 193 -33q101 -45 101 -146t-52 -201t-125 -189t-152 -166
t-135 -137q-49 -25 -30 -89q19 -65 88 -92t162 29l38 -78q-71 -54 -206 -54zM490 50q0 -50 -68 -50q-22 0 -42 29t-20 56q0 47 48 47q34 0 58 -25t24 -57z" />
    <glyph glyph-name="at" unicode="@" horiz-adv-x="1936" 
d="M1090 1230q0 74 -85 74t-203 -105q-117 -105 -204 -258q-86 -153 -86 -261q88 0 209 134q69 76 136 184t99 159t42 73h92zM1098 1074q0 -310 224 -310q177 0 247 144q47 97 47 300t-99 354q-118 180 -313 180q-255 0 -495 -172t-386 -431q-147 -258 -147 -503
q0 -293 153 -414q153 -122 459 -122q242 0 457 79t419 205q26 16 40 38t27 44q30 50 89 50q60 0 72 -23t-24 -85q-575 -408 -1124 -408q-480 0 -637 317q-55 111 -55 256t44 289t123 284q167 296 431 497t528 201q118 0 217 -55t170 -143t111 -197t40 -212q0 -236 -78 -376
q-97 -175 -327 -175t-256 150q-20 113 -32 144q-13 32 -49 44q-257 -438 -478 -438q-90 0 -90 106t107 283q107 176 250 304q143 129 261 129q82 0 107 -32t25 -100v-26q0 -31 -16 -42q-16 -12 -40 -4v-26l-2 -78v-26z" />
    <glyph glyph-name="A" unicode="A" 
d="M224 502q77 0 140 27q113 48 148 109q-84 369 -180 592q-20 20 -50 0l-4 -34q-4 -67 -12 -143q-8 -75 -14 -147t-17 -181t-11 -223zM260 1538q18 0 32 -16t25 -36t21 -42t22 -36q20 -46 41 -106t45 -128t48 -137q93 -266 132 -345q22 2 62 17t86 29q114 35 164 23
q67 -16 24 -123q-14 0 -26 5l-36 15t-38 10q-16 0 -120 -34t-104 -46l138 -542l-52 -76q-45 77 -83 217q-37 141 -58 206t-53 109q-42 -20 -100 -34t-112 -35q-126 -49 -140 -151q-4 -24 -7 -64t-8 -80t-9 -86h-102q6 28 10 72t11 116t16 178t25 258t37 357t55 477
q2 20 19 24t35 4z" />
    <glyph glyph-name="B" unicode="B" horiz-adv-x="1100" 
d="M692 1342q0 40 -49 40t-124 -20t-144 -56q-169 -88 -169 -202q0 -193 50 -310q197 171 351 376q85 113 85 172zM289 22q-33 0 -33 4l-178 1204q-28 52 -28 83q0 48 10 64t32 8q34 -11 53 -40q18 -28 33 -65q261 204 460 204q98 0 143 -45q41 -41 6 -140q-31 -88 -90 -159
q-59 -70 -126 -143t-85 -101q158 104 368 104q133 0 180 -52q20 -22 20 -62t-37 -111t-96 -156q-117 -169 -267 -330t-194 -161l-52 24q18 69 145 198q55 56 118 118t119 120q131 135 153 213q27 94 -109 123q-166 0 -335 -108t-221 -270q0 -69 28 -217t28 -202
q0 -53 -6 -79t-39 -26z" />
    <glyph glyph-name="C" unicode="C" horiz-adv-x="998" 
d="M90 707q168 785 458 785q93 0 141 -64q47 -64 47 -158q-36 0 -58 19t-40 41t-37 41t-51 19q-115 0 -216 -216q-79 -170 -131 -413q-51 -243 -51 -326q0 -167 32 -237q45 -98 177 -98q133 0 295 179q68 75 118 160t72 149q8 4 34 4t47 -5t21 -37q-22 -118 -150 -262
q-128 -145 -279 -234q-152 -89 -223 -54q-120 0 -189 128q-57 106 -57 249t40 330z" />
    <glyph glyph-name="D" unicode="D" horiz-adv-x="1136" 
d="M364 -2q-42 0 -42 53q0 47 174 235q74 80 162 174q336 359 336 608q0 96 -107 160q-141 84 -431 84l-106 -8l-26 -24l-4 -180v-62q0 -202 15 -401t15 -306t1 -121q4 -58 -39 -58q-34 0 -38 26l-78 1052q-6 -4 -21 -11t-31 -15t-31 -17t-19 -9l-14 -2q-36 0 -36 29t13 48
t34 35t45 32q92 61 92 200q40 0 50 -14t12 -33t5 -38t29 -27q259 9 458 -42q318 -82 308 -316q-64 -381 -485 -820q-115 -120 -229 -230z" />
    <glyph glyph-name="E" unicode="E" horiz-adv-x="972" 
d="M272 564v-386q44 -17 178 62q58 34 120 79t121 85t110 72t85 38q52 0 52 -40q0 -24 -28 -38q-70 -42 -161 -105t-185 -126q-229 -154 -342 -181q-26 0 -42 4t-36 24q0 162 2 318q7 529 -54 934l-26 78q0 21 26 52q26 30 51 25q43 -8 60 -71q17 -62 17 -108
q394 210 596 210q0 -39 -34 -56l-562 -282v-78q2 -22 5 -76t7 -115t7 -116t5 -75l412 230q64 77 102 24q0 -81 -243 -204q-155 -79 -199 -115q-44 -37 -44 -63z" />
    <glyph glyph-name="F" unicode="F" horiz-adv-x="878" 
d="M212 52q0 -54 -38 -54q-69 0 -100 598q-14 271 -14 618v106q0 46 80 46q20 0 34 2v-190q132 38 216 77t196 95t242 84q26 0 26 -31t-26 -45l-642 -308l26 -564q215 119 377 212t199 110l22 10q4 2 9 2t5 -24v-24q0 -10 4 -18q-25 -30 -212 -139q-186 -109 -295 -175
t-109 -82v-306z" />
    <glyph glyph-name="G" unicode="G" horiz-adv-x="1212" 
d="M898 50q0 74 6 174t8 134q-58 -50 -121 -109q-240 -225 -428 -225t-284 113q-64 76 -18 280q51 228 194 478q69 121 151 220q181 219 358 219q98 0 98 -66q0 -13 -103 -46q-103 -34 -157 -55t-72 -41q-166 -212 -235 -350q-129 -258 -151 -468q0 -141 160 -151
q46 -3 92 -3q152 15 301 162t237 350h-312q0 78 314 136q97 18 172 18h22q62 0 38 -52q-9 -17 -78 -52q-138 -276 -48 -894l-78 -52q-66 66 -66 280z" />
    <glyph glyph-name="H" unicode="H" horiz-adv-x="870" 
d="M186 287q0 -51 10 -106t14 -111q0 -28 -18 -52t-38 -24q-48 0 -48 28l-46 1282q0 12 9 32t15 22q21 0 48 -12q26 -12 30 -16q8 -80 10 -184t7 -291t33 -291q86 36 162 68t132 74q122 91 118 256q0 137 -19 212q-19 74 -35 130q-4 36 12 46t40 10t38 -12t23 -32t11 -43
t5 -49t9 -90t13 -145t16 -171l17 -170q8 -80 13 -144t10 -118t15 -128t10 -152v-32q0 -40 -14 -54t-38 -20q-36 26 -42 58t-9 62t-5 75t-7 100t-10 116t-11 130l-14 151q-22 -16 -77 -47t-170 -98t-151 -94t-52 -71t-16 -95z" />
    <glyph glyph-name="I" unicode="I" horiz-adv-x="314" 
d="M256 152v-90q-2 -40 -17 -47t-69 9q-12 4 -15 156t-5 275t-4 253q-5 299 -13 518t-29 268q0 38 69 30q17 -2 29 -2q15 -36 26 -202q12 -166 15 -288t6 -247t4 -245t2 -219t1 -169z" />
    <glyph glyph-name="J" unicode="J" horiz-adv-x="760" 
d="M26 282q0 6 10 16t16 10q75 -167 125 -230q106 -134 235 -134q64 0 112 34t66 100q18 242 -38 649l-44 322t-23 248t-2 102t3 29q10 34 36 34t42 -28q50 -292 90 -594t40 -598q0 -182 -54 -265q-70 -107 -226 -107q-157 0 -273 129q-115 128 -115 283z" />
    <glyph glyph-name="K" unicode="K" horiz-adv-x="1074" 
d="M158 1352q20 -32 20 -48l78 -690q12 12 51 77t92 152t114 181t119 163t104 98t72 -11q-132 -211 -230 -347q-157 -219 -199 -296q-42 -76 -73 -209q0 -8 5 -13t28 -12q89 -27 729 -27q0 -30 -15 -59t-55 -29h-716q30 -105 30 -220q0 -36 -13 -37t-40 0t-29 1
q-14 48 -32 144t-20 114t-8 84t-14 152t-17 197t-29 323l-8 86q0 16 -8 48t-11 52t-5 28l-26 76q4 22 23 38t41 16t42 -32z" />
    <glyph glyph-name="L" unicode="L" horiz-adv-x="1100" 
d="M1030 460q50 0 54 -36q0 -27 -26 -66q-118 -22 -231 -80t-224 -120t-224 -110t-231 -48q-50 0 -50 78q-11 705 -22 857q-10 153 -12 197t-4 63t-2 45q0 44 70 44q34 0 53 -13t19 -67l38 -1076q17 0 77 21q61 21 81 30t68 31t108 50t127 59t128 58t108 50t71 33h24z" />
    <glyph glyph-name="M" unicode="M" horiz-adv-x="1398" 
d="M188 1352q0 -186 35 -503t51 -484t16 -309q8 -18 -5 -34t-36 -24t-50 -1t-45 33q-18 178 -19 363t-3 371q-5 449 -72 746q-2 36 12 45t49 9q71 0 139 -75t152 -241l64 -130q36 -72 75 -151q142 -287 187 -355q8 0 14 6t17 34t30 86t53 160t84 258t122 380q4 10 26 18
t40 8t25 -12t18 -111t22 -284q44 -734 149 -1103l-138 -54l-116 1332q-8 4 -23 -45t-39 -126t-51 -174t-59 -193q-79 -236 -128 -310q-71 -106 -110 4q-16 28 -45 89t-67 137l-80 160q-42 84 -79 159t-68 135t-50 96t-38 63t-59 27z" />
    <glyph glyph-name="N" unicode="N" horiz-adv-x="1108" 
d="M1034 170q0 -34 -29 -53t-57 -19q-51 0 -68 24t-2 84q-22 26 -68 85q-153 197 -233 296q-79 99 -217 273l-68 86q-4 6 -14 16l-48 48q-10 10 -16 14q-13 -182 29 -466q17 -116 34 -231t17 -189t-6 -99t-48 -39q-40 14 -54 53t2 75l-126 1102v96q43 0 99 -44t103 -104
l590 -794q26 147 8 604t-62 496q0 82 54 82q73 0 97 -205q5 -43 5 -57l26 -946q0 -26 9 -48t26 -64t17 -76z" />
    <glyph glyph-name="O" unicode="O" horiz-adv-x="784" 
d="M136 457q0 -150 28 -220q41 -103 154 -103q133 0 224 220q90 220 101 484q11 265 -71 365q-42 51 -111 41t-165 -110q-160 -469 -160 -677zM30 428q24 348 100 567t177 313t210 63t197 -183q62 -208 35 -475q-45 -442 -275 -634q-80 -67 -184 -81q-133 0 -204 159
q-56 125 -56 271z" />
    <glyph glyph-name="P" unicode="P" horiz-adv-x="1042" 
d="M426 1495q-117 -41 -144 -87q-6 -58 -15 -127q-37 -280 15 -411q231 102 339 177q107 75 176 148t103 163q0 85 -120 138q-91 40 -164 40t-190 -41zM154 1330q-47 -26 -63 -26q-17 0 -29 12t-12 30v6q0 2 9 13t32 55t49 87t50 76t42 33t27 -9t15 -21t13 -27t21 -23
q205 123 419 101q144 -15 221 -111q40 -50 52 -126q-4 -177 -193 -343q-148 -130 -478 -285q-51 -24 -47 -28v-718q0 -28 -31 -28t-45 28q-75 568 -52 1304z" />
    <glyph glyph-name="Q" unicode="Q" horiz-adv-x="1050" 
d="M158 652q0 -187 53 -338q75 -214 245 -214q98 0 184 70t86 162v16q0 10 -2 10l-178 386l100 50l130 -308q0 -6 10 -6q68 0 68 294v214q0 116 -20 207t-46 138q-58 105 -166 105q-245 10 -350 -214q-47 -101 -72 -223q-24 -121 -38 -183l-4 -132v-34zM58 670q0 216 68 485
q97 383 252 383q54 0 67 -26q5 -10 -3 -28q88 47 131 50q43 4 73 4q129 0 207 -156q99 -197 88 -558q-6 -208 -37 -322q-30 -114 -52 -158v-8q0 -2 2 -4l126 -230l2 -22q0 -56 -54 -56h-12q-8 0 -12 2q-6 8 -20 31t-31 47t-31 45q-22 33 -46 57q-162 -208 -311 -208
t-251 117q-156 180 -156 555z" />
    <glyph glyph-name="R" unicode="R" horiz-adv-x="1032" 
d="M212 1280q-4 -36 -8 -84t-12 -131t-8 -169q8 10 56 34t116 60t147 80t149 91t123 93t68 85t-16 71t-129 50q-120 9 -270 -43t-216 -137zM212 1588v-176q34 8 78 37q212 139 408 119q393 -80 243 -266q-84 -105 -284 -232q-91 -58 -244 -155t-201 -147q32 -14 93 -45
t134 -68t152 -79q281 -149 355 -174q20 -10 38 -18q14 -10 27 -18t13 -16q0 -24 -22 -51t-40 -27l-16 2q-4 2 -27 13t-63 33t-62 30t-71 31t-110 52t-129 63q-269 135 -310 142v-612h-90l-4 1598l82 -10q50 0 50 -26z" />
    <glyph glyph-name="S" unicode="S" horiz-adv-x="1108" 
d="M24 842q0 78 34 155t91 149q115 146 284 243t305 97q18 0 38 1t35 -2q35 -7 35 -58t-38 -76t-92 -25l-78 56q-87 0 -213 -95q-193 -146 -272 -335q-25 -60 -25 -119t39 -102t104 -68t149 -37t170 -20t170 -15t149 -25t104 -48t39 -82q43 -62 -105 -155
q-207 -130 -519 -212q-88 -23 -150 -29q-18 0 -31 12t-7 37t52 43t114 38t150 44q320 94 390 210q0 30 -39 46t-104 27t-148 18t-170 20t-170 32t-148 54t-104 89t-39 132z" />
    <glyph glyph-name="T" unicode="T" horiz-adv-x="1220" 
d="M842 -2q-20 0 -48 2q-35 125 -54 307q-28 257 -52 530q-24 274 -50 417h-36q-92 0 -207 -27t-179 -39t-107 -12t-64 5t-21 30t17 46t37 23l536 78q2 8 6 25q18 77 55 77q39 0 65 -39l18 -27q8 -12 20 -12h16q528 53 574 62l62 2q0 -66 -129 -101t-440 -55q-61 -4 -93 -10
q-12 -218 45 -606q23 -156 43 -310t20 -294q16 -54 1 -63t-35 -9z" />
    <glyph glyph-name="U" unicode="U" horiz-adv-x="922" 
d="M141 124q-50 102 -57 313q-2 61 -4 144q-4 153 -11 349t-7 230q-5 50 39 53q13 1 23 1h16q48 0 48 -30v-852q0 -74 31 -122q57 -88 129 -88q76 6 131 81t95 189t66 248t46 258t35 220t33 134q64 57 93 -35q11 -35 13 -76t-4 -59q0 -134 -13 -266t-13 -243q0 -145 26 -369
t26 -290t-2 -83t-9 -31t-19 -24t-28 -9t-20 1l-76 768q-55 -202 -119 -305q-131 -209 -275 -209q-143 0 -193 102z" />
    <glyph glyph-name="V" unicode="V" horiz-adv-x="1074" 
d="M24 1164q0 40 66 40q45 0 62 -52l462 -974l308 1282q7 24 32 24q26 0 50 -15t20 -35l-308 -1408q-38 -71 -163 40q-27 24 -41 36l-486 1050q-2 2 -2 6v6z" />
    <glyph glyph-name="W" unicode="W" horiz-adv-x="1800" 
d="M1664 1520q33 0 60 -60l-280 -1128q0 -103 -45 -186q-28 -52 -67 -15q-20 19 -42 75q-212 375 -360 868l-256 -844q-22 -159 -85 -220q-45 -43 -105 -35q-22 3 -33 12t-7 13q-78 104 -139 339q-27 103 -53 216t-55 224q-64 245 -163 399q8 21 48 56q40 34 52 40
q28 -21 49 -77q25 -66 111 -347t228 -722q27 20 214 619q34 109 65 208t53 171q6 28 9 55t9 49q14 52 72 52q28 12 52 -28t49 -116t53 -177q123 -445 242 -629l282 1152q9 36 42 36z" />
    <glyph glyph-name="X" unicode="X" horiz-adv-x="946" 
d="M116 1264q0 70 51 70q29 0 29 -4l256 -536q67 107 141 237q75 131 113 197t69 122t49 86q20 0 43 -5t23 -37v-8q0 -4 -2 -4l-378 -702l302 -578q4 -8 4 -28q0 -45 -8 -58q-26 -44 -78 8q-20 20 -32 51q-121 313 -246 463q-59 -47 -159 -220q-29 -50 -57 -95t-51 -84
t-39 -61l-102 50q32 60 83 128t101 142t92 148t56 146l-256 538q-4 4 -4 34z" />
    <glyph glyph-name="Y" unicode="Y" horiz-adv-x="990" 
d="M384 50q0 72 22 141t48 139t45 139t13 145q-58 64 -128 139q-276 296 -358 501q-2 2 -2 6v8q0 40 56 40q52 -62 111 -141q245 -328 373 -423h26q8 14 28 69t49 131q156 409 203 644q2 4 22 4t39 -27t15 -55q-153 -537 -177 -609q-25 -73 -42 -115t-35 -93l-48 -136
q-60 -170 -184 -557l-24 -2q-52 0 -52 52z" />
    <glyph glyph-name="Z" unicode="Z" horiz-adv-x="1374" 
d="M44 86q0 18 5 26t31 42t81 105t155 198t251 321t371 476v26q-369 43 -844 24q-20 14 -20 86q0 6 268 6l784 -6l16 -86l-920 -1152h458q182 0 287 1t331 25q20 -8 23 -22t3 -28v-28q0 -53 -42 -48q-185 -23 -565 -28t-571 -24l-28 -2q-38 0 -56 35t-18 53z" />
    <glyph glyph-name="bracketleft" unicode="[" horiz-adv-x="964" 
d="M386 -56q164 0 510 108q26 -54 10 -86t-60 -18l-564 -154q-25 -4 -51 26q-25 30 -25 52v512l-154 1742v8l-2 36v14q0 44 7 59q14 31 73 9l586 26l56 2h54q0 -80 -266 -98q-266 -17 -354 -6l-28 -26l-6 -144q0 -256 34 -578t52 -503t22 -292t6 -169t5 -120t5 -125t10 -189
l2 -30l24 -52q4 -4 54 -4z" />
    <glyph glyph-name="backslash" unicode="\" horiz-adv-x="1136" 
d="M78 2074q12 0 40 -18t34 -34l948 -1944q2 -4 2 -14v-12q0 -34 -16 -44t-43 -10t-43 2t-26 26l-768 1690l-180 280q31 78 52 78z" />
    <glyph glyph-name="bracketright" unicode="]" horiz-adv-x="1050" 
d="M892 1931q0 -810 106 -2011q0 -43 -213 -85q-213 -41 -289 -41q-22 0 -48 17t-40 35l28 26l382 102l26 26l4 68v24q0 274 -15 546t-43 750t-22 890q-56 28 -111 28q-72 0 -254 -28t-263 -28h-22l-70 2h-22q-6 6 -16 25t-10 27q0 76 355 76q37 0 60 2t73 6t133 11t205 7
h28q70 0 70 -48q-32 -168 -32 -427z" />
    <glyph glyph-name="asciicircum" unicode="^" 
d="M366 1910q12 0 20 -2l328 -382q40 -8 47 -20t7 -26q0 -32 -17 -55t-51 -23h-8q-2 0 -2 2l-280 350q-10 18 -38 18h-10l-228 -398q-8 -16 -43 -16t-35 30l2 16l254 474q2 8 22 20t32 12z" />
    <glyph glyph-name="underscore" unicode="_" horiz-adv-x="1254" 
d="M1138 360h16q34 0 43 -19t9 -46t-16 -42t-59 -29t-118 -29q-460 -92 -883 -195h-14q-57 0 -85 47q-9 15 -7 29q4 32 1011 263q93 21 103 21z" />
    <glyph glyph-name="grave" unicode="`" horiz-adv-x="318" 
d="M34 1448q0 66 50 66q111 -122 140 -175q28 -53 24 -85t-52 -44q-20 22 -46 49q-111 115 -116 175v14z" />
    <glyph glyph-name="a" unicode="a" horiz-adv-x="750" 
d="M512 946q-42 61 -140 -80q-126 -180 -234 -477q-28 -77 -38 -127q0 -72 22 -81t54 23q63 63 151 216t131 240q50 117 53 214q1 34 1 72zM698 138q0 -78 -5 -95t-49 -17q-21 0 -27 39q-7 39 -14 112t-21 205t-46 192q-190 -387 -317 -497q-105 -91 -165 -13
q-40 53 -52 186q0 92 54 243q97 272 212 441q114 170 218 170q86 14 127 -37t15 -171q0 -174 24 -333t35 -253t11 -172z" />
    <glyph glyph-name="b" unicode="b" horiz-adv-x="906" 
d="M581 916q-55 0 -120 -40q-170 -105 -283 -356l-8 -386q10 6 54 27t104 55q168 95 259 194q137 148 151 320q0 66 -25 107t-51 60t-81 19zM214 1281q-18 -259 -18 -525q198 261 350 287q52 9 102 5q188 0 188 -334q0 -167 -83 -295q-130 -201 -515 -393q-100 -29 -147 -16
q-7 2 -7 4q-13 205 3 760t11 934q22 0 46 3t43 1t32 -12t13 -85t-18 -334z" />
    <glyph glyph-name="c" unicode="c" 
d="M730 458v-22q0 -177 -115 -306q-115 -130 -295 -130q-80 0 -133 51t-82 123q-53 132 -53 286q6 72 12 157t19 169q30 194 90 295q78 131 213 127q123 0 127 -267q1 -63 1 -103q-98 0 -126 206l-6 58l-14 2q-60 0 -119 -140t-90 -399q-49 -416 169 -467q183 0 240 150
q16 42 31 87t31 89t46 82q54 14 54 -48z" />
    <glyph glyph-name="d" unicode="d" horiz-adv-x="648" 
d="M462 679q0 23 2 67t-2 88q-10 112 -58 112q-62 4 -115 -49t-92 -137q-81 -174 -92 -383t73 -259q79 0 152 124q53 89 83 201q31 111 40 162t9 74zM170 16q-48 0 -65 7t-30 21t-24 34t-27 44q-49 804 260 920q80 30 194 4q10 91 -4 272q-14 180 -22 277t-10 159
q0 33 51 38t67 -6q-7 -433 3 -1044q11 -610 11 -737t-3 -152t-35 -25t-40 28l-6 510q-99 -229 -218 -312q-54 -38 -102 -38z" />
    <glyph glyph-name="e" unicode="e" horiz-adv-x="946" 
d="M469 972q-25 0 -63 -33t-71 -80q-75 -107 -75 -177q68 0 204 82t136 142q0 45 -86 62q-20 4 -45 4zM732 876q33 -53 -332 -253q-146 -79 -160 -91q-30 -60 -30 -132t-3 -118t4 -87q16 -95 125 -95q175 0 361 276q65 96 91 128t44 32q66 0 66 -38t-29 -88t-76 -106
q-98 -117 -234 -211q-136 -95 -226 -95q-89 0 -135 44t-65 110t-20 141t-3 139l-30 -6q-48 -10 -73 5t-25 34t6 25t35 30t60 81t57 122q71 177 122 247q86 118 232 114q75 0 157 -61q81 -61 81 -147z" />
    <glyph glyph-name="f" unicode="f" horiz-adv-x="708" 
d="M540 1508h-6q-2 0 -4 2q-88 224 -137 156q-50 -70 -81 -529q-8 -119 -16 -221q90 22 132 48t74 40q119 52 182 52q0 -168 -199 -205q-147 -27 -183 -43q7 -147 26 -312q20 -166 25 -229t2 -101t-2 -63q4 -107 -55 -107q-24 0 -36 11t-16 45q-34 459 -34 586v92q0 8 -2 8
q-14 0 -59 -24t-59 -24q-50 0 -50 38t116 110q26 16 38 32q-11 89 -7 262q5 172 16 292t34 215t61 149t98 34q78 0 131 -82t53 -157t-42 -75z" />
    <glyph glyph-name="g" unicode="g" horiz-adv-x="896" 
d="M134 316q67 -208 296 270q44 92 87 189t81 181q0 22 -10 41t-55 9t-98 -52t-98 -103q-85 -115 -144 -275q-59 -159 -59 -260zM190 -782q176 10 277 92t151 212t60 297t2 345t-23 357t-13 333q-159 -466 -303 -641q-118 -143 -211 -90q-75 43 -100 179q8 189 126 427
t268 340q78 53 162 56t162 -65q4 -4 15 -137t20 -236t17 -208t14 -201t13 -188t-10 -220t-53 -249q-80 -270 -217 -401q-157 -151 -343 -56q-73 0 -14 54z" />
    <glyph glyph-name="h" unicode="h" horiz-adv-x="956" 
d="M68 78v1406q0 29 46 24t56 -24l26 -1126q22 36 41 101t45 140q66 190 148 285q116 134 304 116q68 0 110 -43t44 -113l20 -798q0 -56 -55 -63q-23 -3 -59 11l-24 880q-74 28 -142 -22t-130 -141t-118 -207t-104 -220t-87 -178t-71 -82q-24 0 -37 9t-13 45z" />
    <glyph glyph-name="i" unicode="i" horiz-adv-x="272" 
d="M40 1474q0 38 46 38t56 -26t10 -60q-25 -46 -69 -35q-43 12 -43 83zM122 1164q30 0 47 -9t17 -39l-4 -822q0 -140 4 -254q3 -56 -50 -56q-59 0 -52 56q0 130 -5 274t-13 391t18 455q8 4 38 4z" />
    <glyph glyph-name="j" unicode="j" horiz-adv-x="230" 
d="M164 1586q0 -52 -52 -52t-52 40q0 18 26 41t52 23t26 -52zM-352 -431q0 41 15 44t39 -15q40 -30 117 -107t115 -79t65 21t47 61q68 130 64 369q-2 109 -15 259t-31 417t-4 485q11 28 40 28q28 0 41 -4t21 -24q-11 -235 10 -504q22 -268 33 -418t11 -243t-5 -137t-15 -97
q-23 -124 -72 -220q-48 -97 -119 -97t-211 89q-58 37 -102 84t-44 88z" />
    <glyph glyph-name="k" unicode="k" horiz-adv-x="878" 
d="M812 162q0 -8 1 -30t-3 -46q-10 -62 -46 -62h-8q-4 0 -6 2l-572 230q-4 -215 -49 -299q-19 -35 -40 -33t-37 32l58 1580q79 75 104 -22q30 -117 0 -507t-14 -523h6q4 0 6 2q104 104 186 220t148 219t117 179t95 104q30 0 51 -10t21 -46l-2 -26q-112 -228 -211 -364
t-180 -222t-175 -156l-2 -14q0 -53 231 -134q119 -42 205 -58t116 -16z" />
    <glyph glyph-name="l" unicode="l" horiz-adv-x="282" 
d="M44 1716q39 26 66 26t36 -26q58 -568 74 -1394q4 -206 4 -237t-2 -33q-50 -25 -89 -1t-39 51q38 247 17 818t-67 796z" />
    <glyph glyph-name="m" unicode="m" horiz-adv-x="1186" 
d="M112 1232h30q14 0 20 -2q23 -78 29 -276q5 -198 8 -318t13 -228q63 354 81 423q19 69 34 100t34 41t42 9t57 -1t57 -28t36 -72q15 -51 32 -186t37 -156q135 399 194 470q33 40 65 30q13 -4 27 -4q54 0 82 -56q53 -150 58 -327q2 -75 1 -143t4 -132q12 -149 81 -248
q-16 -32 -32 -43t-42 -11t-44 17t-30 42t-19 51t-13 46q-8 286 -25 439t-51 161q-65 15 -218 -574q-8 -14 -43 -14h-51q-50 294 -83 423t-67 99t-76 -215t-108 -519l-100 -24q-8 73 -15 273q-13 373 -24 578q-11 204 -33 321q0 40 18 47t34 7z" />
    <glyph glyph-name="n" unicode="n" horiz-adv-x="990" 
d="M112 1178h16q40 0 114 -782q42 136 66 264t62 233t107 185t199 118q72 -12 116 -87t70 -185t36 -239t12 -247t2 -211t4 -133q-13 -34 -46 -45t-54 19q0 46 -17 296t-25 402t-12 188q-77 135 -165 58q-103 -90 -215 -472q-51 -172 -77 -309q-27 -137 -31 -179
q-13 -31 -50 -42q-70 -20 -88 16q-22 270 -39 541t-37 563q0 48 52 48z" />
    <glyph glyph-name="o" unicode="o" horiz-adv-x="546" 
d="M410 720q0 256 -92 256q-85 27 -123 -68q-39 -95 -42 -224q-3 -128 -2 -220t1 -175t26 -161h12q153 0 205 353q15 102 15 199v40zM36 453q0 87 14 202t78 371q0 63 86 94q22 8 54 8q105 0 218 -258q36 -157 27 -295q-35 -532 -345 -575q-79 0 -105 107q-13 53 -13 167
q-14 92 -14 179z" />
    <glyph glyph-name="p" unicode="p" horiz-adv-x="988" 
d="M254 718q-95 -101 -87 -217q5 -82 15 -148q10 -67 12 -97q76 58 177 118t196 130q226 167 267 350q8 42 -7 57t-51 21q-76 16 -174 -11q-211 -58 -348 -203zM58 -526q46 436 8 1144q-10 188 -12 398q6 28 15 43t50 6t49 -46t4 -83t-12 -92t0 -74q192 138 278 181
q190 95 338 63q359 -83 2 -460q-121 -128 -304 -264q-182 -136 -286 -190q-6 -77 -13 -235q-7 -159 -10 -223t-6 -114t-3 -74q-10 -4 -31 -6t-33 -3t-16 1q-6 0 -12 11t-6 17z" />
    <glyph glyph-name="q" unicode="q" horiz-adv-x="836" 
d="M144 273q0 -63 11 -80t57 -17q113 -41 205 91q79 113 123 289t40 296q-94 0 -174 -62t-138 -154t-91 -196t-33 -167zM42 253q0 73 19 145t52 147q72 163 185 283q114 120 232 120q78 0 110 -38t42 -116l186 -1356h-108q-8 12 -33 217t-37 300t-23 189q-38 321 -61 368
q-8 -56 -22 -128t-53 -138q-94 -160 -323 -170q-90 0 -128 52t-38 125z" />
    <glyph glyph-name="r" unicode="r" horiz-adv-x="812" 
d="M326 46q0 -40 -54 -40t-78 40l-142 918v16q0 36 50 36q16 0 30 -3t22 -23q6 -30 12 -83t14 -117q24 -192 40 -303t36 -155q-12 400 81 563q102 178 363 139q62 0 62 -66q0 -26 -34 -35t-76 -12t-82 -7t-58 -20q-72 -40 -101 -124t-41 -198t-17 -249t-27 -277z" />
    <glyph glyph-name="s" unicode="s" horiz-adv-x="750" 
d="M152 569q0 -39 9 -52t27 -20t64 -7q70 0 167 40q98 40 141 40q71 0 115 -46t47 -104q23 -53 -57 -163q-80 -109 -206 -209t-195 -96q-40 0 -47 24t-7 54q0 -2 43 24t102 69q388 283 211 313q-72 10 -121 -2t-89 -28l-75 -30q-35 -14 -77 -10q-88 0 -121 55t-33 149
t42 179t108 147t152 99t149 37t89 -6t26 -40t-24 -59t-54 -25l-52 24q-64 18 -124 -18t-107 -97t-75 -132t-28 -110z" />
    <glyph glyph-name="t" unicode="t" horiz-adv-x="550" 
d="M223 -46q-31 0 -67 30l-50 870q-20 -10 -37 -21t-43 -25t-56 -8q-31 0 -40 87q-2 19 0 29l192 110l12 512q4 26 32 21q65 -12 84 -21q-4 -54 -9 -117q-21 -262 -9 -357l300 84q21 5 32 -96l-340 -144l34 -894q-4 -60 -35 -60z" />
    <glyph glyph-name="u" unicode="u" horiz-adv-x="794" 
d="M128 994q28 0 42 -28q0 -94 5 -175q11 -173 16 -296q6 -123 10 -159q3 -36 6 -68q15 -155 57 -160q53 0 112 79t105 178t52 141q19 157 19 474l110 -6q2 -162 -2 -293t-2 -246q4 -249 76 -447q-6 -6 -24 -17t-26 -11q-50 0 -67 33t-22 78t-8 90t-27 71q-19 -56 -86 -122
q-131 -128 -194 -128q-62 0 -103 60t-63 154t-30 209t-10 225t-2 200t-6 136q8 20 21 24t41 4z" />
    <glyph glyph-name="v" unicode="v" horiz-adv-x="726" 
d="M93 872q21 0 49 -37t63 -98t72 -133q148 -289 235 -348q30 455 30 665l-4 129q0 36 13 44t35 8q82 0 82 -48q10 -214 -15 -534q-24 -319 -15 -494q-16 -16 -55 -21t-52 -3t-55 53t-94 129q-73 110 -199 332t-157 302l-2 14q0 30 24 35t45 5z" />
    <glyph glyph-name="w" unicode="w" horiz-adv-x="1160" 
d="M56 962q0 47 42 62q44 0 64 -50l230 -590q2 28 10 101t16 155t15 155t10 97t5 50q8 110 74 110q20 0 29 -4t21 -24l384 -656v676q132 0 108 -190q-6 -48 -4 -86l24 -590q14 -40 -1 -53t-41 -9t-52 22t-34 40l-408 692q-22 -478 -54 -844q-10 -37 -49 -19q-15 7 -29 21
l-24 24q-10 30 -34 94l-54 144q-30 80 -64 170t-72 190l-82 220q-30 45 -30 92z" />
    <glyph glyph-name="x" unicode="x" horiz-adv-x="930" 
d="M890 155q0 -81 -58 -75q-235 253 -336 308h-10l-2 2q-10 0 -18 -11t-21 -62t-36 -154t-65 -287q-28 -28 -53 -26t-40 20t-20 48t11 60l128 538q-34 40 -87 88q-230 208 -249 296q0 52 54 52q57 10 92 -41q16 -23 33 -57q72 -145 207 -210q34 95 50 438q4 84 4 138
q15 19 67 17q53 -2 61 -29q10 -86 -3 -169t-32 -166t-35 -165t-8 -166l356 -358q10 -10 10 -29z" />
    <glyph glyph-name="y" unicode="y" horiz-adv-x="744" 
d="M44 868q0 66 41 66q23 0 43 -9t24 -17q44 -70 91 -156q195 -356 323 -472l48 784l24 2q50 0 62 -32q5 -184 -5 -500q-11 -316 -16 -396t-12 -181t-16 -213t-17 -212t-14 -181t-10 -117h-104l60 774l-516 826q-6 6 -6 34z" />
    <glyph glyph-name="z" unicode="z" horiz-adv-x="1266" 
d="M812 959q0 -69 -25 -138t-62 -135t-80 -130q-169 -252 -169 -404v-24l732 150h14q28 0 51 -17t34 -38t1 -43t-50 -32q-30 0 -934 -168q-26 120 131 456q43 92 119 246t84 200q0 4 -1 8t-1 6q-56 -22 -123 -49q-249 -100 -387 -131q-8 -6 -28 4t-38 27q-46 44 -12 71
q106 0 339 90q93 36 182 71t157 49q66 0 66 -69z" />
    <glyph glyph-name="braceleft" unicode="{" horiz-adv-x="714" 
d="M234 704q0 28 -19 65q-48 93 -111 117q-54 38 -59 68t17 47t62 22t78 -7q73 26 82 57t-54 127q-62 96 -74 183t15 158t85 121t132 68t158 -1t162 -83q0 -28 -19 -51t-45 -23l-10 2q-20 54 -68 72t-102 6t-105 -51t-79 -97q-66 -136 44 -286q74 -98 83 -150t-43 -72
l-26 -12q-24 -8 -53 -20t-55 -22l-24 -12q13 -47 119 -163q84 -92 -7 -149q-32 -20 -72 -40q-160 -80 -124 -258q0 -203 192 -306q84 -45 153 -71q69 -25 81 -37t9 -22t-12 -21t-21 -20t-18 -15q-50 6 -123 17t-146 55q-177 107 -215 402q0 122 3 200t21 121t55 55t105 2
q28 -4 28 24z" />
    <glyph glyph-name="bar" unicode="|" horiz-adv-x="282" 
d="M44 1716q39 26 66 26t36 -26q58 -568 74 -1394q4 -206 4 -237t-2 -33q-50 -25 -89 -1t-39 51q38 247 17 818t-67 796z" />
    <glyph glyph-name="braceright" unicode="}" horiz-adv-x="714" 
d="M56 1534l-12 -2q-22 0 -40 22t-18 54q147 123 302 81q70 -19 125 -68t80 -120t14 -161t-57 -163t-57 -104t-6 -49t25 -29t52 -23q34 12 72 7t59 -23t15 -49t-56 -69q-30 -8 -58 -43t-45 -73t-18 -66t25 -24q64 10 99 -1t56 -65t21 -314q-52 -430 -385 -469q-43 -5 -73 -9
q-6 6 -17 16t-27 28t0 30q14 16 50 31t81 35q122 54 184 118q93 95 93 240q33 181 -119 259q-88 45 -108 86t34 103q103 118 111 166l-22 10q-24 12 -52 23t-52 21l-20 10q-50 20 -42 73t80 151q54 80 60 155t-20 133t-75 99t-100 54t-96 -6t-63 -75z" />
    <glyph glyph-name="asciitilde" unicode="~" horiz-adv-x="940" 
d="M754 1422q28 8 53 9t35 -35q22 -54 -56 -136t-158 -122q-55 -15 -110 10q-55 24 -68 62q-26 14 -37 42t-24 55t-31 46t-58 18t-58 -21t-30 -48t-25 -57t-39 -49q-36 -11 -49 3q-12 14 -23 53q7 114 90 166q83 53 183 44t131 -64q48 -159 108 -150q26 4 50 35t45 64t39 58
t32 17z" />
    <glyph glyph-name="nonbreakingspace" unicode="&#xa0;" horiz-adv-x="922" 
 />
    <glyph glyph-name="exclamdown" unicode="&#xa1;" horiz-adv-x="282" 
d="M163 963v24q0 37 25 37q35 0 41 -14t6 -34t-6 -36q-6 -15 -41 -14q-25 0 -25 37zM54 177q0 115 -3 153q-13 168 58 165q19 0 36 -12t23 -34t-8 -98l-11 -61q-5 -31 -5 -58v-470q0 -9 1 -22q4 -51 -36 -51q-23 0 -31 20q-24 353 -24 468z" />
    <glyph glyph-name="cent" unicode="&#xa2;" horiz-adv-x="808" 
d="M328 98q26 0 54 4q15 405 -38 996q-106 -42 -169 -420q-23 -138 -23 -204q-17 -218 80 -323q36 -39 96 -53zM348 0h-28q-80 0 -133 51t-82 123q-53 132 -53 286q8 104 18 225q39 472 262 517q-14 126 -32 204q39 26 67 26t37 -26q4 -58 10 -112t8 -104q110 -55 155 -110
q45 -54 54 -95t-25 -77q-52 0 -143 117q-21 27 -37 45q18 -325 22 -559q4 -233 8 -371v-20q56 26 83 72t45 101l36 110t56 103q54 14 54 -48v-22q0 -213 -153 -344q-49 -42 -111 -66q14 -112 14 -132q-52 -30 -84 -33t-32 21q4 28 6 59t6 63q-14 -4 -28 -4z" />
    <glyph glyph-name="sterling" unicode="&#xa3;" horiz-adv-x="1104" 
d="M91 702q-65 0 -65 64q0 30 4 38q32 4 101 14t153 20q58 236 206 380t316 144q92 0 140 -62t48 -158q-36 0 -58 18t-40 40t-38 41t-64 19t-107 -26t-120 -78q-127 -116 -177 -304q129 14 230 28l108 6q0 -80 -362 -148l-40 -264q6 -68 -1 -140t-9 -128t6 -88t35 -21t55 33
t67 46q229 141 499 -6q48 -4 65 -22t6 -40t-49 -41t-98 -21q-55 133 -313 60q-99 -28 -239 -106q-108 -96 -134 116q-16 135 14 432q2 22 5 41l6 38t8 41t11 52q-104 -18 -169 -18z" />
    <glyph glyph-name="currency" unicode="&#xa4;" horiz-adv-x="1024" 
d="M358 820v-6q0 -4 2 -6q4 -253 51 -318t109 -17q62 49 105 140t23 101q0 150 -11 194q-23 91 -99 126q-70 0 -125 -72q-55 -73 -55 -142zM764 283q0 -16 -10 -35q-31 -57 -72 -26q-12 26 -28 65t-36 85q-54 -46 -130 -46q-84 -36 -152 114q-62 -100 -168 -262
q-36 -16 -58 -6t-30 33q-20 57 28 105l182 268q-28 106 -33 198t35 188q-71 143 -64 232q20 50 68 30q50 -10 62 -46t20 -88q56 54 146 76q84 -16 132 -60q56 127 96 232q19 12 54 -2q34 -14 49 -26t13 -26q-20 -86 -61 -158t-87 -142q14 -56 17 -119t9 -125q0 -60 -4 -134
t-42 -160l64 -150v-15z" />
    <glyph glyph-name="yen" unicode="&#xa5;" horiz-adv-x="980" 
d="M146 678q0 20 6 38q16 2 46 7t71 10t88 11t95 12l4 162q-116 207 -251 579q-17 47 -17 60v19q10 26 34 26t44 -10q32 -10 59 -56t83 -171t106 -199q182 436 221 472q11 10 13 3t-2 -27q14 34 28 38t38 -5t46 -24t14 -47q-56 -114 -112 -204q-103 -165 -142 -249t-60 -229
l-2 -76v-48l184 22l108 6q86 -119 -292 -172v-108q107 9 170 2q64 -8 81 -21t9 -27q-17 -30 -82 -50q-30 10 -76 10t-102 -6q0 -390 -12 -390l-108 -12l8 388q-58 -8 -117 -17q-204 -31 -229 19q0 8 10 27t16 25q146 9 322 40l2 112q-137 -12 -234 -4q-68 0 -68 64z" />
    <glyph glyph-name="brokenbar" unicode="&#xa6;" horiz-adv-x="282" 
d="M202 940q22 -477 22 -681q0 -205 -2 -207q-50 -25 -89 -1t-39 51q37 265 29 579q-3 117 -9 259h88zM44 1716q39 26 66 26t36 -26q34 -402 48 -646l-88 -4q-33 505 -62 650z" />
    <glyph glyph-name="section" unicode="&#xa7;" horiz-adv-x="750" 
d="M152 549q0 -43 34 -46t83 23t107 75t105 102q110 124 95 186q-18 75 -228 9q-79 -49 -138 -155q-58 -105 -58 -194zM675 524q44 -46 47 -104q23 -53 -57 -163q-80 -109 -206 -209t-195 -96q-40 0 -47 24t-7 54q0 -2 43 24t102 69q388 283 211 313q-72 10 -121 -2t-89 -28
l-75 -30q-35 -14 -77 -10q-88 0 -121 55t-33 149q0 159 112 284q-74 10 -101 64t-27 145t41 175t108 147q144 135 329 135q36 0 62 -5t26 -39t-24 -59t-54 -25l-52 24q-118 29 -231 -116q-47 -60 -76 -131t-29 -111t10 -52q22 -26 59 -26h39q60 0 130 27t111 40t73 13
q56 0 101 -45t49 -107q23 -50 -61 -163t-197 -205q80 30 132 30q51 0 95 -46z" />
    <glyph glyph-name="dieresis" unicode="&#xa8;" horiz-adv-x="628" 
d="M490 1530q54 0 54 -52q0 -27 -28 -58t-50 -20q-26 -18 -54 10t-24 68q30 30 50 41t52 11zM224 1530q54 0 54 -52q0 -25 -27 -57t-49 -21q-28 -16 -57 13t-21 65q28 30 48 41t52 11z" />
    <glyph glyph-name="copyright" unicode="&#xa9;" horiz-adv-x="994" 
d="M490 326q-118 0 -175 121q-39 83 -39 187q6 64 15 141t36 142q64 153 221 153q71 0 96 -86q12 -41 12 -130q-65 -13 -108 55q-16 25 -20 47t-2 24q-74 -4 -111 -140q-27 -101 -27 -196q-6 -94 5 -131q23 -76 109 -91q74 22 111 54t60 65t46 65t67 54q39 6 44 -20
q30 365 -71 526q-45 72 -109 91t-133 -10t-137 -99t-122 -174q-122 -235 -122 -534q0 -134 23 -190q48 -116 159 -116q213 -6 366 200q46 62 80 132q-127 -140 -274 -140zM30 428q30 434 196 701q74 119 163 181t178 69t170 -42t141 -149q129 -242 74 -519t-244 -472
t-418 -199q-133 0 -204 159q-56 125 -56 271z" />
    <glyph glyph-name="ordfeminine" unicode="&#xaa;" horiz-adv-x="466" 
d="M305 733q-36 42 -133 -107t-112 -221q0 -89 88 17q64 77 100 136q36 58 46 85q11 32 11 90zM72 293q-62 3 -71 107q0 42 32 115q85 195 188 268q35 25 69 25q52 7 76 -17t9 -82q0 -75 14 -155t21 -126q6 -45 6 -82t-3 -45t-23 -9t-20 13q-6 25 -17 119t-33 131
q-160 -262 -248 -262z" />
    <glyph glyph-name="guillemotleft" unicode="&#xab;" horiz-adv-x="1336" 
d="M499 677q-31 39 -22 61t9 24l606 504q10 10 17 23t19 28t40 5q48 -17 28 -82q-2 -2 -2 -8l-2 -2q-113 -153 -267 -259q-71 -49 -147 -101t-164 -132l14 -32q11 -22 356 -222q19 -14 64 -29q44 -15 68 -24t34 -11q28 -103 -80 -136q-42 39 -164 110q-122 72 -194 115
t-127 86t-86 82zM812 1211q0 -3 -2 -5q-66 -92 -131 -150t-135 -108t-147 -102t-165 -132l14 -32q8 -16 164 -108t178 -105t45 -23t50 -20t51 -19t34 -11q28 -101 -78 -136q-36 33 -161 108q-254 151 -325 204q-127 95 -106 154q6 9 6 12l606 504q10 10 17 23t19 28t41 5
t32 -33t-2 -37t-5 -17z" />
    <glyph glyph-name="logicalnot" unicode="&#xac;" horiz-adv-x="1104" 
d="M130 718q0 13 26 52q675 46 814 46q28 0 28 -58v-14q0 -106 16 -213t16 -235q0 -26 -60 -26h-14l-32 4l-8 432l-634 -14l-58 -2l-16 -2q-78 0 -78 30z" />
    <glyph glyph-name="uni00AD" unicode="&#xad;" horiz-adv-x="818" 
d="M26 408q0 8 10 28t16 24q88 6 177 38t177 69t173 68t165 31q28 0 28 -58v-14l-4 -32l-590 -178q-8 -4 -58 -4l-16 -2q-78 0 -78 30z" />
    <glyph glyph-name="registered" unicode="&#xae;" horiz-adv-x="784" 
d="M390 860q-2 -14 -3 -35t-3 -44l-4 -46t-2 -41q6 4 42 22l82 42q130 68 160 99t22 51t-66 30q-91 7 -184 -43q-28 -15 -44 -35zM136 457q0 -145 29 -209q44 -96 153 -114q133 -30 248 38q114 68 180 196q-34 2 -84 44q-25 9 -146 87q-122 78 -144 83v-266l-84 10l8 708
l10 -6q12 -4 26 -8t27 -9t23 -7t8 -10l-6 -52q16 2 39 15q110 62 203 53q92 -26 122 -61q57 -66 -30 -146q-86 -80 -188 -133l-72 -38q43 -22 148 -83t128 -69q34 -22 48 -42q83 204 62 425q-22 221 -156 307q-153 99 -392 -36q-160 -469 -160 -677zM30 428q30 441 187 692
q71 114 156 173t171 62q180 6 302 -197q152 -257 116 -533t-225 -455q-188 -179 -447 -172q-133 0 -204 159q-56 125 -56 271z" />
    <glyph glyph-name="macron" unicode="&#xaf;" horiz-adv-x="818" 
d="M26 1400q0 8 11 28t17 24q121 8 345 39t339 31q28 0 28 -56v-16l-2 -32l-584 -42q-8 -4 -58 -4l-16 -2q-80 0 -80 30z" />
    <glyph glyph-name="degree" unicode="&#xb0;" horiz-adv-x="412" 
d="M215 1028q-33 0 -61 -25t-27 -61t14 -48t29 -32q71 -8 86 0q14 8 42 68q4 48 -23 73t-60 25zM233 1110q51 0 76 -21t45 -55q14 -56 14 -104t-20 -80q-42 -68 -190 -60q-52 0 -76 44t-24 90q-24 68 28 127t147 59z" />
    <glyph glyph-name="plusminus" unicode="&#xb1;" horiz-adv-x="956" 
d="M32 548q0 24 24 36t60 17t78 8t78 8q84 12 84 49v434q0 34 88 34v-442q155 50 214 56q60 6 122 6q0 -68 -34 -80q-38 -8 -87 -17t-71 -14t-33 -8t-24 -8t-23 -8t-24 -13t-14 -18v-312q151 32 274 32q28 0 28 -58v-14l-4 -32q-400 -29 -485 -44q-85 -16 -91 -16l-16 -2
q-78 0 -78 30q0 8 10 28t16 24q111 6 266 36l-48 278l-30 4q-92 0 -226 -56q-54 38 -54 62z" />
    <glyph glyph-name="twosuperior" unicode="&#xb2;" horiz-adv-x="652" 
d="M35 772v4q2 6 61 67q106 110 204 110q77 -34 78 -163t-96 -328q-26 -53 -51 -90l314 91l15 2q27 -1 36 -9q10 -8 10 -14q-57 -35 -217 -76q-159 -41 -212 -64q-15 0 -26 4t-11 28q128 207 165 351q15 61 16 126q-12 37 -25 58q-26 43 -110 -24q-45 -35 -121 -108
q-30 19 -30 35z" />
    <glyph glyph-name="threesuperior" unicode="&#xb3;" horiz-adv-x="574" 
d="M207 383q0 19 20 39q23 22 116 89q137 99 137 194t-133 95q-38 3 -78 -20q-39 -23 -76 -47q-60 -38 -106 1v4q0 3 2 3l208 232q64 84 15 104q-38 18 -124 -18t-115 -86h-4q-3 -1 -11 -1t-19 12q-12 12 -12 27q0 42 125 90t190 48q114 -57 -55 -272q-21 -28 -35 -49
q26 16 54 16h77t86 -24q68 -45 69 -105q1 -96 -108 -211q-46 -47 -98 -86t-95 -70q-30 16 -30 35z" />
    <glyph glyph-name="acute" unicode="&#xb4;" horiz-adv-x="318" 
d="M282 1424v-14q-10 -61 -131 -162q-31 -26 -53 -46q-135 30 34 195q46 45 92 87q58 0 58 -60z" />
    <glyph glyph-name="mu" unicode="&#xb5;" horiz-adv-x="794" 
d="M128 1098q28 0 42 -28q0 -94 5 -174q11 -168 16 -297q6 -128 10 -162q3 -33 6 -65q15 -155 57 -160q53 0 112 79t106 178q47 100 51 142q19 161 19 473l110 -6q14 -193 17 -477q3 -283 23 -431q-24 -12 -114 -12l-28 178q-38 -88 -132 -162t-175 -78t-89 72
q-26 0 -26 -304v-94l-84 -32l12 1332q8 20 21 24t41 4z" />
    <glyph glyph-name="paragraph" unicode="&#xb6;" horiz-adv-x="916" 
d="M710 776v178q0 94 -2 208q-19 -14 -46 -17t-56 -41q4 -98 12 -224t22 -357t14 -315q0 -120 -8 -144q-14 -42 -60 -42q-20 0 -27 16t-11 38q4 170 -22 485t-30 401q-15 -66 -131 -115q-117 -49 -210 -33q-109 19 -109 110q0 164 67 245t233 115q100 8 164 14t128 9
t146 -19l42 -1126l2 -62q0 -14 1 -26t-7 -26t-30 -14t-32 10t-10 16q-40 326 -40 716z" />
    <glyph glyph-name="periodcentered" unicode="&#xb7;" horiz-adv-x="264" 
d="M140 584q54 0 54 -54q0 -24 -27 -55t-51 -21q-21 -18 -53 9t-23 67q28 32 48 43t52 11z" />
    <glyph glyph-name="cedilla" unicode="&#xb8;" horiz-adv-x="660" 
d="M132 -534q0 6 41 14t94 20t103 29t66 41t-16 57t-142 77q-88 0 -120 55t-32 151q15 160 51 184q15 10 29 -6t22 -48q20 -81 -2 -148q92 -64 161 -98t115 -66t70 -77t24 -131q-24 -73 -160 -106t-250 -28q-42 0 -48 24t-6 56z" />
    <glyph glyph-name="onesuperior" unicode="&#xb9;" horiz-adv-x="230" 
d="M156 358q0 -14 1 -20q3 -21 -38 -22q-12 0 -21 6t-9 8q-29 145 -28 284q1 140 5 222t0 171q0 3 9 9t22 6t38 -15l6 -181q1 -62 9 -234t7 -196t-1 -38z" />
    <glyph glyph-name="ordmasculine" unicode="&#xba;" horiz-adv-x="436" 
d="M329 645q0 129 -73 129q-124 25 -133 -170q-2 -41 -1 -88t1 -89t21 -80h10q122 0 163 177q12 53 12 101v20zM31 510q0 103 73 289q0 36 69 47q18 4 43 4q85 0 174 -130q49 -131 -4 -262q-64 -160 -250 -176q-62 0 -84 54q-10 26 -10 84q-11 46 -11 90z" />
    <glyph glyph-name="guillemotright" unicode="&#xbb;" horiz-adv-x="1282" 
d="M488 1341q18 26 34 35l612 -352q89 -59 -10 -213t-411 -400q-138 -109 -213 -149q-26 -14 -4 8q-28 0 -28 50q13 69 187 205q73 57 154 117t144 115q145 126 103 189l-560 304q-6 4 -16 23t-10 31t18 37zM112 1313q16 24 36 39l612 -354q90 -60 -7 -208
q-76 -117 -233 -253q-157 -137 -262 -212q-106 -75 -133 -88t-3 7q-22 0 -25 20t0 46t56 79t126 110t154 117t144 115q147 128 105 191l-560 302q-6 6 -16 25t-10 29t16 35z" />
    <glyph glyph-name="onequarter" unicode="&#xbc;" horiz-adv-x="1390" 
d="M156 360v-22q0 -9 1 -17q1 -9 -4 -17t-26 -8q-20 0 -29 6t-9 11q-29 168 -28 327q2 160 5 255q4 95 0 198q0 4 11 12t32 0t26 -12l6 -209q1 -71 4 -149q3 -79 5 -149t5 -126q1 -56 1 -71v-29zM72 -132v14l464 1522h98l-496 -1602q-26 0 -46 20t-20 46zM960 821
q-40 -47 -91 -98q-206 -206 -260 -316h22q186 35 292 61l37 8v345zM1007 1031q48 0 48 -21v-516q61 0 121 10t122 11q16 -39 -4 -52t-60 -17t-89 -7q-50 -2 -90 -14v-432q0 -27 -95 -38v458l-559 -92q0 54 21 73t45 13q177 166 376 446q121 171 135 174q13 4 29 4z" />
    <glyph glyph-name="onehalf" unicode="&#xbd;" horiz-adv-x="1420" 
d="M193 368q0 -9 1 -21t-10 -18q-12 -5 -24 -5t-18 6q-8 6 -8 11q-26 187 -25 346q2 159 5 258t0 206q0 4 8 11q18 16 52 -11l19 -743v-40zM1164 242l22 1q36 -1 48 -11q11 -10 11 -18q-84 -51 -297 -103t-271 -79q-20 0 -35 5q-14 5 -14 36q115 184 156 280q81 189 84 341
q-16 48 -34 76t-52 20q-63 -13 -253 -192q-37 24 -40 41l-251 -811q-26 0 -46 20t-20 46v14l464 1522h98l-239 -772q29 30 65 68q146 154 280 153q99 -42 101 -211t-125 -428q-35 -69 -68 -117z" />
    <glyph glyph-name="threequarters" unicode="&#xbe;" horiz-adv-x="1778" 
d="M320 340q0 26 28 51q50 45 154 115q105 70 159 159q28 45 28 89q0 77 -52 104t-128 27q-64 5 -187 -75q-64 -42 -100 -38t-63 27v5q0 4 2 4l280 303q46 59 47 92t-25 44q-55 23 -168 -24t-155 -112h-5q-5 -1 -15 -1t-26 16t-17 34q0 55 178 121q87 32 157 47q69 14 91 14
q134 -62 -18 -280q-28 -40 -56 -77t-48 -64q33 19 72 20t77 1q149 0 216 -96q22 -32 22 -91t-43 -127q-81 -129 -236 -243q-71 -51 -128 -91q-41 20 -41 46zM1158 955q-32 -54 -71 -113t-107 -167t-96 -197h17q141 39 228 70l29 9v398zM1195 1196q37 0 38 -23v-596
q49 1 95 13t94 12q13 -45 -6 -64t-86 -23q-66 -3 -97 -17v-498q0 -22 -56 -39q-12 -4 -19 -4v527l-295 -72l-181 -584q-26 0 -46 20t-20 46v14l146 480l-40 -10q0 64 16 85t36 15q14 20 28 39l278 913h98l-176 -570q33 64 70 142t65 133t37 58t21 3z" />
    <glyph glyph-name="questiondown" unicode="&#xbf;" horiz-adv-x="1110" 
d="M818 797q0 -97 -140 -230q-59 -54 -130 -105q-158 -113 -229 -222q-41 -61 -41 -136q0 -101 170 -97q44 1 96 1t113 24t116 49t109 49t96 24q41 0 60 -6t19 -36t-36 -52q-63 -39 -173 -70q-109 -32 -214 -53t-153 -21q-206 0 -279 80q-30 32 -31 83q0 217 345 508
q83 70 141 126q50 22 31 81t-91 83q-72 25 -170 -26l-40 72q74 49 186 49q111 0 159 -31t67 -60t19 -84zM571 1578q0 46 71 46q32 0 60 -51q5 -11 5 -31q0 -37 -43 -38t-68 22t-25 52z" />
    <glyph glyph-name="Agrave" unicode="&#xc0;" 
d="M254 450q77 0 140 27q113 48 148 109q-84 369 -180 592q-20 20 -50 0l-4 -34q-4 -67 -12 -143q-8 -75 -14 -147t-17 -181t-11 -223zM290 1486q18 0 32 -16t25 -36t21 -42t22 -36q20 -46 41 -106t45 -128t48 -137q93 -266 132 -345q22 2 62 17t86 29q114 35 164 23
q67 -16 24 -123q-14 0 -26 5l-36 15t-38 10q-16 0 -120 -34t-104 -46l138 -542l-52 -76q-45 77 -83 217q-37 141 -58 206t-53 109q-42 -20 -100 -34t-112 -35q-126 -49 -140 -151q-4 -24 -7 -64t-8 -80t-9 -86h-102q6 28 10 72t11 116t16 178t25 258t37 357t55 477
q2 20 19 24t35 4zM242 1752q0 66 50 66q111 -122 140 -175q28 -53 24 -85t-52 -44q-20 22 -46 49q-111 115 -116 175v14z" />
    <glyph glyph-name="Aacute" unicode="&#xc1;" 
d="M224 502q77 0 140 27q113 48 148 109q-84 369 -180 592q-20 20 -50 0l-4 -34q-4 -67 -12 -143q-8 -75 -14 -147t-17 -181t-11 -223zM260 1538q18 0 32 -16t25 -36t21 -42t22 -36q20 -46 41 -106t45 -128t48 -137q93 -266 132 -345q22 2 62 17t86 29q114 35 164 23
q67 -16 24 -123q-14 0 -26 5l-36 15t-38 10q-16 0 -120 -34t-104 -46l138 -542l-52 -76q-45 77 -83 217q-37 141 -58 206t-53 109q-42 -20 -100 -34t-112 -35q-126 -49 -140 -151q-4 -24 -7 -64t-8 -80t-9 -86h-102q6 28 10 72t11 116t16 178t25 258t37 357t55 477
q2 20 19 24t35 4zM378 1844v-14q-10 -61 -131 -162q-31 -26 -53 -46q-135 30 34 195q46 45 92 87q58 0 58 -60z" />
    <glyph glyph-name="Acircumflex" unicode="&#xc2;" 
d="M224 502q77 0 140 27q113 48 148 109q-84 369 -180 592q-20 20 -50 0l-4 -34q-4 -67 -12 -143q-8 -75 -14 -147t-17 -181t-11 -223zM260 1538q18 0 32 -16t25 -36t21 -42t22 -36q20 -46 41 -106t45 -128t48 -137q93 -266 132 -345q22 2 62 17t86 29q114 35 164 23
q67 -16 24 -123q-14 0 -26 5l-36 15t-38 10q-16 0 -120 -34t-104 -46l138 -542l-52 -76q-45 77 -83 217q-37 141 -58 206t-53 109q-42 -20 -100 -34t-112 -35q-126 -49 -140 -151q-4 -24 -7 -64t-8 -80t-9 -86h-102q6 28 10 72t11 116t16 178t25 258t37 357t55 477
q2 20 19 24t35 4zM250 2096q12 0 20 -2l328 -382q40 -8 47 -20t7 -26q0 -32 -17 -55t-51 -23h-8q-2 0 -2 2l-280 350q-10 18 -38 18h-10l-228 -398q-8 -16 -43 -16t-35 30l2 16l254 474q2 8 22 20t32 12z" />
    <glyph glyph-name="Atilde" unicode="&#xc3;" 
d="M224 502q77 0 140 27q113 48 148 109q-84 369 -180 592q-20 20 -50 0l-4 -34q-4 -67 -12 -143q-8 -75 -14 -147t-17 -181t-11 -223zM260 1538q18 0 32 -16t25 -36t21 -42t22 -36q20 -46 41 -106t45 -128t48 -137q93 -266 132 -345q22 2 62 17t86 29q114 35 164 23
q67 -16 24 -123q-14 0 -26 5l-36 15t-38 10q-16 0 -120 -34t-104 -46l138 -542l-52 -76q-45 77 -83 217q-37 141 -58 206t-53 109q-42 -20 -100 -34t-112 -35q-126 -49 -140 -151q-4 -24 -7 -64t-8 -80t-9 -86h-102q6 28 10 72t11 116t16 178t25 258t37 357t55 477
q2 20 19 24t35 4zM654 2020q28 8 53 9t35 -35q22 -54 -56 -136t-158 -122q-55 -15 -110 10q-55 24 -68 62q-26 14 -37 42t-24 55t-31 46t-58 18t-58 -21t-30 -48t-25 -57t-39 -49q-36 -11 -49 3q-12 14 -23 53q7 114 90 166q83 53 183 44t131 -64q48 -159 108 -150
q26 4 50 35t45 64t39 58t32 17z" />
    <glyph glyph-name="Adieresis" unicode="&#xc4;" 
d="M224 502q77 0 140 27q113 48 148 109q-84 369 -180 592q-20 20 -50 0l-4 -34q-4 -67 -12 -143q-8 -75 -14 -147t-17 -181t-11 -223zM260 1538q18 0 32 -16t25 -36t21 -42t22 -36q20 -46 41 -106t45 -128t48 -137q93 -266 132 -345q22 2 62 17t86 29q114 35 164 23
q67 -16 24 -123q-14 0 -26 5l-36 15t-38 10q-16 0 -120 -34t-104 -46l138 -542l-52 -76q-45 77 -83 217q-37 141 -58 206t-53 109q-42 -20 -100 -34t-112 -35q-126 -49 -140 -151q-4 -24 -7 -64t-8 -80t-9 -86h-102q6 28 10 72t11 116t16 178t25 258t37 357t55 477
q2 20 19 24t35 4zM470 1816q54 0 54 -52q0 -27 -28 -58t-50 -20q-26 -18 -54 10t-24 68q30 30 50 41t52 11zM204 1816q54 0 54 -52q0 -25 -27 -57t-49 -21q-28 -16 -57 13t-21 65q28 30 48 41t52 11z" />
    <glyph glyph-name="Aring" unicode="&#xc5;" 
d="M116 1617q0 -29 21 -43t45 -34q30 -2 47 -2h27q8 0 16 -4q50 0 66 24t38 56q8 67 -62 93q-30 11 -65 11t-65 -11t-49 -36t-19 -54zM224 502q77 0 140 27q113 48 148 109q-84 369 -180 592q-20 20 -50 0l-4 -34q-4 -67 -12 -143q-8 -75 -14 -147t-17 -181t-11 -223z
M387 1790q39 -20 73 -62q48 -139 -7 -201q-29 -33 -127 -61q6 -10 14 -27t20 -31q20 -46 41 -106t45 -128t48 -137q93 -266 132 -345q22 2 62 17t86 29q114 35 164 23q67 -16 24 -123q-14 0 -26 5l-36 15t-38 10q-16 0 -120 -34t-104 -46l138 -542l-52 -76q-45 77 -83 217
q-37 141 -58 206t-53 109q-42 -20 -100 -34t-112 -35q-126 -49 -140 -151q-4 -24 -7 -64t-8 -80t-9 -86h-102q6 28 10 72t11 116t17 189q31 365 108 1031q-74 0 -105 17q-79 43 -79 129q-32 77 45 140q77 64 183 64t145 -20z" />
    <glyph glyph-name="AE" unicode="&#xc6;" horiz-adv-x="1452" 
d="M224 502q77 0 140 27q113 48 148 109q-84 369 -180 592q-20 20 -50 0l-4 -34q-4 -67 -12 -143q-8 -75 -14 -147t-17 -181t-11 -223zM1426 480q0 -22 -28 -38q-62 -36 -141 -91t-225 -154t-256 -151l-144 14v162q-22 84 -44 159t-58 121q-42 -20 -100 -34t-112 -35
q-126 -49 -140 -151q-4 -24 -7 -64t-8 -80t-9 -86h-102q6 28 10 72t11 116t16 178t25 258t37 357t55 477q3 28 37 28q35 0 49 -16t25 -36t21 -42t22 -36q20 -46 41 -106t45 -128t48 -137q93 -266 132 -345h6q-9 331 -52 620l-26 78q0 23 18 42q62 67 99 5t37 -151
q238 135 446 191q78 21 150 21q0 -42 -34 -56l-562 -282v-78q2 -20 4 -66t6 -100t7 -107t5 -85q61 17 412 204q66 78 104 26q12 -42 -355 -249q-127 -72 -127 -85l-4 -434q42 -20 178 60q58 34 120 79t162 115t154 82q52 0 52 -42z" />
    <glyph glyph-name="Ccedilla" unicode="&#xc7;" horiz-adv-x="998" 
d="M310 -572q0 6 41 14t94 20t103 29t66 42t-16 57t-140 76q-90 0 -122 55t-32 151q8 78 18 118q-14 4 -26 10q-120 0 -189 128q-57 106 -57 249t40 330q168 785 458 785q93 0 141 -64q47 -64 47 -158q-36 0 -58 19t-40 41t-37 41t-51 19q-115 0 -216 -216
q-79 -170 -131 -413q-51 -243 -51 -326q0 -167 32 -237q45 -98 177 -98q133 0 295 179q68 75 118 160t72 149q8 4 34 4t47 -5t21 -37q-22 -118 -150 -262q-128 -145 -282 -236q-58 -34 -112 -50q25 -74 0 -148q92 -64 161 -98t116 -66t70 -77t23 -131q-24 -73 -160 -106
t-250 -28q-42 0 -48 24t-6 56z" />
    <glyph glyph-name="Egrave" unicode="&#xc8;" horiz-adv-x="972" 
d="M272 564v-386q44 -17 178 62q58 34 120 79t121 85t110 72t85 38q52 0 52 -40q0 -24 -28 -38q-70 -42 -161 -105t-185 -126q-229 -154 -342 -181q-26 0 -42 4t-36 24q0 162 2 318q7 529 -54 934l-26 78q0 21 26 52q26 30 51 25q43 -8 60 -71q17 -62 17 -108
q394 210 596 210q0 -39 -34 -56l-562 -282v-78q2 -22 5 -76t7 -115t7 -116t5 -75l412 230q64 77 102 24q0 -81 -243 -204q-155 -79 -199 -115q-44 -37 -44 -63zM262 1790q0 66 50 66q111 -122 140 -175q28 -53 24 -85t-52 -44q-20 22 -46 49q-111 115 -116 175v14z" />
    <glyph glyph-name="Eacute" unicode="&#xc9;" horiz-adv-x="972" 
d="M272 564v-386q44 -17 178 62q58 34 120 79t121 85t110 72t85 38q52 0 52 -40q0 -24 -28 -38q-70 -42 -161 -105t-185 -126q-229 -154 -342 -181q-26 0 -42 4t-36 24q0 162 2 318q7 529 -54 934l-26 78q0 21 26 52q26 30 51 25q43 -8 60 -71q17 -62 17 -108
q394 210 596 210q0 -39 -34 -56l-562 -282v-78q2 -22 5 -76t7 -115t7 -116t5 -75l412 230q64 77 102 24q0 -81 -243 -204q-155 -79 -199 -115q-44 -37 -44 -63zM602 1726v-14q-10 -61 -131 -162q-31 -26 -53 -46q-135 30 34 195q46 45 92 87q58 0 58 -60z" />
    <glyph glyph-name="Ecircumflex" unicode="&#xca;" horiz-adv-x="972" 
d="M272 564v-386q44 -17 178 62q58 34 120 79t121 85t110 72t85 38q52 0 52 -40q0 -24 -28 -38q-70 -42 -161 -105t-185 -126q-229 -154 -342 -181q-26 0 -42 4t-36 24q0 162 2 318q7 529 -54 934l-26 78q0 21 26 52q26 30 51 25q43 -8 60 -71q17 -62 17 -108
q394 210 596 210q0 -39 -34 -56l-562 -282v-78q2 -22 5 -76t7 -115t7 -116t5 -75l412 230q64 77 102 24q0 -81 -243 -204q-155 -79 -199 -115q-44 -37 -44 -63zM464 2150q12 0 20 -2l328 -382q40 -8 47 -20t7 -26q0 -32 -17 -55t-51 -23h-8q-2 0 -2 2l-280 350
q-10 18 -38 18h-10l-228 -398q-8 -16 -43 -16t-35 30l2 16l254 474q2 8 22 20t32 12z" />
    <glyph glyph-name="Edieresis" unicode="&#xcb;" horiz-adv-x="972" 
d="M272 564v-386q44 -17 178 62q58 34 120 79t121 85t110 72t85 38q52 0 52 -40q0 -24 -28 -38q-70 -42 -161 -105t-185 -126q-229 -154 -342 -181q-26 0 -42 4t-36 24q0 162 2 318q7 529 -54 934l-26 78q0 21 26 52q26 30 51 25q43 -8 60 -71q17 -62 17 -108
q394 210 596 210q0 -39 -34 -56l-562 -282v-78q2 -22 5 -76t7 -115t7 -116t5 -75l412 230q64 77 102 24q0 -81 -243 -204q-155 -79 -199 -115q-44 -37 -44 -63zM606 1826q54 0 54 -52q0 -27 -28 -58t-50 -20q-26 -18 -54 10t-24 68q30 30 50 41t52 11zM340 1826q54 0 54 -52
q0 -25 -27 -57t-49 -21q-28 -16 -57 13t-21 65q28 30 48 41t52 11z" />
    <glyph glyph-name="Igrave" unicode="&#xcc;" horiz-adv-x="314" 
d="M256 152v-90q-2 -40 -17 -47t-69 9q-12 4 -15 156t-5 275t-4 253q-5 299 -13 518t-29 268q0 38 69 30q17 -2 29 -2q15 -36 26 -202q12 -166 15 -288t6 -247t4 -245t2 -219t1 -169zM34 1852q0 66 50 66q111 -122 140 -175q28 -53 24 -85t-52 -44q-20 22 -46 49
q-111 115 -116 175v14z" />
    <glyph glyph-name="Iacute" unicode="&#xcd;" horiz-adv-x="314" 
d="M256 152v-90q-2 -40 -17 -47t-69 9q-12 4 -15 156t-5 275t-4 253q-5 299 -13 518t-29 268q0 38 69 30q17 -2 29 -2q15 -36 26 -202q12 -166 15 -288t6 -247t4 -245t2 -219t1 -169zM312 1852v-14q-10 -61 -131 -162q-31 -26 -53 -46q-135 30 34 195q46 45 92 87
q58 0 58 -60z" />
    <glyph glyph-name="Icircumflex" unicode="&#xce;" horiz-adv-x="314" 
d="M256 152v-90q-2 -40 -17 -47t-69 9q-12 4 -15 156t-5 275t-4 253q-5 299 -13 518t-29 268q0 38 69 30q17 -2 29 -2q15 -36 26 -202q12 -166 15 -288t6 -247t4 -245t2 -219t1 -169zM156 2098q12 0 20 -2l328 -382q40 -8 47 -20t7 -26q0 -32 -17 -55t-51 -23h-8q-2 0 -2 2
l-280 350q-10 18 -38 18h-10l-228 -398q-8 -16 -43 -16t-35 30l2 16l254 474q2 8 22 20t32 12z" />
    <glyph glyph-name="Idieresis" unicode="&#xcf;" horiz-adv-x="314" 
d="M256 152v-90q-2 -40 -17 -47t-69 9q-12 4 -15 156t-5 275t-4 253q-5 299 -13 518t-29 268q0 38 69 30q17 -2 29 -2q15 -36 26 -202q12 -166 15 -288t6 -247t4 -245t2 -219t1 -169zM338 1810q54 0 54 -52q0 -27 -28 -58t-50 -20q-26 -18 -54 10t-24 68q30 30 50 41t52 11z
M72 1810q54 0 54 -52q0 -25 -27 -57t-49 -21q-28 -16 -57 13t-21 65q28 30 48 41t52 11z" />
    <glyph glyph-name="Eth" unicode="&#xd0;" horiz-adv-x="1136" 
d="M364 -2q-42 0 -42 53q0 47 174 235q74 80 162 174q336 359 336 608q0 96 -107 160q-141 84 -431 84l-106 -8l-26 -24l-4 -180v-62q0 -162 22 -508q110 22 196 22q28 0 28 -58v-14l-2 -32l-216 -64q2 -36 2 -74v-74q0 -12 1 -26q4 -58 -40 -58q-34 0 -37 26q0 173 -51 212
q-21 16 -46 13t-45 -3l-16 -2q-80 0 -80 30q0 8 11 28t15 24q120 8 186 26l-52 724q-6 -4 -21 -11t-31 -15t-31 -17t-19 -9l-14 -2q-36 0 -36 29t13 48t34 35t45 32q92 61 92 200q40 0 50 -14t12 -33t5 -38t29 -27q259 9 458 -42q318 -82 308 -316q-64 -381 -485 -820
q-115 -120 -229 -230z" />
    <glyph glyph-name="Ntilde" unicode="&#xd1;" horiz-adv-x="1108" 
d="M1034 170q0 -34 -29 -53t-57 -19q-51 0 -68 24t-2 84q-22 26 -68 85q-153 197 -233 296q-79 99 -217 273l-68 86q-4 6 -14 16l-48 48q-10 10 -16 14q-13 -182 29 -466q17 -116 34 -231t17 -189t-6 -99t-48 -39q-40 14 -54 53t2 75l-126 1102v96q43 0 99 -44t103 -104
l590 -794q26 147 8 604t-62 496q0 82 54 82q73 0 97 -205q5 -43 5 -57l26 -946q0 -26 9 -48t26 -64t17 -76zM764 1880q28 8 53 9t35 -35q22 -54 -56 -136t-158 -122q-55 -15 -110 10q-55 24 -68 62q-26 14 -37 42t-24 55t-31 46t-58 18t-58 -21t-30 -48t-25 -57t-39 -49
q-36 -11 -49 3q-12 14 -23 53q7 114 90 166q83 53 183 44t131 -64q48 -159 108 -150q26 4 50 35t45 64t39 58t32 17z" />
    <glyph glyph-name="Ograve" unicode="&#xd2;" horiz-adv-x="784" 
d="M136 457q0 -150 28 -220q41 -103 154 -103q133 0 224 220q90 220 101 484q11 265 -71 365q-42 51 -111 41t-165 -110q-160 -469 -160 -677zM30 428q24 348 100 567t177 313t210 63t197 -183q62 -208 35 -475q-45 -442 -275 -634q-80 -67 -184 -81q-133 0 -204 159
q-56 125 -56 271zM432 1736q0 66 50 66q111 -122 140 -175q28 -53 24 -85t-52 -44q-20 22 -46 49q-111 115 -116 175v14z" />
    <glyph glyph-name="Oacute" unicode="&#xd3;" horiz-adv-x="784" 
d="M136 457q0 -150 28 -220q41 -103 154 -103q133 0 224 220q90 220 101 484q11 265 -71 365q-42 51 -111 41t-165 -110q-160 -469 -160 -677zM30 428q24 348 100 567t177 313t210 63t197 -183q62 -208 35 -475q-45 -442 -275 -634q-80 -67 -184 -81q-133 0 -204 159
q-56 125 -56 271zM494 1680v-14q-10 -61 -131 -162q-31 -26 -53 -46q-135 30 34 195q46 45 92 87q58 0 58 -60z" />
    <glyph glyph-name="Ocircumflex" unicode="&#xd4;" horiz-adv-x="784" 
d="M136 457q0 -150 28 -220q41 -103 154 -103q133 0 224 220q90 220 101 484q11 265 -71 365q-42 51 -111 41t-165 -110q-160 -469 -160 -677zM30 428q24 348 100 567t177 313t210 63t197 -183q62 -208 35 -475q-45 -442 -275 -634q-80 -67 -184 -81q-133 0 -204 159
q-56 125 -56 271zM350 1910q12 0 20 -2l328 -382q40 -8 47 -20t7 -26q0 -32 -17 -55t-51 -23h-8q-2 0 -2 2l-280 350q-10 18 -38 18h-10l-228 -398q-8 -16 -43 -16t-35 30l2 16l254 474q2 8 22 20t32 12z" />
    <glyph glyph-name="Otilde" unicode="&#xd5;" horiz-adv-x="784" 
d="M136 457q0 -150 28 -220q41 -103 154 -103q133 0 224 220q90 220 101 484q11 265 -71 365q-42 51 -111 41t-165 -110q-160 -469 -160 -677zM30 428q24 348 100 567t177 313t210 63t197 -183q62 -208 35 -475q-45 -442 -275 -634q-80 -67 -184 -81q-133 0 -204 159
q-56 125 -56 271zM776 1772q28 8 53 9t35 -35q22 -54 -56 -136t-158 -122q-55 -15 -110 10q-55 24 -68 62q-26 14 -37 42t-24 55t-31 46t-58 18t-58 -21t-30 -48t-25 -57t-39 -49q-36 -11 -49 3q-12 14 -23 53q7 114 90 166q83 53 183 44t131 -64q48 -159 108 -150
q26 4 50 35t45 64t39 58t32 17z" />
    <glyph glyph-name="Odieresis" unicode="&#xd6;" horiz-adv-x="784" 
d="M136 457q0 -150 28 -220q41 -103 154 -103q133 0 224 220q90 220 101 484q11 265 -71 365q-42 51 -111 41t-165 -110q-160 -469 -160 -677zM30 428q24 348 100 567t177 313t210 63t197 -183q62 -208 35 -475q-45 -442 -275 -634q-80 -67 -184 -81q-133 0 -204 159
q-56 125 -56 271zM660 1646q54 0 54 -52q0 -27 -28 -58t-50 -20q-26 -18 -54 10t-24 68q30 30 50 41t52 11zM394 1646q54 0 54 -52q0 -25 -27 -57t-49 -21q-28 -16 -57 13t-21 65q28 30 48 41t52 11z" />
    <glyph glyph-name="multiply" unicode="&#xd7;" horiz-adv-x="930" 
d="M166 922q0 18 20 36t52 4q12 -20 32 -55q68 -119 154 -205q8 -4 12 -5t4 -3t3 -1t11 11t29 35t57 70t96 113q59 20 76 -14q18 -34 -20 -72l-198 -238q16 -32 46 -73t58 -82q71 -103 64 -153q-16 -32 -60 -20q-46 6 -58 29t-20 58t-28 79t-82 94q-123 -112 -174 -216
q-16 -8 -47 -1t-44 15t-11 20l220 268l-192 294v12z" />
    <glyph glyph-name="Oslash" unicode="&#xd8;" horiz-adv-x="784" 
d="M318 134q133 0 224 220q90 220 100 463q10 244 -50 355l-320 -1036q22 -2 46 -2zM136 440q0 -134 28 -202q10 -32 30 -54l324 1056q-86 36 -222 -106q-160 -469 -160 -694zM112 -106v14l42 146q-40 44 -69 107q-55 119 -55 267q24 348 100 567t185 320t239 43l22 72h98
l-42 -132q42 -44 82 -110q62 -208 35 -475q-45 -442 -275 -634q-80 -67 -184 -81q-32 0 -60 8l-54 -178q-24 0 -44 20t-20 46z" />
    <glyph glyph-name="Ugrave" unicode="&#xd9;" horiz-adv-x="922" 
d="M141 124q-50 102 -57 313q-2 61 -4 144q-4 153 -11 349t-7 230q-5 50 39 53q13 1 23 1h16q48 0 48 -30v-852q0 -74 31 -122q57 -88 129 -88q76 6 131 81t95 189t66 248t46 258t35 220t33 134q64 57 93 -35q11 -35 13 -76t-4 -59q0 -134 -13 -266t-13 -243q0 -145 26 -369
t26 -290t-2 -83t-9 -31t-19 -24t-28 -9t-20 1l-76 768q-55 -202 -119 -305q-131 -209 -275 -209q-143 0 -193 102zM314 1564q0 66 50 66q111 -122 140 -175q28 -53 24 -85t-52 -44q-20 22 -46 49q-111 115 -116 175v14z" />
    <glyph glyph-name="Uacute" unicode="&#xda;" horiz-adv-x="922" 
d="M141 124q-50 102 -57 313q-2 61 -4 144q-4 153 -11 349t-7 230q-5 50 39 53q13 1 23 1h16q48 0 48 -30v-852q0 -74 31 -122q57 -88 129 -88q76 6 131 81t95 189t66 248t46 258t35 220t33 134q64 57 93 -35q11 -35 13 -76t-4 -59q0 -134 -13 -266t-13 -243q0 -145 26 -369
t26 -290t-2 -83t-9 -31t-19 -24t-28 -9t-20 1l-76 768q-55 -202 -119 -305q-131 -209 -275 -209q-143 0 -193 102zM624 1424v-14q-10 -61 -131 -162q-31 -26 -53 -46q-135 30 34 195q46 45 92 87q58 0 58 -60z" />
    <glyph glyph-name="Ucircumflex" unicode="&#xdb;" horiz-adv-x="922" 
d="M141 124q-50 102 -57 313q-2 61 -4 144q-4 153 -11 349t-7 230q-5 50 39 53q13 1 23 1h16q48 0 48 -30v-852q0 -74 31 -122q57 -88 129 -88q76 6 131 81t95 189t66 248t46 258t35 220t33 134q64 57 93 -35q11 -35 13 -76t-4 -59q0 -134 -13 -266t-13 -243q0 -145 26 -369
t26 -290t-2 -83t-9 -31t-19 -24t-28 -9t-20 1l-76 768q-55 -202 -119 -305q-131 -209 -275 -209q-143 0 -193 102zM414 1910q12 0 20 -2l328 -382q40 -8 47 -20t7 -26q0 -32 -17 -55t-51 -23h-8q-2 0 -2 2l-280 350q-10 18 -38 18h-10l-228 -398q-8 -16 -43 -16t-35 30l2 16
l254 474q2 8 22 20t32 12z" />
    <glyph glyph-name="Udieresis" unicode="&#xdc;" horiz-adv-x="922" 
d="M141 124q-50 102 -57 313q-2 61 -4 144q-4 153 -11 349t-7 230q-5 50 39 53q13 1 23 1h16q48 0 48 -30v-852q0 -74 31 -122q57 -88 129 -88q76 6 131 81t95 189t66 248t46 258t35 220t33 134q64 57 93 -35q11 -35 13 -76t-4 -59q0 -134 -13 -266t-13 -243q0 -145 26 -369
t26 -290t-2 -83t-9 -31t-19 -24t-28 -9t-20 1l-76 768q-55 -202 -119 -305q-131 -209 -275 -209q-143 0 -193 102zM622 1530q54 0 54 -52q0 -27 -28 -58t-50 -20q-26 -18 -54 10t-24 68q30 30 50 41t52 11zM356 1530q54 0 54 -52q0 -25 -27 -57t-49 -21q-28 -16 -57 13
t-21 65q28 30 48 41t52 11z" />
    <glyph glyph-name="Yacute" unicode="&#xdd;" horiz-adv-x="990" 
d="M384 50q0 72 22 141t48 139t45 139t13 145q-58 64 -128 139q-276 296 -358 501q-2 2 -2 6v8q0 40 56 40q52 -62 111 -141q245 -328 373 -423h26q8 14 28 69t49 131q156 409 203 644q2 4 22 4t39 -27t15 -55q-153 -537 -177 -609q-25 -73 -42 -115t-35 -93l-48 -136
q-60 -170 -184 -557l-24 -2q-52 0 -52 52zM688 1876v-14q-10 -61 -131 -162q-31 -26 -53 -46q-135 30 34 195q46 45 92 87q58 0 58 -60z" />
    <glyph glyph-name="Thorn" unicode="&#xde;" horiz-adv-x="816" 
d="M517 1210q-199 0 -331 -318l-8 -386q10 8 48 23t91 39q137 62 225 155q121 128 132 301q0 66 -25 107t-51 60t-81 19zM188 80q0 -24 -2 -24l-86 -16q-83 -18 6 1612q60 4 86 -1t31 -23t-4 -54q-51 -205 -15 -446q105 140 189 175q41 17 85 21t106 16q111 -18 162 -134
t15 -322q-23 -133 -240 -300q-117 -90 -335 -198q-10 0 -5 -104t6 -141t1 -61z" />
    <glyph glyph-name="germandbls" unicode="&#xdf;" horiz-adv-x="1100" 
d="M692 1342q0 40 -49 40t-124 -20t-144 -56q-169 -88 -169 -202q0 -193 50 -310q197 171 351 376q85 113 85 172zM289 22q-33 0 -33 4l-178 1204q-28 52 -28 83q0 48 10 64t32 8q34 -11 53 -40q18 -28 33 -65q261 204 460 204q98 0 143 -45q41 -41 6 -140q-31 -88 -90 -159
q-59 -70 -126 -143t-85 -101q158 104 368 104q133 0 180 -52q20 -22 20 -62t-37 -111t-96 -156q-117 -169 -267 -330t-194 -161l-52 24q18 69 145 198q55 56 118 118t119 120q131 135 153 213q27 94 -109 123q-166 0 -335 -108t-221 -270q0 -69 28 -217t28 -202
q0 -53 -6 -79t-39 -26z" />
    <glyph glyph-name="agrave" unicode="&#xe0;" horiz-adv-x="750" 
d="M512 946q-42 61 -140 -80q-126 -180 -234 -477q-28 -77 -38 -127q0 -72 22 -81t54 23q63 63 151 216t131 240q50 117 53 214q1 34 1 72zM698 138q0 -78 -5 -95t-49 -17q-21 0 -27 39q-7 39 -14 112t-21 205t-46 192q-190 -387 -317 -497q-105 -91 -165 -13
q-40 53 -52 186q0 92 54 243q97 272 212 441q114 170 218 170q86 14 127 -37t15 -171q0 -174 24 -333t35 -253t11 -172zM230 1448q0 66 50 66q111 -122 140 -175q28 -53 24 -85t-52 -44q-20 22 -46 49q-111 115 -116 175v14z" />
    <glyph glyph-name="aacute" unicode="&#xe1;" horiz-adv-x="750" 
d="M512 946q-42 61 -140 -80q-126 -180 -234 -477q-28 -77 -38 -127q0 -72 22 -81t54 23q63 63 151 216t131 240q50 117 53 214q1 34 1 72zM698 138q0 -78 -5 -95t-49 -17q-21 0 -27 39q-7 39 -14 112t-21 205t-46 192q-190 -387 -317 -497q-105 -91 -165 -13
q-40 53 -52 186q0 92 54 243q97 272 212 441q114 170 218 170q86 14 127 -37t15 -171q0 -174 24 -333t35 -253t11 -172zM540 1424v-14q-10 -61 -131 -162q-31 -26 -53 -46q-135 30 34 195q46 45 92 87q58 0 58 -60z" />
    <glyph glyph-name="acircumflex" unicode="&#xe2;" horiz-adv-x="750" 
d="M512 946q-42 61 -140 -80q-126 -180 -234 -477q-28 -77 -38 -127q0 -72 22 -81t54 23q63 63 151 216t131 240q50 117 53 214q1 34 1 72zM698 138q0 -78 -5 -95t-49 -17q-21 0 -27 39q-7 39 -14 112t-21 205t-46 192q-190 -387 -317 -497q-105 -91 -165 -13
q-40 53 -52 186q0 92 54 243q97 272 212 441q114 170 218 170q86 14 127 -37t15 -171q0 -174 24 -333t35 -253t11 -172zM334 1910q12 0 20 -2l328 -382q40 -8 47 -20t7 -26q0 -32 -17 -55t-51 -23h-8q-2 0 -2 2l-280 350q-10 18 -38 18h-10l-228 -398q-8 -16 -43 -16t-35 30
l2 16l254 474q2 8 22 20t32 12z" />
    <glyph glyph-name="atilde" unicode="&#xe3;" horiz-adv-x="750" 
d="M512 946q-42 61 -140 -80q-126 -180 -234 -477q-28 -77 -38 -127q0 -72 22 -81t54 23q63 63 151 216t131 240q50 117 53 214q1 34 1 72zM698 138q0 -78 -5 -95t-49 -17q-21 0 -27 39q-7 39 -14 112t-21 205t-46 192q-190 -387 -317 -497q-105 -91 -165 -13
q-40 53 -52 186q0 92 54 243q97 272 212 441q114 170 218 170q86 14 127 -37t15 -171q0 -174 24 -333t35 -253t11 -172zM730 1506q28 8 53 9t35 -35q22 -54 -56 -136t-158 -122q-55 -15 -110 10q-55 24 -68 62q-26 14 -37 42t-24 55t-31 46t-58 18t-58 -21t-30 -48t-25 -57
t-39 -49q-36 -11 -49 3q-12 14 -23 53q7 114 90 166q83 53 183 44t131 -64q48 -159 108 -150q26 4 50 35t45 64t39 58t32 17z" />
    <glyph glyph-name="adieresis" unicode="&#xe4;" horiz-adv-x="750" 
d="M512 946q-42 61 -140 -80q-126 -180 -234 -477q-28 -77 -38 -127q0 -72 22 -81t54 23q63 63 151 216t131 240q50 117 53 214q1 34 1 72zM698 138q0 -78 -5 -95t-49 -17q-21 0 -27 39q-7 39 -14 112t-21 205t-46 192q-190 -387 -317 -497q-105 -91 -165 -13
q-40 53 -52 186q0 92 54 243q97 272 212 441q114 170 218 170q86 14 127 -37t15 -171q0 -174 24 -333t35 -253t11 -172zM536 1530q54 0 54 -52q0 -27 -28 -58t-50 -20q-26 -18 -54 10t-24 68q30 30 50 41t52 11zM270 1530q54 0 54 -52q0 -25 -27 -57t-49 -21q-28 -16 -57 13
t-21 65q28 30 48 41t52 11z" />
    <glyph glyph-name="aring" unicode="&#xe5;" horiz-adv-x="750" 
d="M419 1298q-35 0 -65 -12q-72 -29 -68 -98q0 -22 21 -35t43 -33q102 -11 125 -4q23 8 36 26t35 52q4 64 -63 92q-29 12 -64 12zM512 946q-42 61 -140 -80q-126 -180 -234 -477q-28 -77 -38 -127q0 -72 22 -81t54 23q63 63 151 216t131 240q50 117 53 214q1 34 1 72z
M554 1370q41 -20 76 -64q48 -137 -8 -200q-10 -14 -26 -22l16 -16q42 -52 16 -172q0 -174 24 -333t35 -253t11 -172t-5 -95t-49 -17q-21 0 -27 39q-7 39 -14 112t-21 205t-46 192q-190 -387 -317 -497q-105 -91 -165 -13q-40 53 -52 186q0 92 54 243q97 272 202 427
q46 70 96 118q-100 0 -141 58q-29 41 -29 88q-32 77 43 142q75 64 180 64q106 0 147 -20z" />
    <glyph glyph-name="ae" unicode="&#xe6;" horiz-adv-x="1444" 
d="M1108 961q0 73 -130 73q-24 0 -63 -33t-71 -80q-76 -112 -76 -175q65 0 201 79q57 33 98 72t41 64zM512 946q-42 61 -140 -80q-126 -180 -234 -477q-28 -77 -38 -127q0 -72 22 -81t54 23q63 63 151 216t131 240q50 117 53 214q1 34 1 72zM698 84q0 -24 -5 -41t-49 -17
q-21 0 -27 39q-7 39 -20 178t-22 186t-9 57q-55 0 -64 18q-168 -327 -283 -427q-105 -91 -165 -13q-40 53 -52 186q0 92 54 243q97 272 212 441q114 170 218 170q86 14 127 -37t15 -171q0 -82 4 -150q8 18 25 62q57 148 114 225q86 117 231 113q81 0 161 -62q79 -62 79 -144
q27 -54 -332 -252q-126 -70 -162 -92q-28 -77 -28 -142q0 -64 -4 -110q-16 -180 124 -180q165 0 325 218q41 56 73 104t58 81t44 33q68 0 68 -38t-29 -89t-77 -106q-107 -123 -239 -214q-131 -91 -230 -91t-135 54v-32z" />
    <glyph glyph-name="ccedilla" unicode="&#xe7;" 
d="M730 458v-22q0 -177 -115 -306q-115 -130 -293 -130q8 -69 -8 -116q92 -64 161 -97t116 -66t70 -78t23 -131q-24 -73 -172 -109q-103 -25 -238 -25q-42 0 -48 25t-6 55q0 8 41 16t94 19t103 29t66 42t-16 56t-140 78q-90 0 -122 55t-32 149q8 74 18 116q-26 12 -44 32
q-96 93 -124 275q-12 79 -12 135q6 72 12 157t19 169q30 194 90 295q78 131 213 127q123 0 127 -267q1 -63 1 -103q-98 0 -126 206l-6 58l-14 2q-60 0 -119 -140t-90 -399q-49 -416 169 -467q183 0 240 150q16 42 31 87t31 89t46 82q54 14 54 -48z" />
    <glyph glyph-name="egrave" unicode="&#xe8;" horiz-adv-x="946" 
d="M469 972q-25 0 -63 -33t-71 -80q-75 -107 -75 -177q68 0 204 82t136 142q0 45 -86 62q-20 4 -45 4zM732 876q33 -53 -332 -253q-146 -79 -160 -91q-30 -60 -30 -132t-3 -118t4 -87q16 -95 125 -95q175 0 361 276q65 96 91 128t44 32q66 0 66 -38t-29 -88t-76 -106
q-98 -117 -234 -211q-136 -95 -226 -95q-89 0 -135 44t-65 110t-20 141t-3 139l-30 -6q-48 -10 -73 5t-25 34t6 25t35 30t60 81t57 122q71 177 122 247q86 118 232 114q75 0 157 -61q81 -61 81 -147zM328 1448q0 66 50 66q111 -122 140 -175q28 -53 24 -85t-52 -44
q-20 22 -46 49q-111 115 -116 175v14z" />
    <glyph glyph-name="eacute" unicode="&#xe9;" horiz-adv-x="946" 
d="M469 972q-25 0 -63 -33t-71 -80q-75 -107 -75 -177q68 0 204 82t136 142q0 45 -86 62q-20 4 -45 4zM732 876q33 -53 -332 -253q-146 -79 -160 -91q-30 -60 -30 -132t-3 -118t4 -87q16 -95 125 -95q175 0 361 276q65 96 91 128t44 32q66 0 66 -38t-29 -88t-76 -106
q-98 -117 -234 -211q-136 -95 -226 -95q-89 0 -135 44t-65 110t-20 141t-3 139l-30 -6q-48 -10 -73 5t-25 34t6 25t35 30t60 81t57 122q71 177 122 247q86 118 232 114q75 0 157 -61q81 -61 81 -147zM636 1424v-14q-10 -61 -131 -162q-31 -26 -53 -46q-135 30 34 195
q46 45 92 87q58 0 58 -60z" />
    <glyph glyph-name="ecircumflex" unicode="&#xea;" horiz-adv-x="946" 
d="M469 972q-25 0 -63 -33t-71 -80q-75 -107 -75 -177q68 0 204 82t136 142q0 45 -86 62q-20 4 -45 4zM732 876q33 -53 -332 -253q-146 -79 -160 -91q-30 -60 -30 -132t-3 -118t4 -87q16 -95 125 -95q175 0 361 276q65 96 91 128t44 32q66 0 66 -38t-29 -88t-76 -106
q-98 -117 -234 -211q-136 -95 -226 -95q-89 0 -135 44t-65 110t-20 141t-3 139l-30 -6q-48 -10 -73 5t-25 34t6 25t35 30t60 81t57 122q71 177 122 247q86 118 232 114q75 0 157 -61q81 -61 81 -147zM428 1910q12 0 20 -2l328 -382q40 -8 47 -20t7 -26q0 -32 -17 -55
t-51 -23h-8q-2 0 -2 2l-280 350q-10 18 -38 18h-10l-228 -398q-8 -16 -43 -16t-35 30l2 16l254 474q2 8 22 20t32 12z" />
    <glyph glyph-name="edieresis" unicode="&#xeb;" horiz-adv-x="946" 
d="M469 972q-25 0 -63 -33t-71 -80q-75 -107 -75 -177q68 0 204 82t136 142q0 45 -86 62q-20 4 -45 4zM732 876q33 -53 -332 -253q-146 -79 -160 -91q-30 -60 -30 -132t-3 -118t4 -87q16 -95 125 -95q175 0 361 276q65 96 91 128t44 32q66 0 66 -38t-29 -88t-76 -106
q-98 -117 -234 -211q-136 -95 -226 -95q-89 0 -135 44t-65 110t-20 141t-3 139l-30 -6q-48 -10 -73 5t-25 34t6 25t35 30t60 81t57 122q71 177 122 247q86 118 232 114q75 0 157 -61q81 -61 81 -147zM634 1530q54 0 54 -52q0 -27 -28 -58t-50 -20q-26 -18 -54 10t-24 68
q30 30 50 41t52 11zM368 1530q54 0 54 -52q0 -25 -27 -57t-49 -21q-28 -16 -57 13t-21 65q28 30 48 41t52 11z" />
    <glyph glyph-name="igrave" unicode="&#xec;" horiz-adv-x="272" 
d="M-16 1604q0 64 50 64q256 -268 112 -304q-20 22 -46 50t-69 80t-47 96v14zM122 1164q30 0 47 -9t17 -39l-4 -822q0 -140 4 -254q3 -56 -50 -56q-59 0 -52 56q0 130 -5 274t-13 391t18 455q8 4 38 4z" />
    <glyph glyph-name="iacute" unicode="&#xed;" horiz-adv-x="272" 
d="M300 1664v-14q-11 -59 -131 -160q-31 -26 -53 -46q-54 10 -59 41t26 77t159 162q58 0 58 -60zM122 1164q30 0 47 -9t17 -39l-4 -822q0 -140 4 -254q3 -56 -50 -56q-59 0 -52 56q0 130 -5 274t-13 391t18 455q8 4 38 4z" />
    <glyph glyph-name="icircumflex" unicode="&#xee;" horiz-adv-x="272" 
d="M476 1426q-18 -24 -52 -24h-6q-4 0 -4 2l-280 350q-10 18 -36 18h-12l-226 -398q-16 -16 -48 -16t-32 30l2 16l254 474q4 8 24 20t40 12l12 -2l328 -382q38 -8 46 -20t8 -34t-18 -46zM122 1164q30 0 47 -9t17 -39l-4 -822q0 -140 4 -254q3 -56 -50 -56q-59 0 -52 56
q0 130 -5 274t-13 391t18 455q8 4 38 4z" />
    <glyph glyph-name="idieresis" unicode="&#xef;" horiz-adv-x="272" 
d="M296 1530q54 0 54 -52q0 -25 -27 -57t-49 -21q-28 -16 -57 13t-21 65q28 30 48 41t52 11zM32 1530q54 0 54 -52q0 -27 -28 -57t-50 -21q-24 -16 -54 11t-22 67q28 30 48 41t52 11zM122 1164q30 0 47 -9t17 -39l-4 -822q0 -140 4 -254q3 -56 -50 -56q-59 0 -52 56
q0 130 -5 274t-13 391t18 455q8 4 38 4z" />
    <glyph glyph-name="eth" unicode="&#xf0;" horiz-adv-x="986" 
d="M230 321q0 -142 116 -207q6 -6 21 -6l63 2q16 0 28 -4q147 84 131 185q-13 84 -120 149q-161 97 -217 -17q-22 -45 -22 -102zM480 1244l160 -334q84 5 108 10q42 10 174 26q82 -46 24 -73q-24 -11 -59 -16t-53 -11l-146 -32q155 -330 44 -573q-50 -109 -144 -177
t-208 -84q-156 56 -213 216t-9 294q22 62 64 102t99 40q105 0 213 -88t126 -158q71 15 -28 282q-26 70 -48 134l-302 -36l-12 32q0 4 -3 16q-14 55 29 60q118 21 234 30l-154 282l-6 20q-6 43 34 46q8 2 39 2q32 0 37 -10z" />
    <glyph glyph-name="ntilde" unicode="&#xf1;" horiz-adv-x="990" 
d="M112 1178h16q40 0 114 -782q42 136 66 264t62 233t107 185t199 118q72 -12 116 -87t70 -185t36 -239t12 -247t2 -211t4 -133q-13 -34 -46 -45t-54 19q0 46 -17 296t-25 402t-12 188q-77 135 -165 58q-103 -90 -215 -472q-51 -172 -77 -309q-27 -137 -31 -179
q-13 -31 -50 -42q-70 -20 -88 16q-22 270 -39 541t-37 563q0 48 52 48zM822 1670q28 8 53 9t35 -35q22 -54 -56 -136t-158 -122q-55 -15 -110 10q-55 24 -68 62q-26 14 -37 42t-24 55t-31 46t-58 18t-58 -21t-30 -48t-25 -57t-39 -49q-36 -11 -49 3q-12 14 -23 53
q7 114 90 166q83 53 183 44t131 -64q48 -159 108 -150q26 4 50 35t45 64t39 58t32 17z" />
    <glyph glyph-name="ograve" unicode="&#xf2;" horiz-adv-x="546" 
d="M410 720q0 256 -92 256q-85 27 -123 -68q-39 -95 -42 -224q-3 -128 -2 -220t1 -175t26 -161h12q153 0 205 353q15 102 15 199v40zM36 453q0 87 14 202t78 371q0 63 86 94q22 8 54 8q105 0 218 -258q36 -157 27 -295q-35 -532 -345 -575q-79 0 -105 107q-13 53 -13 167
q-14 92 -14 179zM128 1448q0 66 50 66q111 -122 140 -175q28 -53 24 -85t-52 -44q-20 22 -46 49q-111 115 -116 175v14z" />
    <glyph glyph-name="oacute" unicode="&#xf3;" horiz-adv-x="546" 
d="M410 720q0 256 -92 256q-85 27 -123 -68q-39 -95 -42 -224q-3 -128 -2 -220t1 -175t26 -161h12q153 0 205 353q15 102 15 199v40zM36 453q0 87 14 202t78 371q0 63 86 94q22 8 54 8q105 0 218 -258q36 -157 27 -295q-35 -532 -345 -575q-79 0 -105 107q-13 53 -13 167
q-14 92 -14 179zM436 1424v-14q-10 -61 -131 -162q-31 -26 -53 -46q-135 30 34 195q46 45 92 87q58 0 58 -60z" />
    <glyph glyph-name="ocircumflex" unicode="&#xf4;" horiz-adv-x="546" 
d="M410 720q0 256 -92 256q-85 27 -123 -68q-39 -95 -42 -224q-3 -128 -2 -220t1 -175t26 -161h12q153 0 205 353q15 102 15 199v40zM36 453q0 87 14 202t78 371q0 63 86 94q22 8 54 8q105 0 218 -258q36 -157 27 -295q-35 -532 -345 -575q-79 0 -105 107q-13 53 -13 167
q-14 92 -14 179zM232 1910q12 0 20 -2l328 -382q40 -8 47 -20t7 -26q0 -32 -17 -55t-51 -23h-8q-2 0 -2 2l-280 350q-10 18 -38 18h-10l-228 -398q-8 -16 -43 -16t-35 30l2 16l254 474q2 8 22 20t32 12z" />
    <glyph glyph-name="otilde" unicode="&#xf5;" horiz-adv-x="546" 
d="M410 720q0 256 -92 256q-85 27 -123 -68q-39 -95 -42 -224q-3 -128 -2 -220t1 -175t26 -161h12q153 0 205 353q15 102 15 199v40zM36 453q0 87 14 202t78 371q0 63 86 94q22 8 54 8q105 0 218 -258q36 -157 27 -295q-35 -532 -345 -575q-79 0 -105 107q-13 53 -13 167
q-14 92 -14 179zM620 1522q28 8 53 9t35 -35q22 -54 -56 -136t-158 -122q-55 -15 -110 10q-55 24 -68 62q-26 14 -37 42t-24 55t-31 46t-58 18t-58 -21t-30 -48t-25 -57t-39 -49q-36 -11 -49 3q-12 14 -23 53q7 114 90 166q83 53 183 44t131 -64q48 -159 108 -150
q26 4 50 35t45 64t39 58t32 17z" />
    <glyph glyph-name="odieresis" unicode="&#xf6;" horiz-adv-x="546" 
d="M410 720q0 256 -92 256q-85 27 -123 -68q-39 -95 -42 -224q-3 -128 -2 -220t1 -175t26 -161h12q153 0 205 353q15 102 15 199v40zM36 453q0 87 14 202t78 371q0 63 86 94q22 8 54 8q105 0 218 -258q36 -157 27 -295q-35 -532 -345 -575q-79 0 -105 107q-13 53 -13 167
q-14 92 -14 179zM438 1530q54 0 54 -52q0 -27 -28 -58t-50 -20q-26 -18 -54 10t-24 68q30 30 50 41t52 11zM172 1530q54 0 54 -52q0 -25 -27 -57t-49 -21q-28 -16 -57 13t-21 65q28 30 48 41t52 11z" />
    <glyph glyph-name="divide" unicode="&#xf7;" horiz-adv-x="708" 
d="M272 808q0 26 7 44t48 18t47 -17t6 -41t-5 -47t-35 -23q-68 0 -68 66zM300 299q0 27 10 44t44 17q52 0 52 -54q0 -26 -18 -52t-48 -26t-35 22t-5 49zM48 562q0 6 11 26t17 26q136 9 280 31q145 21 268 21q30 0 30 -58v-14l-4 -32l-448 -26q-8 -4 -58 -4l-16 -2
q-80 0 -80 32z" />
    <glyph glyph-name="oslash" unicode="&#xf8;" horiz-adv-x="546" 
d="M190 128q153 0 205 353q15 102 15 199v40q0 58 -4 70l-234 -648q2 -8 6 -14h12zM368 946q-20 30 -50 30q-85 27 -123 -68q-39 -95 -42 -224q-3 -128 -2 -206t1 -142zM64 98q-14 14 -14 176q-14 92 -14 179t14 202t78 371q0 63 86 94q22 8 42 8q70 0 144 -94l56 156h96
l-94 -262q16 -34 28 -58q36 -157 27 -295q-35 -532 -345 -575q-26 0 -44 8l-64 -178q-26 0 -46 17t-20 39v14z" />
    <glyph glyph-name="ugrave" unicode="&#xf9;" horiz-adv-x="794" 
d="M128 994q28 0 42 -28q0 -94 5 -175q11 -173 16 -296q6 -123 10 -159q3 -36 6 -68q15 -155 57 -160q53 0 112 79t105 178t52 141q19 157 19 474l110 -6q2 -162 -2 -293t-2 -246q4 -249 76 -447q-6 -6 -24 -17t-26 -11q-50 0 -67 33t-22 78t-8 90t-27 71q-19 -56 -86 -122
q-131 -128 -194 -128q-62 0 -103 60t-63 154t-30 209t-10 225t-2 200t-6 136q8 20 21 24t41 4zM252 1448q0 66 50 66q111 -122 140 -175q28 -53 24 -85t-52 -44q-20 22 -46 49q-111 115 -116 175v14z" />
    <glyph glyph-name="uacute" unicode="&#xfa;" horiz-adv-x="794" 
d="M128 994q28 0 42 -28q0 -94 5 -175q11 -173 16 -296q6 -123 10 -159q3 -36 6 -68q15 -155 57 -160q53 0 112 79t105 178t52 141q19 157 19 474l110 -6q2 -162 -2 -293t-2 -246q4 -249 76 -447q-6 -6 -24 -17t-26 -11q-50 0 -67 33t-22 78t-8 90t-27 71q-19 -56 -86 -122
q-131 -128 -194 -128q-62 0 -103 60t-63 154t-30 209t-10 225t-2 200t-6 136q8 20 21 24t41 4zM560 1424v-14q-10 -61 -131 -162q-31 -26 -53 -46q-135 30 34 195q46 45 92 87q58 0 58 -60z" />
    <glyph glyph-name="ucircumflex" unicode="&#xfb;" horiz-adv-x="794" 
d="M128 994q28 0 42 -28q0 -94 5 -175q11 -173 16 -296q6 -123 10 -159q3 -36 6 -68q15 -155 57 -160q53 0 112 79t105 178t52 141q19 157 19 474l110 -6q2 -162 -2 -293t-2 -246q4 -249 76 -447q-6 -6 -24 -17t-26 -11q-50 0 -67 33t-22 78t-8 90t-27 71q-19 -56 -86 -122
q-131 -128 -194 -128q-62 0 -103 60t-63 154t-30 209t-10 225t-2 200t-6 136q8 20 21 24t41 4zM356 1910q12 0 20 -2l328 -382q40 -8 47 -20t7 -26q0 -32 -17 -55t-51 -23h-8q-2 0 -2 2l-280 350q-10 18 -38 18h-10l-228 -398q-8 -16 -43 -16t-35 30l2 16l254 474q2 8 22 20
t32 12z" />
    <glyph glyph-name="udieresis" unicode="&#xfc;" horiz-adv-x="794" 
d="M128 994q28 0 42 -28q0 -94 5 -175q11 -173 16 -296q6 -123 10 -159q3 -36 6 -68q15 -155 57 -160q53 0 112 79t105 178t52 141q19 157 19 474l110 -6q2 -162 -2 -293t-2 -246q4 -249 76 -447q-6 -6 -24 -17t-26 -11q-50 0 -67 33t-22 78t-8 90t-27 71q-19 -56 -86 -122
q-131 -128 -194 -128q-62 0 -103 60t-63 154t-30 209t-10 225t-2 200t-6 136q8 20 21 24t41 4zM558 1530q54 0 54 -52q0 -27 -28 -58t-50 -20q-26 -18 -54 10t-24 68q30 30 50 41t52 11zM292 1530q54 0 54 -52q0 -25 -27 -57t-49 -21q-28 -16 -57 13t-21 65q28 30 48 41
t52 11z" />
    <glyph glyph-name="yacute" unicode="&#xfd;" horiz-adv-x="744" 
d="M44 868q0 66 41 66q23 0 43 -9t24 -17q44 -70 91 -156q195 -356 323 -472l48 784l24 2q50 0 62 -32q5 -184 -5 -500q-11 -316 -16 -396t-12 -181t-16 -213t-17 -212t-14 -181t-10 -117h-104l60 774l-516 826q-6 6 -6 34zM536 1424v-14q-10 -61 -131 -162q-31 -26 -53 -46
q-135 30 34 195q46 45 92 87q58 0 58 -60z" />
    <glyph glyph-name="thorn" unicode="&#xfe;" horiz-adv-x="900" 
d="M247 975q-55 -65 -66 -117t-8 -92t9 -85t12 -88t8 -73q76 58 163 111t165 114q181 142 222 325q10 44 -6 58t-71 26t-140 -7t-159 -63t-129 -109zM98 392q0 150 -6 241q-30 455 -30 649q4 26 13 42t51 7t50 -46t3 -84t-13 -93t2 -74q62 46 121 89q208 151 405 109
q321 -75 15 -431q-157 -183 -415 -370q-62 -45 -100 -65q-4 -36 -6 -98t-14 -216l-4 -90q-8 -8 -38 -8h-42q-6 0 -12 11t-6 17q26 260 26 410z" />
    <glyph glyph-name="ydieresis" unicode="&#xff;" horiz-adv-x="744" 
d="M44 868q0 66 41 66q23 0 43 -9t24 -17q44 -70 91 -156q195 -356 323 -472l48 784l24 2q50 0 62 -32q5 -184 -5 -500q-11 -316 -16 -396t-12 -181t-16 -213t-17 -212t-14 -181t-10 -117h-104l60 774l-516 826q-6 6 -6 34zM534 1530q54 0 54 -52q0 -27 -28 -58t-50 -20
q-26 -18 -54 10t-24 68q30 30 50 41t52 11zM268 1530q54 0 54 -52q0 -25 -27 -57t-49 -21q-28 -16 -57 13t-21 65q28 30 48 41t52 11z" />
    <glyph glyph-name="Amacron" unicode="&#x100;" 
d="M224 502q77 0 140 27q113 48 148 109q-84 369 -180 592q-20 20 -50 0l-4 -34q-4 -67 -12 -143q-8 -75 -14 -147t-17 -181t-11 -223zM260 1538q18 0 32 -16t25 -36t21 -42t22 -36q20 -46 41 -106t45 -128t48 -137q93 -266 132 -345q22 2 62 17t86 29q114 35 164 23
q67 -16 24 -123q-14 0 -26 5l-36 15t-38 10q-16 0 -120 -34t-104 -46l138 -542l-52 -76q-45 77 -83 217q-37 141 -58 206t-53 109q-42 -20 -100 -34t-112 -35q-126 -49 -140 -151q-4 -24 -7 -64t-8 -80t-9 -86h-102q6 28 10 72t11 116t16 178t25 258t37 357t55 477
q2 20 19 24t35 4zM0 1664q0 8 11 28t17 24q121 8 345 39t339 31q28 0 28 -56v-16l-2 -32l-584 -42q-8 -4 -58 -4l-16 -2q-80 0 -80 30z" />
    <glyph glyph-name="amacron" unicode="&#x101;" horiz-adv-x="750" 
d="M512 946q-42 61 -140 -80q-126 -180 -234 -477q-28 -77 -38 -127q0 -72 22 -81t54 23q63 63 151 216t131 240q50 117 53 214q1 34 1 72zM698 138q0 -78 -5 -95t-49 -17q-21 0 -27 39q-7 39 -14 112t-21 205t-46 192q-190 -387 -317 -497q-105 -91 -165 -13
q-40 53 -52 186q0 92 54 243q97 272 212 441q114 170 218 170q86 14 127 -37t15 -171q0 -174 24 -333t35 -253t11 -172zM8 1400q0 8 11 28t17 24q121 8 345 39t339 31q28 0 28 -56v-16l-2 -32l-584 -42q-8 -4 -58 -4l-16 -2q-80 0 -80 30z" />
    <glyph glyph-name="Abreve" unicode="&#x102;" 
d="M224 502q77 0 140 27q113 48 148 109q-84 369 -180 592q-20 20 -50 0l-4 -34q-4 -67 -12 -143q-8 -75 -14 -147t-17 -181t-11 -223zM260 1538q18 0 32 -16t25 -36t21 -42t22 -36q20 -46 41 -106t45 -128t48 -137q93 -266 132 -345q22 2 62 17t86 29q114 35 164 23
q67 -16 24 -123q-14 0 -26 5l-36 15t-38 10q-16 0 -120 -34t-104 -46l138 -542l-52 -76q-45 77 -83 217q-37 141 -58 206t-53 109q-42 -20 -100 -34t-112 -35q-126 -49 -140 -151q-4 -24 -7 -64t-8 -80t-9 -86h-102q6 28 10 72t11 116t16 178t25 258t37 357t55 477
q2 20 19 24t35 4zM214 1890q8 -4 22 -20t33 -32q117 -99 249 108q40 30 62 27t27 -24q11 -47 -17 -103q-162 -209 -287 -155q-59 25 -113 89l-36 46q-44 38 -46 69t17 45t47 5t42 -55z" />
    <glyph glyph-name="abreve" unicode="&#x103;" horiz-adv-x="750" 
d="M512 946q-42 61 -140 -80q-126 -180 -234 -477q-28 -77 -38 -127q0 -72 22 -81t54 23q63 63 151 216t131 240q50 117 53 214q1 34 1 72zM698 138q0 -78 -5 -95t-49 -17q-21 0 -27 39q-7 39 -14 112t-21 205t-46 192q-190 -387 -317 -497q-105 -91 -165 -13
q-40 53 -52 186q0 92 54 243q97 272 212 441q114 170 218 170q86 14 127 -37t15 -171q0 -174 24 -333t35 -253t11 -172zM256 1432q8 -4 22 -20t33 -32q117 -99 249 108q40 30 62 27t27 -24q11 -47 -17 -103q-162 -209 -287 -155q-59 25 -113 89l-36 46q-44 38 -46 69t17 45
t47 5t42 -55z" />
    <glyph glyph-name="Aogonek" unicode="&#x104;" 
d="M224 502q77 0 140 27q113 48 148 109q-84 369 -180 592q-20 20 -50 0l-4 -34q-4 -67 -12 -143q-8 -75 -14 -147t-17 -181t-11 -223zM260 1538q18 0 32 -16t25 -36t21 -42t22 -36q20 -46 41 -106t45 -128t48 -137q93 -266 132 -345q22 2 62 17t86 29q114 35 164 23
q67 -16 24 -123q-14 0 -26 5l-36 15t-38 10q-16 0 -120 -34t-104 -46l138 -542l-22 -30q4 -8 4 -27t-18 -41t-44 -22q-85 -110 -87 -202q-1 -44 21 -75t68 -37q52 0 129 35q78 35 127 35q40 -30 28 -66t-58 -65t-117 -45t-151 -2q-74 22 -114 88t-38 148t47 164t139 134
q-20 43 -53 167q-33 123 -54 188t-53 109q-42 -20 -100 -34t-112 -35q-126 -49 -140 -151q-4 -24 -7 -64t-8 -80t-9 -86h-102q6 28 10 72t11 116t16 178t25 258t37 357t55 477q2 20 19 24t35 4z" />
    <glyph glyph-name="aogonek" unicode="&#x105;" horiz-adv-x="750" 
d="M512 946q-42 61 -140 -80q-126 -180 -234 -477q-28 -77 -38 -127q0 -72 22 -81t54 23q63 63 151 216t131 240q50 117 53 214q1 34 1 72zM698 138q0 -78 -6 -96q-2 -12 -20 -16h-2q-18 -22 -44 -22q-85 -105 -87 -203t89 -113q47 0 125 35t131 35q40 -28 28 -64t-58 -66
t-117 -45t-151 -1q-74 22 -114 88t-38 148t45 161t131 131q-4 30 -9 85t-19 187t-46 192q-190 -387 -317 -497q-105 -91 -165 -13q-40 53 -52 186q0 92 54 243q97 272 212 441q114 170 218 170q86 14 127 -37t15 -171q0 -174 24 -333t35 -253t11 -172z" />
    <glyph glyph-name="Cacute" unicode="&#x106;" horiz-adv-x="998" 
d="M90 707q168 785 458 785q93 0 141 -64q47 -64 47 -158q-36 0 -58 19t-40 41t-37 41t-51 19q-115 0 -216 -216q-79 -170 -131 -413q-51 -243 -51 -326q0 -167 32 -237q45 -98 177 -98q133 0 295 179q68 75 118 160t72 149q8 4 34 4t47 -5t21 -37q-22 -118 -150 -262
q-128 -145 -279 -234q-152 -89 -223 -54q-120 0 -189 128q-57 106 -57 249t40 330zM632 1750v-14q-10 -61 -131 -162q-31 -26 -53 -46q-135 30 34 195q46 45 92 87q58 0 58 -60z" />
    <glyph glyph-name="cacute" unicode="&#x107;" 
d="M730 458v-22q0 -177 -115 -306q-115 -130 -295 -130q-80 0 -133 51t-82 123q-53 132 -53 286q6 72 12 157t19 169q30 194 90 295q78 131 213 127q123 0 127 -267q1 -63 1 -103q-98 0 -126 206l-6 58l-14 2q-60 0 -119 -140t-90 -399q-49 -416 169 -467q183 0 240 150
q16 42 31 87t31 89t46 82q54 14 54 -48zM510 1588v-14q-10 -61 -131 -162q-31 -26 -53 -46q-135 30 34 195q46 45 92 87q58 0 58 -60z" />
    <glyph glyph-name="Ccircumflex" unicode="&#x108;" horiz-adv-x="998" 
d="M90 707q168 785 458 785q93 0 141 -64q47 -64 47 -158q-36 0 -58 19t-40 41t-37 41t-51 19q-115 0 -216 -216q-79 -170 -131 -413q-51 -243 -51 -326q0 -167 32 -237q45 -98 177 -98q133 0 295 179q68 75 118 160t72 149q8 4 34 4t47 -5t21 -37q-22 -118 -150 -262
q-128 -145 -279 -234q-152 -89 -223 -54q-120 0 -189 128q-57 106 -57 249t40 330zM446 2050q12 0 20 -2l328 -382q40 -8 47 -20t7 -26q0 -32 -17 -55t-51 -23h-8q-2 0 -2 2l-280 350q-10 18 -38 18h-10l-228 -398q-8 -16 -43 -16t-35 30l2 16l254 474q2 8 22 20t32 12z" />
    <glyph glyph-name="ccircumflex" unicode="&#x109;" 
d="M730 458v-22q0 -177 -115 -306q-115 -130 -295 -130q-80 0 -133 51t-82 123q-53 132 -53 286q6 72 12 157t19 169q30 194 90 295q78 131 213 127q123 0 127 -267q1 -63 1 -103q-98 0 -126 206l-6 58l-14 2q-60 0 -119 -140t-90 -399q-49 -416 169 -467q183 0 240 150
q16 42 31 87t31 89t46 82q54 14 54 -48zM358 1910q12 0 20 -2l328 -382q40 -8 47 -20t7 -26q0 -32 -17 -55t-51 -23h-8q-2 0 -2 2l-280 350q-10 18 -38 18h-10l-228 -398q-8 -16 -43 -16t-35 30l2 16l254 474q2 8 22 20t32 12z" />
    <glyph glyph-name="Cdotaccent" unicode="&#x10a;" horiz-adv-x="998" 
d="M90 707q168 785 458 785q93 0 141 -64q47 -64 47 -158q-36 0 -58 19t-40 41t-37 41t-51 19q-115 0 -216 -216q-79 -170 -131 -413q-51 -243 -51 -326q0 -167 32 -237q45 -98 177 -98q133 0 295 179q68 75 118 160t72 149q8 4 34 4t47 -5t21 -37q-22 -118 -150 -262
q-128 -145 -279 -234q-152 -89 -223 -54q-120 0 -189 128q-57 106 -57 249t40 330zM504 1794q54 0 54 -52q0 -24 -27 -55t-51 -21q-21 -18 -53 9q-31 27 -23 67q28 32 48 42t52 10z" />
    <glyph glyph-name="cdotaccent" unicode="&#x10b;" 
d="M726 458v-22q0 -177 -115 -306q-115 -130 -295 -130q-80 0 -133 51t-82 123q-53 132 -53 286q6 72 12 157t19 169q30 194 90 295q78 131 213 127q123 0 127 -267q1 -63 1 -103q-98 0 -126 206l-6 58l-14 2q-60 0 -119 -140t-90 -399q-49 -416 169 -467q183 0 240 150
q16 42 31 87t31 89t46 82q54 14 54 -48zM368 1357q0 -22 -21 -52t-39 -20q-14 -14 -39 9t-19 63q20 30 36 39t41 10q41 0 41 -49z" />
    <glyph glyph-name="Ccaron" unicode="&#x10c;" horiz-adv-x="998" 
d="M90 707q168 785 458 785q93 0 141 -64q47 -64 47 -158q-36 0 -58 19t-40 41t-37 41t-51 19q-115 0 -216 -216q-79 -170 -131 -413q-51 -243 -51 -326q0 -167 32 -237q45 -98 177 -98q133 0 295 179q68 75 118 160t72 149q8 4 34 4t47 -5t21 -37q-22 -118 -150 -262
q-128 -145 -279 -234q-152 -89 -223 -54q-120 0 -189 128q-57 106 -57 249t40 330zM166 1892v6q0 20 50 20q14 0 26 -12l218 -272h8q28 0 38 10l266 244h12q36 0 50 -18t14 -32t-7 -21t-45 -15l-314 -262l-10 -2q-20 0 -39 8t-23 14l-242 328q-2 2 -2 4z" />
    <glyph glyph-name="ccaron" unicode="&#x10d;" 
d="M730 458v-22q0 -177 -115 -306q-115 -130 -295 -130q-80 0 -133 51t-82 123q-53 132 -53 286q6 72 12 157t19 169q30 194 90 295q78 131 213 127q123 0 127 -267q1 -63 1 -103q-98 0 -126 206l-6 58l-14 2q-60 0 -119 -140t-90 -399q-49 -416 169 -467q183 0 240 150
q16 42 31 87t31 89t46 82q54 14 54 -48zM64 1614v6q0 20 50 20q14 0 26 -12l218 -272h8q28 0 38 10l266 244h12q36 0 50 -18t14 -32t-7 -21t-45 -15l-314 -262l-10 -2q-20 0 -39 8t-23 14l-242 328q-2 2 -2 4z" />
    <glyph glyph-name="Dcaron" unicode="&#x10e;" horiz-adv-x="1136" 
d="M364 -2q-42 0 -42 53q0 47 174 235q74 80 162 174q336 359 336 608q0 96 -107 160q-141 84 -431 84l-106 -8l-26 -24l-4 -180v-62q0 -202 15 -401t15 -306t1 -121q4 -58 -39 -58q-34 0 -38 26l-78 1052q-6 -4 -21 -11t-31 -15t-31 -17t-19 -9l-14 -2q-36 0 -36 29t13 48
t34 35t45 32q92 61 92 200q40 0 50 -14t12 -33t5 -38t29 -27q259 9 458 -42q318 -82 308 -316q-64 -381 -485 -820q-115 -120 -229 -230zM260 1886v6q0 20 50 20q14 0 26 -12l218 -272h8q28 0 38 10l266 244h12q36 0 50 -18t14 -32t-7 -21t-45 -15l-314 -262l-10 -2
q-20 0 -39 8t-23 14l-242 328q-2 2 -2 4z" />
    <glyph glyph-name="Emacron" unicode="&#x112;" horiz-adv-x="972" 
d="M272 564v-386q44 -17 178 62q58 34 120 79t121 85t110 72t85 38q52 0 52 -40q0 -24 -28 -38q-70 -42 -161 -105t-185 -126q-229 -154 -342 -181q-26 0 -42 4t-36 24q0 162 2 318q7 529 -54 934l-26 78q0 21 26 52q26 30 51 25q43 -8 60 -71q17 -62 17 -108
q394 210 596 210q0 -39 -34 -56l-562 -282v-78q2 -22 5 -76t7 -115t7 -116t5 -75l412 230q64 77 102 24q0 -81 -243 -204q-155 -79 -199 -115q-44 -37 -44 -63zM60 1632q0 8 11 28t17 24q121 8 345 39t339 31q28 0 28 -56v-16l-2 -32l-584 -42q-8 -4 -58 -4l-16 -2
q-80 0 -80 30z" />
    <glyph glyph-name="emacron" unicode="&#x113;" horiz-adv-x="946" 
d="M469 972q-25 0 -63 -33t-71 -80q-75 -107 -75 -177q68 0 204 82t136 142q0 45 -86 62q-20 4 -45 4zM732 876q33 -53 -332 -253q-146 -79 -160 -91q-30 -60 -30 -132t-3 -118t4 -87q16 -95 125 -95q175 0 361 276q65 96 91 128t44 32q66 0 66 -38t-29 -88t-76 -106
q-98 -117 -234 -211q-136 -95 -226 -95q-89 0 -135 44t-65 110t-20 141t-3 139l-30 -6q-48 -10 -73 5t-25 34t6 25t35 30t60 81t57 122q71 177 122 247q86 118 232 114q75 0 157 -61q81 -61 81 -147zM102 1400q0 8 11 28t17 24q121 8 345 39t339 31q28 0 28 -56v-16l-2 -32
l-584 -42q-8 -4 -58 -4l-16 -2q-80 0 -80 30z" />
    <glyph glyph-name="Ebreve" unicode="&#x114;" horiz-adv-x="972" 
d="M272 564v-386q44 -17 178 62q58 34 120 79t121 85t110 72t85 38q52 0 52 -40q0 -24 -28 -38q-70 -42 -161 -105t-185 -126q-229 -154 -342 -181q-26 0 -42 4t-36 24q0 162 2 318q7 529 -54 934l-26 78q0 21 26 52q26 30 51 25q43 -8 60 -71q17 -62 17 -108
q394 210 596 210q0 -39 -34 -56l-562 -282v-78q2 -22 5 -76t7 -115t7 -116t5 -75l412 230q64 77 102 24q0 -81 -243 -204q-155 -79 -199 -115q-44 -37 -44 -63zM352 1798q8 -4 22 -20t33 -32q117 -99 249 108q40 30 62 27t27 -24q11 -47 -17 -103q-162 -209 -287 -155
q-59 25 -113 89l-36 46q-44 38 -46 69t17 45t47 5t42 -55z" />
    <glyph glyph-name="ebreve" unicode="&#x115;" horiz-adv-x="946" 
d="M469 972q-25 0 -63 -33t-71 -80q-75 -107 -75 -177q68 0 204 82t136 142q0 45 -86 62q-20 4 -45 4zM732 876q33 -53 -332 -253q-146 -79 -160 -91q-30 -60 -30 -132t-3 -118t4 -87q16 -95 125 -95q175 0 361 276q65 96 91 128t44 32q66 0 66 -38t-29 -88t-76 -106
q-98 -117 -234 -211q-136 -95 -226 -95q-89 0 -135 44t-65 110t-20 141t-3 139l-30 -6q-48 -10 -73 5t-25 34t6 25t35 30t60 81t57 122q71 177 122 247q86 118 232 114q75 0 157 -61q81 -61 81 -147zM354 1432q8 -4 22 -20t33 -32q117 -99 249 108q40 30 62 27t27 -24
q11 -47 -17 -103q-162 -209 -287 -155q-59 25 -113 89l-36 46q-44 38 -46 69t17 45t47 5t42 -55z" />
    <glyph glyph-name="Edotaccent" unicode="&#x116;" horiz-adv-x="972" 
d="M272 564v-386q44 -17 178 62q58 34 120 79t121 85t110 72t85 38q52 0 52 -40q0 -24 -28 -38q-70 -42 -161 -105t-185 -126q-229 -154 -342 -181q-26 0 -42 4t-36 24q0 162 2 318q7 529 -54 934l-26 78q0 21 26 52q26 30 51 25q43 -8 60 -71q17 -62 17 -108
q394 210 596 210q0 -39 -34 -56l-562 -282v-78q2 -22 5 -76t7 -115t7 -116t5 -75l412 230q64 77 102 24q0 -81 -243 -204q-155 -79 -199 -115q-44 -37 -44 -63zM428 1638q54 0 54 -52q0 -24 -27 -55t-51 -21q-21 -18 -53 9q-31 27 -23 67q28 32 48 42t52 10z" />
    <glyph glyph-name="edotaccent" unicode="&#x117;" horiz-adv-x="946" 
d="M469 972q-25 0 -63 -33t-71 -80q-75 -107 -75 -177q68 0 204 82t136 142q0 45 -86 62q-20 4 -45 4zM732 876q33 -53 -332 -253q-146 -79 -160 -91q-30 -60 -30 -132t-3 -118t4 -87q16 -95 125 -95q175 0 361 276q65 96 91 128t44 32q66 0 66 -38t-29 -88t-76 -106
q-98 -117 -234 -211q-136 -95 -226 -95q-89 0 -135 44t-65 110t-20 141t-3 139l-30 -6q-48 -10 -73 5t-25 34t6 25t35 30t60 81t57 122q71 177 122 247q86 118 232 114q75 0 157 -61q81 -61 81 -147zM502 1250q54 0 54 -52q0 -24 -27 -55t-51 -21q-21 -18 -53 9
q-31 27 -23 67q28 32 48 42t52 10z" />
    <glyph glyph-name="Eogonek" unicode="&#x118;" horiz-adv-x="972" 
d="M272 564v-386q44 -17 178 62q40 22 84 52q26 22 66 49t140 96t146 77q52 0 52 -40q0 -24 -28 -38q-80 -48 -240 -160q-20 -46 -58 -46q-85 -105 -87 -204t89 -110q52 0 129 35q78 35 127 35q38 -30 27 -66t-57 -65t-117 -45t-151 0q-76 20 -115 86t-37 148q0 36 10 74
q-26 -14 -84 -46t-124 -48q-26 0 -42 4t-36 24q0 162 2 318q7 529 -54 934l-26 78q0 21 26 52q26 30 51 25q43 -8 60 -71q17 -62 17 -108q394 210 596 210q0 -39 -34 -56l-562 -282v-78q2 -22 5 -76t7 -115t7 -116t5 -75l412 230q64 77 102 24q0 -81 -243 -204
q-155 -79 -199 -115q-44 -37 -44 -63z" />
    <glyph glyph-name="eogonek" unicode="&#x119;" horiz-adv-x="946" 
d="M469 972q-25 0 -63 -33t-71 -80q-75 -107 -75 -177q68 0 204 82t136 142q0 45 -86 62q-20 4 -45 4zM732 876q33 -53 -332 -253q-146 -79 -160 -91q-30 -60 -30 -132t-3 -118t4 -87q16 -95 125 -95q175 0 361 276q65 96 91 128t44 32q66 0 66 -38q0 -69 -105 -194
t-277 -240q-4 -16 -19 -34t-39 -18q-87 -108 -89 -202q-1 -44 21 -75t68 -37q42 0 101 24t90 35t65 11q40 -30 28 -66t-58 -65t-117 -45t-149 0q-76 20 -116 86t-38 148t48 164l2 8q-197 11 -201 295q-1 75 -3 139l-30 -6q-48 -10 -73 5t-25 34t6 25t35 30t60 81t57 122
q71 177 122 247q86 118 232 114q75 0 157 -61q81 -61 81 -147z" />
    <glyph glyph-name="Ecaron" unicode="&#x11a;" horiz-adv-x="972" 
d="M272 564v-386q44 -17 178 62q58 34 120 79t121 85t110 72t85 38q52 0 52 -40q0 -24 -28 -38q-70 -42 -161 -105t-185 -126q-229 -154 -342 -181q-26 0 -42 4t-36 24q0 162 2 318q7 529 -54 934l-26 78q0 21 26 52q26 30 51 25q43 -8 60 -71q17 -62 17 -108
q394 210 596 210q0 -39 -34 -56l-562 -282v-78q2 -22 5 -76t7 -115t7 -116t5 -75l412 230q64 77 102 24q0 -81 -243 -204q-155 -79 -199 -115q-44 -37 -44 -63zM112 1854v6q0 20 50 20q14 0 26 -12l218 -272h8q28 0 38 10l266 244h12q36 0 50 -18t14 -32t-7 -21t-45 -15
l-314 -262l-10 -2q-20 0 -39 8t-23 14l-242 328q-2 2 -2 4z" />
    <glyph glyph-name="ecaron" unicode="&#x11b;" horiz-adv-x="946" 
d="M469 972q-25 0 -63 -33t-71 -80q-75 -107 -75 -177q68 0 204 82t136 142q0 45 -86 62q-20 4 -45 4zM732 876q33 -53 -332 -253q-146 -79 -160 -91q-30 -60 -30 -132t-3 -118t4 -87q16 -95 125 -95q175 0 361 276q65 96 91 128t44 32q66 0 66 -38t-29 -88t-76 -106
q-98 -117 -234 -211q-136 -95 -226 -95q-89 0 -135 44t-65 110t-20 141t-3 139l-30 -6q-48 -10 -73 5t-25 34t6 25t35 30t60 81t57 122q71 177 122 247q86 118 232 114q75 0 157 -61q81 -61 81 -147zM132 1614v6q0 20 50 20q14 0 26 -12l218 -272h8q28 0 38 10l266 244h12
q36 0 50 -18t14 -32t-7 -21t-45 -15l-314 -262l-10 -2q-20 0 -39 8t-23 14l-242 328q-2 2 -2 4z" />
    <glyph glyph-name="Gcircumflex" unicode="&#x11c;" horiz-adv-x="1212" 
d="M898 50q0 74 6 174t8 134q-58 -50 -121 -109q-240 -225 -428 -225t-284 113q-64 76 -18 280q51 228 194 478q69 121 151 220q181 219 358 219q98 0 98 -66q0 -13 -103 -46q-103 -34 -157 -55t-72 -41q-166 -212 -235 -350q-129 -258 -151 -468q0 -141 160 -151
q46 -3 92 -3q152 15 301 162t237 350h-312q0 78 314 136q97 18 172 18h22q62 0 38 -52q-9 -17 -78 -52q-138 -276 -48 -894l-78 -52q-66 66 -66 280zM558 1910q12 0 20 -2l328 -382q40 -8 47 -20t7 -26q0 -32 -17 -55t-51 -23h-8q-2 0 -2 2l-280 350q-10 18 -38 18h-10
l-228 -398q-8 -16 -43 -16t-35 30l2 16l254 474q2 8 22 20t32 12z" />
    <glyph glyph-name="gcircumflex" unicode="&#x11d;" horiz-adv-x="896" 
d="M134 316q67 -208 296 270q44 92 87 189t81 181q0 22 -10 41t-55 9t-98 -52t-98 -103q-85 -115 -144 -275q-59 -159 -59 -260zM190 -782q176 10 277 92t151 212t60 297t2 345t-23 357t-13 333q-159 -466 -303 -641q-118 -143 -211 -90q-75 43 -100 179q8 189 126 427
t268 340q78 53 162 56t162 -65q4 -4 15 -137t20 -236t17 -208t14 -201t13 -188t-10 -220t-53 -249q-80 -270 -217 -401q-157 -151 -343 -56q-73 0 -14 54zM402 1910q12 0 20 -2l328 -382q40 -8 47 -20t7 -26q0 -32 -17 -55t-51 -23h-8q-2 0 -2 2l-280 350q-10 18 -38 18h-10
l-228 -398q-8 -16 -43 -16t-35 30l2 16l254 474q2 8 22 20t32 12z" />
    <glyph glyph-name="Gbreve" unicode="&#x11e;" horiz-adv-x="1212" 
d="M898 50q0 74 6 174t8 134q-58 -50 -121 -109q-240 -225 -428 -225t-284 113q-64 76 -18 280q51 228 194 478q69 121 151 220q181 219 358 219q98 0 98 -66q0 -13 -103 -46q-103 -34 -157 -55t-72 -41q-166 -212 -235 -350q-129 -258 -151 -468q0 -141 160 -151
q46 -3 92 -3q152 15 301 162t237 350h-312q0 78 314 136q97 18 172 18h22q62 0 38 -52q-9 -17 -78 -52q-138 -276 -48 -894l-78 -52q-66 66 -66 280zM520 1594q8 -4 22 -20t33 -32q117 -99 249 108q40 30 62 27t27 -24q11 -47 -17 -103q-162 -209 -287 -155q-59 25 -113 89
l-36 46q-44 38 -46 69t17 45t47 5t42 -55z" />
    <glyph glyph-name="gbreve" unicode="&#x11f;" horiz-adv-x="896" 
d="M134 316q67 -208 296 270q44 92 87 189t81 181q0 22 -10 41t-55 9t-98 -52t-98 -103q-85 -115 -144 -275q-59 -159 -59 -260zM190 -782q176 10 277 92t151 212t60 297t2 345t-23 357t-13 333q-159 -466 -303 -641q-118 -143 -211 -90q-75 43 -100 179q8 189 126 427
t268 340q78 53 162 56t162 -65q4 -4 15 -137t20 -236t17 -208t14 -201t13 -188t-10 -220t-53 -249q-80 -270 -217 -401q-157 -151 -343 -56q-73 0 -14 54zM328 1564q8 -4 22 -20t33 -32q117 -99 249 108q40 30 62 27t27 -24q11 -47 -17 -103q-162 -209 -287 -155
q-59 25 -113 89l-36 46q-44 38 -46 69t17 45t47 5t42 -55z" />
    <glyph glyph-name="Gdotaccent" unicode="&#x120;" horiz-adv-x="1212" 
d="M936 74q0 74 6 174t8 134q-58 -50 -121 -109q-240 -225 -428 -225t-284 113q-64 76 -18 280q51 228 194 478q69 121 151 220q181 219 358 219q98 0 98 -66q0 -13 -103 -46q-103 -34 -157 -55t-72 -41q-166 -212 -235 -350q-129 -258 -151 -468q0 -141 160 -151
q46 -3 92 -3q152 15 301 162t237 350h-312q0 78 314 136q97 18 172 18h22q62 0 38 -52q-9 -17 -78 -52q-138 -276 -48 -894l-78 -52q-66 66 -66 280zM656 1654q54 0 54 -52q0 -24 -27 -55t-51 -21q-21 -18 -53 9q-31 27 -23 67q28 32 48 42t52 10z" />
    <glyph glyph-name="gdotaccent" unicode="&#x121;" horiz-adv-x="896" 
d="M134 316q67 -208 296 270q44 92 87 189t81 181q0 22 -10 41t-55 9t-98 -52t-98 -103q-85 -115 -144 -275q-59 -159 -59 -260zM190 -782q176 10 277 92t151 212t60 297t2 345t-23 357t-13 333q-159 -466 -303 -641q-118 -143 -211 -90q-75 43 -100 179q8 189 126 427
t268 340q78 53 162 56t162 -65q4 -4 15 -137t20 -236t17 -208t14 -201t13 -188t-10 -220t-53 -249q-80 -270 -217 -401q-157 -151 -343 -56q-73 0 -14 54zM578 1366q54 0 54 -52q0 -24 -27 -55t-51 -21q-21 -18 -53 9q-31 27 -23 67q28 32 48 42t52 10z" />
    <glyph glyph-name="Gcommaaccent" unicode="&#x122;" horiz-adv-x="1212" 
d="M898 50q0 74 6 174t8 134q-58 -50 -121 -109q-240 -225 -428 -225t-284 113q-64 76 -18 280q51 228 194 478q69 121 151 220q181 219 358 219q98 0 98 -66q0 -13 -103 -46q-103 -34 -157 -55t-72 -41q-166 -212 -235 -350q-129 -258 -151 -468q0 -141 160 -151
q46 -3 92 -3q152 15 301 162t237 350h-312q0 78 314 136q97 18 172 18h22q62 0 38 -52q-9 -17 -78 -52q-138 -276 -48 -894l-78 -52q-66 66 -66 280zM538 -482q0 86 4 110q-4 2 -7 13t-10 29t-7 34q0 58 28 80t84 22q40 -62 40 -138t-62 -308l-78 -24q8 96 8 182z" />
    <glyph glyph-name="Hcircumflex" unicode="&#x124;" horiz-adv-x="870" 
d="M186 287q0 -51 10 -106t14 -111q0 -28 -18 -52t-38 -24q-48 0 -48 28l-46 1282q0 12 9 32t15 22q21 0 48 -12q26 -12 30 -16q8 -80 10 -184t7 -291t33 -291q86 36 162 68t132 74q122 91 118 256q0 137 -19 212q-19 74 -35 130q-4 36 12 46t40 10t38 -12t23 -32t11 -43
t5 -49t9 -90t13 -145t16 -171l17 -170q8 -80 13 -144t10 -118t15 -128t10 -152v-32q0 -40 -14 -54t-38 -20q-36 26 -42 58t-9 62t-5 75t-7 100t-10 116t-11 130l-14 151q-22 -16 -77 -47t-170 -98t-151 -94t-52 -71t-16 -95zM360 2098q12 0 20 -2l328 -382q40 -8 47 -20
t7 -26q0 -32 -17 -55t-51 -23h-8q-2 0 -2 2l-280 350q-10 18 -38 18h-10l-228 -398q-8 -16 -43 -16t-35 30l2 16l254 474q2 8 22 20t32 12z" />
    <glyph glyph-name="hcircumflex" unicode="&#x125;" horiz-adv-x="956" 
d="M68 78v1406q0 29 46 24t56 -24l26 -1126q22 36 41 101t45 140q66 190 148 285q116 134 304 116q68 0 110 -43t44 -113l20 -798q0 -56 -55 -63q-23 -3 -59 11l-24 880q-74 28 -142 -22t-130 -141t-118 -207t-104 -220t-87 -178t-71 -82q-24 0 -37 9t-13 45zM586 1910
q12 0 20 -2l328 -382q40 -8 47 -20t7 -26q0 -32 -17 -55t-51 -23h-8q-2 0 -2 2l-280 350q-10 18 -38 18h-10l-228 -398q-8 -16 -43 -16t-35 30l2 16l254 474q2 8 22 20t32 12z" />
    <glyph glyph-name="Hbar" unicode="&#x126;" horiz-adv-x="870" 
d="M178 892q12 -245 34 -328q86 36 162 68q243 102 248 294l-438 -32q-2 -2 -6 -2zM802 106v-32q0 -40 -14 -54t-38 -20q-36 26 -42 58t-9 62t-5 75t-7 100t-10 116t-11 130l-14 151q-22 -16 -77 -47t-170 -98t-151 -94t-52 -71t-16 -95t10 -106t14 -111q0 -28 -18 -52
t-38 -24q-48 0 -48 28l-32 868q-44 6 -44 30q0 6 11 26t17 26h12l-10 332q0 12 9 32t15 22q21 0 48 -12q26 -12 30 -16q8 -80 9 -173t5 -177l58 8q88 10 174 23t170 23q24 0 44 2v14q-5 88 -52 254q-4 36 12 46t40 10t38 -12t23 -32t11 -43t7 -65t15 -166h26q17 0 25 -32
q3 -12 3 -26v-14l-4 -32l-40 -4q4 -56 12 -131t16 -155t13 -144t10 -118t15 -128t10 -152z" />
    <glyph glyph-name="hbar" unicode="&#x127;" horiz-adv-x="956" 
d="M-46 962q-80 0 -80 30q0 13 26 52q86 6 168 14v426q0 29 46 24t56 -24l10 -412l72 12q215 30 332 30q30 0 30 -58v-14l-4 -32l-428 -32l14 -620q22 36 41 101t45 140q66 190 148 285q116 134 304 116q68 0 110 -43t44 -113l20 -798q0 -56 -55 -63q-23 -3 -59 11l-24 880
q-74 28 -142 -22t-130 -141t-118 -207t-104 -220t-87 -178t-71 -82q-24 0 -37 9t-13 45v890l-42 -2q-4 -4 -56 -4h-16z" />
    <glyph glyph-name="Itilde" unicode="&#x128;" horiz-adv-x="314" 
d="M256 152v-90q-2 -40 -17 -47t-69 9q-12 4 -15 156t-5 275t-4 253q-5 299 -13 518t-29 268q0 38 69 30q17 -2 29 -2q15 -36 26 -202q12 -166 15 -288t6 -247t4 -245t2 -219t1 -169zM466 1974q28 8 53 9t35 -35q22 -54 -56 -136t-158 -122q-55 -15 -110 10q-55 24 -68 62
q-26 14 -37 42t-24 55t-31 46t-58 18t-58 -21t-30 -48t-25 -57t-39 -49q-36 -11 -49 3q-12 14 -23 53q7 114 90 166q83 53 183 44t131 -64q48 -159 108 -150q26 4 50 35t45 64t39 58t32 17z" />
    <glyph glyph-name="itilde" unicode="&#x129;" horiz-adv-x="272" 
d="M434 1570q28 8 53 9t35 -35q18 -54 -57 -135t-157 -123q-53 -14 -111 9t-67 63q-26 14 -38 42t-24 55t-30 46t-58 18t-58 -21t-30 -48t-25 -57t-39 -49q-38 -11 -49 1q-11 13 -15 27l-8 28q4 115 91 167t184 43q98 -9 129 -64q48 -159 108 -150q26 4 50 35t45 64t39 57
t32 18zM122 1164q30 0 47 -9t17 -39l-4 -822q0 -140 4 -254q3 -56 -50 -56q-59 0 -52 56q0 130 -5 274t-13 391t18 455q8 4 38 4z" />
    <glyph glyph-name="imacron" unicode="&#x12b;" horiz-adv-x="272" 
d="M-234 1400q0 8 11 28t15 24q125 8 346 39t338 31q19 0 27 -32q3 -12 3 -24v-16l-4 -32l-584 -42q-4 -4 -56 -4l-16 -2q-80 0 -80 30zM122 1164q30 0 47 -9t17 -39l-4 -822q0 -140 4 -254q3 -56 -50 -56q-59 0 -52 56q0 130 -5 274t-13 391t18 455q8 4 38 4z" />
    <glyph glyph-name="Ibreve" unicode="&#x12c;" horiz-adv-x="314" 
d="M256 152v-90q-2 -40 -17 -47t-69 9q-12 4 -15 156t-5 275t-4 253q-5 299 -13 518t-29 268q0 38 69 30q17 -2 29 -2q15 -36 26 -202q12 -166 15 -288t6 -247t4 -245t2 -219t1 -169zM34 1906q8 -4 22 -20t33 -32q117 -99 249 108q40 30 62 27t27 -24q11 -47 -17 -103
q-162 -209 -287 -155q-59 25 -113 89l-36 46q-44 38 -46 69t17 45t47 5t42 -55z" />
    <glyph glyph-name="ibreve" unicode="&#x12d;" horiz-adv-x="272" 
d="M18 1534q8 -6 21 -21t33 -31q121 -97 248 108q76 50 89 5q14 -45 -17 -107q-223 -290 -400 -64l-36 44q-42 38 -44 70t17 45t47 4t42 -53zM122 1164q30 0 47 -9t17 -39l-4 -822q0 -140 4 -254q3 -56 -50 -56q-59 0 -52 56q0 130 -5 274t-13 391t18 455q8 4 38 4z" />
    <glyph glyph-name="Iogonek" unicode="&#x12e;" horiz-adv-x="314" 
d="M256 152v-18q18 -8 18 -38t-20 -50q-4 -26 -15 -32t-37 0q-75 -97 -77 -192t89 -110q44 0 127 35t129 35q40 -28 28 -64t-58 -66t-117 -45t-151 -1q-74 22 -114 87t-38 147t40 153t98 115q-4 54 -5 139t-3 208t-4 253q-5 299 -13 518t-29 268q0 38 69 30q17 -2 29 -2
q15 -36 26 -202q12 -166 15 -288t6 -247t4 -245t2 -219t1 -169z" />
    <glyph glyph-name="iogonek" unicode="&#x12f;" horiz-adv-x="272" 
d="M40 1474q0 38 46 38t56 -26t10 -60q-25 -46 -69 -35q-43 12 -43 83zM200 29q0 -27 -18 -49t-44 -22q-85 -110 -87 -202q-1 -44 21 -75t68 -37q44 0 127 35t129 35q40 -30 28 -66t-58 -65t-117 -45t-151 0q-74 20 -114 86t-38 148t41 153t97 115q0 130 -5 274t-13 391
t18 455q8 4 38 4t47 -9t17 -39l-4 -822q0 -124 2 -232q16 -6 16 -33z" />
    <glyph glyph-name="Idotaccent" unicode="&#x130;" horiz-adv-x="314" 
d="M234 160v-90q-2 -40 -17 -47t-69 9q-12 4 -15 156t-5 275t-4 253q-5 299 -13 518t-29 268q0 38 69 30q17 -2 29 -2q15 -36 26 -202q12 -166 15 -288t6 -247t4 -245t2 -219t1 -169zM184 1816q54 0 54 -52q0 -24 -27 -55t-51 -21q-21 -18 -53 9q-31 27 -23 67q28 32 48 42
t52 10z" />
    <glyph glyph-name="dotlessi" unicode="&#x131;" horiz-adv-x="272" 
d="M122 1164q30 0 47 -9t17 -39l-4 -822q0 -140 4 -254q3 -56 -50 -56q-59 0 -52 56q0 130 -5 274t-13 391t18 455q8 4 38 4z" />
    <glyph glyph-name="Jcircumflex" unicode="&#x134;" horiz-adv-x="760" 
d="M26 282q0 6 10 16t16 10q75 -167 125 -230q106 -134 235 -134q64 0 112 34t66 100q18 242 -38 649l-44 322t-23 248t-2 102t3 29q10 34 36 34t42 -28q50 -292 90 -594t40 -598q0 -182 -54 -265q-70 -107 -226 -107q-157 0 -273 129q-115 128 -115 283zM458 2010
q12 0 20 -2l328 -382q40 -8 47 -20t7 -26q0 -32 -17 -55t-51 -23h-8q-2 0 -2 2l-280 350q-10 18 -38 18h-10l-228 -398q-8 -16 -43 -16t-35 30l2 16l254 474q2 8 22 20t32 12z" />
    <glyph glyph-name="jcircumflex" unicode="&#x135;" horiz-adv-x="230" 
d="M454 1426q-18 -24 -50 -24h-8q-4 0 -4 2l-278 350q-12 18 -38 18h-12l-226 -398q-16 -16 -48 -16t-32 30l2 16l254 474q4 8 24 20t35 11t17 -1l328 -382q40 -8 47 -20t7 -34t-18 -46zM-352 -431q0 41 15 44t39 -15q40 -30 117 -107t115 -79t65 21t47 61q68 130 64 369
q-2 109 -15 259t-31 417t-4 485q11 28 40 28q28 0 41 -4t21 -24q-11 -235 10 -504q22 -268 33 -418t11 -243t-5 -137t-15 -97q-23 -124 -72 -220q-48 -97 -119 -97t-211 89q-58 37 -102 84t-44 88z" />
    <glyph glyph-name="Kcommaaccent" unicode="&#x136;" horiz-adv-x="1074" 
d="M158 1352q20 -32 20 -48l78 -690q12 12 51 77t92 152t114 181t119 163t104 98t72 -11q-132 -211 -230 -347q-157 -219 -199 -296q-42 -76 -73 -209q0 -8 5 -13t28 -12q89 -27 729 -27q0 -30 -15 -59t-55 -29h-716q30 -105 30 -220q0 -36 -13 -37t-40 0t-29 1
q-14 48 -32 144t-20 114t-8 84t-14 152t-17 197t-29 323l-8 86q0 16 -8 48t-11 52t-5 28l-26 76q4 22 23 38t41 16t42 -32zM468 -482q0 86 4 110q-4 2 -7 13t-10 29t-7 34q0 58 28 80t84 22q40 -62 40 -138t-62 -308l-78 -24q8 96 8 182z" />
    <glyph glyph-name="kcommaaccent" unicode="&#x137;" horiz-adv-x="878" 
d="M812 162q0 -8 1 -30t-3 -46q-10 -62 -46 -62h-8q-4 0 -6 2l-572 230q-4 -215 -49 -299q-19 -35 -40 -33t-37 32l58 1580q79 75 104 -22q30 -117 0 -507t-14 -523h6q4 0 6 2q104 104 186 220t148 219t117 179t95 104q30 0 51 -10t21 -46l-2 -26q-112 -228 -211 -364
t-180 -222t-175 -156l-2 -14q0 -53 231 -134q119 -42 205 -58t116 -16zM370 -482q0 86 4 110q-4 2 -7 13t-10 29t-7 34q0 58 28 80t84 22q40 -62 40 -138t-62 -308l-78 -24q8 96 8 182z" />
    <glyph glyph-name="Lacute" unicode="&#x139;" horiz-adv-x="1100" 
d="M1030 460q50 0 54 -36q0 -27 -26 -66q-118 -22 -231 -80t-224 -120t-224 -110t-231 -48q-50 0 -50 78q-11 705 -22 857q-10 153 -12 197t-4 63t-2 45q0 44 70 44q34 0 53 -13t19 -67l38 -1076q17 0 77 21q61 21 81 30t68 31t108 50t127 59t128 58t108 50t71 33h24z
M714 1424v-14q-10 -61 -131 -162q-31 -26 -53 -46q-135 30 34 195q46 45 92 87q58 0 58 -60z" />
    <glyph glyph-name="lacute" unicode="&#x13a;" horiz-adv-x="282" 
d="M44 1716q39 26 66 26t36 -26q58 -568 74 -1394q4 -206 4 -237t-2 -33q-50 -25 -89 -1t-39 51q38 247 17 818t-67 796zM262 2192v-14q-10 -61 -131 -162q-31 -26 -53 -46q-135 30 34 195q46 45 92 87q58 0 58 -60z" />
    <glyph glyph-name="Lcommaaccent" unicode="&#x13b;" horiz-adv-x="1100" 
d="M1030 460q50 0 54 -36q0 -27 -26 -66q-118 -22 -231 -80t-224 -120t-224 -110t-231 -48q-50 0 -50 78q-11 705 -22 857q-10 153 -12 197t-4 63t-2 45q0 44 70 44q34 0 53 -13t19 -67l38 -1076q17 0 77 21q61 21 81 30t68 31t108 50t127 59t128 58t108 50t71 33h24z
M482 -482q0 86 4 110q-4 2 -7 13t-10 29t-7 34q0 58 28 80t84 22q40 -62 40 -138t-62 -308l-78 -24q8 96 8 182z" />
    <glyph glyph-name="lcommaaccent" unicode="&#x13c;" horiz-adv-x="282" 
d="M44 1716q39 26 66 26t36 -26q58 -568 74 -1394q4 -206 4 -237t-2 -33q-50 -25 -89 -1t-39 51q38 247 17 818t-67 796zM76 -482q0 86 4 110q-4 2 -7 13t-10 29t-7 34q0 58 28 80t84 22q40 -62 40 -138t-62 -308l-78 -24q8 96 8 182z" />
    <glyph glyph-name="Lcaron" unicode="&#x13d;" horiz-adv-x="1100" 
d="M1030 460q50 0 54 -36q0 -27 -26 -66q-118 -22 -231 -80t-224 -120t-224 -110t-231 -48q-50 0 -50 78q-11 705 -22 857q-10 153 -12 197t-4 63t-2 45q0 44 70 44q34 0 53 -13t19 -67l38 -1076q17 0 77 21q61 21 81 30t68 31t108 50t127 59t128 58t108 50t71 33h24z
M112 1854v6q0 20 50 20q14 0 26 -12l218 -272h8q28 0 38 10l266 244h12q36 0 50 -18t14 -32t-7 -21t-45 -15l-314 -262l-10 -2q-20 0 -39 8t-23 14l-242 328q-2 2 -2 4z" />
    <glyph glyph-name="Ldot" unicode="&#x13f;" horiz-adv-x="1100" 
d="M1030 460q50 0 54 -36q0 -27 -26 -66q-118 -22 -231 -80t-224 -120t-224 -110t-231 -48q-50 0 -50 78q-11 705 -22 857q-10 153 -12 197t-4 63t-2 45q0 44 70 44q34 0 53 -13t19 -67l38 -1076q17 0 77 21q61 21 81 30t68 31t108 50t127 59t128 58t108 50t71 33h24z
M578 584q54 0 54 -54q0 -24 -27 -55t-51 -21q-21 -18 -53 9t-23 67q28 32 48 43t52 11z" />
    <glyph glyph-name="ldot" unicode="&#x140;" horiz-adv-x="548" 
d="M44 1716q39 26 66 26t36 -26q58 -568 74 -1394q4 -206 4 -237t-2 -33q-50 -25 -89 -1t-39 51q38 247 17 818t-67 796zM422 584q54 0 54 -54q0 -24 -27 -55t-51 -21q-21 -18 -53 9t-23 67q28 32 48 43t52 11z" />
    <glyph glyph-name="Lslash" unicode="&#x141;" horiz-adv-x="1100" 
d="M-72 440q0 15 26 54q68 2 134 22q-8 373 -15 473q-7 99 -9 143t-4 63t-2 45q0 44 70 44q34 0 53 -13t19 -67l22 -640q156 67 250 100q94 34 174 34q28 0 28 -58v-14l-2 -32l-448 -136l14 -330q17 0 77 21q61 21 81 30t68 31t108 50t127 59t128 58t108 50t71 33h24
q50 0 54 -36q0 -27 -26 -66q-118 -22 -231 -80t-224 -120t-224 -110t-231 -48q-50 0 -50 78q-4 190 -6 340q-36 -6 -68 -6l-16 -2q-80 0 -80 30z" />
    <glyph glyph-name="lslash" unicode="&#x142;" horiz-adv-x="282" 
d="M-230 408q0 8 11 28t15 24q88 6 168 35t152 59v72q0 496 -45 904q-13 118 -27 186q39 26 66 26t36 -26q40 -392 50 -674t16 -450q173 74 276 74q28 0 28 -58v-14l-4 -32l-296 -90q8 -227 8 -322q0 -96 -2 -98q-50 -25 -89 -1t-39 51q22 145 22 338l-194 -56q-8 -4 -58 -4
l-14 -2q-80 0 -80 30z" />
    <glyph glyph-name="Nacute" unicode="&#x143;" horiz-adv-x="1108" 
d="M1034 170q0 -34 -29 -53t-57 -19q-51 0 -68 24t-2 84q-22 26 -68 85q-153 197 -233 296q-79 99 -217 273l-68 86q-4 6 -14 16l-48 48q-10 10 -16 14q-13 -182 29 -466q17 -116 34 -231t17 -189t-6 -99t-48 -39q-40 14 -54 53t2 75l-126 1102v96q43 0 99 -44t103 -104
l590 -794q26 147 8 604t-62 496q0 82 54 82q73 0 97 -205q5 -43 5 -57l26 -946q0 -26 9 -48t26 -64t17 -76zM594 1672v-14q-10 -61 -131 -162q-31 -26 -53 -46q-135 30 34 195q46 45 92 87q58 0 58 -60z" />
    <glyph glyph-name="nacute" unicode="&#x144;" horiz-adv-x="990" 
d="M112 1178h16q40 0 114 -782q42 136 66 264t62 233t107 185t199 118q72 -12 116 -87t70 -185t36 -239t12 -247t2 -211t4 -133q-13 -34 -46 -45t-54 19q0 46 -17 296t-25 402t-12 188q-77 135 -165 58q-103 -90 -215 -472q-51 -172 -77 -309q-27 -137 -31 -179
q-13 -31 -50 -42q-70 -20 -88 16q-22 270 -39 541t-37 563q0 48 52 48zM620 1478v-14q-10 -61 -131 -162q-31 -26 -53 -46q-135 30 34 195q46 45 92 87q58 0 58 -60z" />
    <glyph glyph-name="Ncommaaccent" unicode="&#x145;" horiz-adv-x="1108" 
d="M1034 170q0 -34 -29 -53t-57 -19q-51 0 -68 24t-2 84q-22 26 -68 85q-153 197 -233 296q-79 99 -217 273l-68 86q-4 6 -14 16l-48 48q-10 10 -16 14q-13 -182 29 -466q17 -116 34 -231t17 -189t-6 -99t-48 -39q-40 14 -54 53t2 75l-126 1102v96q43 0 99 -44t103 -104
l590 -794q26 147 8 604t-62 496q0 82 54 82q73 0 97 -205q5 -43 5 -57l26 -946q0 -26 9 -48t26 -64t17 -76zM484 -482q0 86 4 110q-4 2 -7 13t-10 29t-7 34q0 58 28 80t84 22q40 -62 40 -138t-62 -308l-78 -24q8 96 8 182z" />
    <glyph glyph-name="ncommaaccent" unicode="&#x146;" horiz-adv-x="990" 
d="M112 1178h16q40 0 114 -782q42 136 66 264t62 233t107 185t199 118q72 -12 116 -87t70 -185t36 -239t12 -247t2 -211t4 -133q-13 -34 -46 -45t-54 19q0 46 -17 296t-25 402t-12 188q-77 135 -165 58q-103 -90 -215 -472q-51 -172 -77 -309q-27 -137 -31 -179
q-13 -31 -50 -42q-70 -20 -88 16q-22 270 -39 541t-37 563q0 48 52 48zM426 -482q0 86 4 110q-4 2 -7 13t-10 29t-7 34q0 58 28 80t84 22q40 -62 40 -138t-62 -308l-78 -24q8 96 8 182z" />
    <glyph glyph-name="Ncaron" unicode="&#x147;" horiz-adv-x="1108" 
d="M1034 170q0 -34 -29 -53t-57 -19q-51 0 -68 24t-2 84q-22 26 -68 85q-153 197 -233 296q-79 99 -217 273l-68 86q-4 6 -14 16l-48 48q-10 10 -16 14q-13 -182 29 -466q17 -116 34 -231t17 -189t-6 -99t-48 -39q-40 14 -54 53t2 75l-126 1102v96q43 0 99 -44t103 -104
l590 -794q26 147 8 604t-62 496q0 82 54 82q73 0 97 -205q5 -43 5 -57l26 -946q0 -26 9 -48t26 -64t17 -76zM190 1808v6q0 20 50 20q14 0 26 -12l218 -272h8q28 0 38 10l266 244h12q36 0 50 -18t14 -32t-7 -21t-45 -15l-314 -262l-10 -2q-20 0 -39 8t-23 14l-242 328
q-2 2 -2 4z" />
    <glyph glyph-name="ncaron" unicode="&#x148;" horiz-adv-x="990" 
d="M112 1178h16q40 0 114 -782q42 136 66 264t62 233t107 185t199 118q72 -12 116 -87t70 -185t36 -239t12 -247t2 -211t4 -133q-13 -34 -46 -45t-54 19q0 46 -17 296t-25 402t-12 188q-77 135 -165 58q-103 -90 -215 -472q-51 -172 -77 -309q-27 -137 -31 -179
q-13 -31 -50 -42q-70 -20 -88 16q-22 270 -39 541t-37 563q0 48 52 48zM154 1614v6q0 20 50 20q14 0 26 -12l218 -272h8q28 0 38 10l266 244h12q36 0 50 -18t14 -32t-7 -21t-45 -15l-314 -262l-10 -2q-20 0 -39 8t-23 14l-242 328q-2 2 -2 4z" />
    <glyph glyph-name="napostrophe" unicode="&#x149;" horiz-adv-x="990" 
d="M112 1178h16q40 0 114 -782q42 136 66 264t62 233t107 185t199 118q72 -12 116 -87t70 -185t36 -239t12 -247t2 -211t4 -133q-13 -34 -46 -45t-54 19q0 46 -17 296t-25 402t-12 188q-77 135 -165 58q-103 -90 -215 -472q-51 -172 -77 -309q-27 -137 -31 -179
q-13 -31 -50 -42q-70 -20 -88 16q-22 270 -39 541t-37 563q0 48 52 48zM262 1492q0 86 4 110q-4 2 -7 13t-10 29t-7 34q0 58 28 80t84 22q40 -62 40 -138t-62 -308l-78 -24q8 96 8 182z" />
    <glyph glyph-name="Omacron" unicode="&#x14c;" horiz-adv-x="784" 
d="M136 457q0 -150 28 -220q41 -103 154 -103q133 0 224 220q90 220 101 484q11 265 -71 365q-42 51 -111 41t-165 -110q-160 -469 -160 -677zM30 428q24 348 100 567t177 313t210 63t197 -183q62 -208 35 -475q-45 -442 -275 -634q-80 -67 -184 -81q-133 0 -204 159
q-56 125 -56 271zM122 1516q0 8 11 28t17 24q121 8 345 39t339 31q28 0 28 -56v-16l-2 -32l-584 -42q-8 -4 -58 -4l-16 -2q-80 0 -80 30z" />
    <glyph glyph-name="omacron" unicode="&#x14d;" horiz-adv-x="546" 
d="M410 720q0 256 -92 256q-85 27 -123 -68q-39 -95 -42 -224q-3 -128 -2 -220t1 -175t26 -161h12q153 0 205 353q15 102 15 199v40zM36 453q0 87 14 202t78 371q0 63 86 94q22 8 54 8q105 0 218 -258q36 -157 27 -295q-35 -532 -345 -575q-79 0 -105 107q-13 53 -13 167
q-14 92 -14 179zM-94 1400q0 8 11 28t17 24q121 8 345 39t339 31q28 0 28 -56v-16l-2 -32l-584 -42q-8 -4 -58 -4l-16 -2q-80 0 -80 30z" />
    <glyph glyph-name="Obreve" unicode="&#x14e;" horiz-adv-x="784" 
d="M136 457q0 -150 28 -220q41 -103 154 -103q133 0 224 220q90 220 101 484q11 265 -71 365q-42 51 -111 41t-165 -110q-160 -469 -160 -677zM30 428q24 348 100 567t177 313t210 63t197 -183q62 -208 35 -475q-45 -442 -275 -634q-80 -67 -184 -81q-133 0 -204 159
q-56 125 -56 271zM258 1674q8 -4 22 -20t33 -32q117 -99 249 108q40 30 62 27t27 -24q11 -47 -17 -103q-162 -209 -287 -155q-59 25 -113 89l-36 46q-44 38 -46 69t17 45t47 5t42 -55z" />
    <glyph glyph-name="obreve" unicode="&#x14f;" horiz-adv-x="546" 
d="M410 720q0 256 -92 256q-85 27 -123 -68q-39 -95 -42 -224q-3 -128 -2 -220t1 -175t26 -161h12q153 0 205 353q15 102 15 199v40zM36 453q0 87 14 202t78 371q0 63 86 94q22 8 54 8q105 0 218 -258q36 -157 27 -295q-35 -532 -345 -575q-79 0 -105 107q-13 53 -13 167
q-14 92 -14 179zM158 1432q8 -4 22 -20t33 -32q117 -99 249 108q40 30 62 27t27 -24q11 -47 -17 -103q-162 -209 -287 -155q-59 25 -113 89l-36 46q-44 38 -46 69t17 45t47 5t42 -55z" />
    <glyph glyph-name="Ohungarumlaut" unicode="&#x150;" horiz-adv-x="784" 
d="M136 457q0 -150 28 -220q41 -103 154 -103q133 0 224 220q90 220 101 484q11 265 -71 365q-42 51 -111 41t-165 -110q-160 -469 -160 -677zM30 428q24 348 100 567t177 313t210 63t197 -183q62 -208 35 -475q-45 -442 -275 -634q-80 -67 -184 -81q-133 0 -204 159
q-56 125 -56 271zM802 1680v-16q-11 -59 -131 -160q-31 -26 -53 -46q-139 26 34 195q46 45 92 85q58 0 58 -58zM606 1722v-14q-9 -56 -132 -162q-30 -26 -52 -46q-135 30 34 195q46 45 92 87q58 0 58 -60z" />
    <glyph glyph-name="ohungarumlaut" unicode="&#x151;" horiz-adv-x="546" 
d="M410 720q0 256 -92 256q-85 27 -123 -68q-39 -95 -42 -224q-3 -128 -2 -220t1 -175t26 -161h12q153 0 205 353q15 102 15 199v40zM36 453q0 87 14 202t78 371q0 63 86 94q22 8 54 8q105 0 218 -258q36 -157 27 -295q-35 -532 -345 -575q-79 0 -105 107q-13 53 -13 167
q-14 92 -14 179zM526 1438v-16q-11 -59 -131 -160q-31 -26 -53 -46q-139 26 34 195q46 45 92 85q58 0 58 -58zM330 1480v-14q-9 -56 -132 -162q-30 -26 -52 -46q-135 30 34 195q46 45 92 87q58 0 58 -60z" />
    <glyph glyph-name="OE" unicode="&#x152;" horiz-adv-x="1500" 
d="M136 457q0 -150 28 -220q41 -103 154 -103q133 0 224 220q90 220 101 484q11 265 -71 365q-42 51 -111 41t-165 -110q-160 -469 -160 -677zM1344 1462q0 -43 -32 -56l-564 -282v-78q8 -83 13 -192t13 -192l410 230q65 76 102 26q0 -81 -243 -204q-147 -75 -195 -113
q-48 -39 -48 -67v-384q67 -29 307 146q241 175 307 190q52 0 52 -42q0 -22 -26 -38q-70 -40 -161 -103q-404 -280 -529 -309q-49 0 -76 30v352q-70 -188 -200 -297q-80 -67 -184 -81q-133 0 -204 159q-56 125 -56 271q24 348 100 567t177 313t209 64q46 -14 86 -48l-6 30
q0 23 26 51t50 25q43 -6 64 -82q12 -42 12 -98q387 212 596 212z" />
    <glyph glyph-name="oe" unicode="&#x153;" horiz-adv-x="1288" 
d="M860 996q-24 0 -63 -34t-72 -80q-75 -105 -75 -176q65 0 201 79q57 33 98 72t41 64t-14 38t-32 21t-39 12t-45 4zM410 720q0 256 -92 256q-85 27 -123 -68q-39 -95 -42 -224q-3 -128 -2 -220t1 -175t26 -161h12q89 0 151 138q43 95 59 264l2 2q2 48 5 86t3 62v40z
M1222 560q66 0 66 -38t-28 -88t-76 -106q-106 -124 -240 -215t-220 -91q-152 0 -198 145q-26 82 -26 273q-41 -280 -200 -390q-58 -40 -132 -50q-79 0 -105 107q-13 53 -13 167q-14 92 -14 179t14 202t78 371q0 63 86 94q22 8 54 8q105 0 218 -258q16 -75 24 -170
q30 68 59 141t69 133q90 136 246 132q79 0 160 -62q80 -62 80 -144q28 -56 -333 -252q-134 -73 -161 -92q-28 -62 -28 -109v-59q0 -38 -4 -83q-16 -181 124 -181q160 0 324 218q42 56 74 104t58 81t44 33z" />
    <glyph glyph-name="Racute" unicode="&#x154;" horiz-adv-x="1032" 
d="M212 1280q-4 -36 -8 -84t-12 -131t-8 -169q8 10 56 34t116 60t147 80t149 91t123 93t68 85t-16 71t-129 50q-120 9 -270 -43t-216 -137zM212 1588v-176q34 8 78 37q212 139 408 119q393 -80 243 -266q-84 -105 -284 -232q-91 -58 -244 -155t-201 -147q32 -14 93 -45
t134 -68t152 -79q281 -149 355 -174q20 -10 38 -18q14 -10 27 -18t13 -16q0 -24 -22 -51t-40 -27l-16 2q-4 2 -27 13t-63 33t-62 30t-71 31t-110 52t-129 63q-269 135 -310 142v-612h-90l-4 1598l82 -10q50 0 50 -26zM720 1866v-14q-10 -61 -131 -162q-31 -26 -53 -46
q-135 30 34 195q46 45 92 87q58 0 58 -60z" />
    <glyph glyph-name="racute" unicode="&#x155;" horiz-adv-x="812" 
d="M326 46q0 -40 -54 -40t-78 40l-142 918v16q0 36 50 36q16 0 30 -3t22 -23q6 -30 12 -83t14 -117q24 -192 40 -303t36 -155q-12 400 81 563q102 178 363 139q62 0 62 -66q0 -26 -34 -35t-76 -12t-82 -7t-58 -20q-72 -40 -101 -124t-41 -198t-17 -249t-27 -277zM570 1424
v-14q-10 -61 -131 -162q-31 -26 -53 -46q-135 30 34 195q46 45 92 87q58 0 58 -60z" />
    <glyph glyph-name="Rcommaaccent" unicode="&#x156;" horiz-adv-x="1032" 
d="M212 1280q-4 -36 -8 -84t-12 -131t-8 -169q8 10 56 34t116 60t147 80t149 91t123 93t68 85t-16 71t-129 50q-120 9 -270 -43t-216 -137zM212 1588v-176q34 8 78 37q212 139 408 119q393 -80 243 -266q-84 -105 -284 -232q-91 -58 -244 -155t-201 -147q32 -14 93 -45
t134 -68t152 -79q281 -149 355 -174q20 -10 38 -18q14 -10 27 -18t13 -16q0 -24 -22 -51t-40 -27l-16 2q-4 2 -27 13t-63 33t-62 30t-71 31t-110 52t-129 63q-269 135 -310 142v-612h-90l-4 1598l82 -10q50 0 50 -26zM448 -482q0 86 4 110q-4 2 -7 13t-10 29t-7 34
q0 58 28 80t84 22q40 -62 40 -138t-62 -308l-78 -24q8 96 8 182z" />
    <glyph glyph-name="rcommaaccent" unicode="&#x157;" horiz-adv-x="812" 
d="M326 46q0 -40 -54 -40t-78 40l-142 918v16q0 36 50 36q16 0 30 -3t22 -23q6 -30 12 -83t14 -117q24 -192 40 -303t36 -155q-12 400 81 563q102 178 363 139q62 0 62 -66q0 -26 -34 -35t-76 -12t-82 -7t-58 -20q-72 -40 -101 -124t-41 -198t-17 -249t-27 -277zM342 -482
q0 86 4 110q-4 2 -7 13t-10 29t-7 34q0 58 28 80t84 22q40 -62 40 -138t-62 -308l-78 -24q8 96 8 182z" />
    <glyph glyph-name="Rcaron" unicode="&#x158;" horiz-adv-x="1032" 
d="M212 1280q-4 -36 -8 -84t-12 -131t-8 -169q8 10 56 34t116 60t147 80t149 91t123 93t68 85t-16 71t-129 50q-120 9 -270 -43t-216 -137zM212 1588v-176q34 8 78 37q212 139 408 119q393 -80 243 -266q-84 -105 -284 -232q-91 -58 -244 -155t-201 -147q32 -14 93 -45
t134 -68t152 -79q281 -149 355 -174q20 -10 38 -18q14 -10 27 -18t13 -16q0 -24 -22 -51t-40 -27l-16 2q-4 2 -27 13t-63 33t-62 30t-71 31t-110 52t-129 63q-269 135 -310 142v-612h-90l-4 1598l82 -10q50 0 50 -26zM214 2050v6q0 20 50 20q14 0 26 -12l218 -272h8
q28 0 38 10l266 244h12q36 0 50 -18t14 -32t-7 -21t-45 -15l-314 -262l-10 -2q-20 0 -39 8t-23 14l-242 328q-2 2 -2 4z" />
    <glyph glyph-name="rcaron" unicode="&#x159;" horiz-adv-x="812" 
d="M326 46q0 -40 -54 -40t-78 40l-142 918v16q0 36 50 36q16 0 30 -3t22 -23q6 -30 12 -83t14 -117q24 -192 40 -303t36 -155q-12 400 81 563q102 178 363 139q62 0 62 -66q0 -26 -34 -35t-76 -12t-82 -7t-58 -20q-72 -40 -101 -124t-41 -198t-17 -249t-27 -277zM68 1614v6
q0 20 50 20q14 0 26 -12l218 -272h8q28 0 38 10l266 244h12q36 0 50 -18t14 -32t-7 -21t-45 -15l-314 -262l-10 -2q-20 0 -39 8t-23 14l-242 328q-2 2 -2 4z" />
    <glyph glyph-name="Sacute" unicode="&#x15a;" horiz-adv-x="1108" 
d="M24 842q0 78 34 155t91 149q115 146 284 243t305 97q18 0 38 1t35 -2q35 -7 35 -58t-38 -76t-92 -25l-78 56q-87 0 -213 -95q-193 -146 -272 -335q-25 -60 -25 -119t39 -102t104 -68t149 -37t170 -20t170 -15t149 -25t104 -48t39 -82q43 -62 -105 -155
q-207 -130 -519 -212q-88 -23 -150 -29q-18 0 -31 12t-7 37t52 43t114 38t150 44q320 94 390 210q0 30 -39 46t-104 27t-148 18t-170 20t-170 32t-148 54t-104 89t-39 132zM702 1756v-14q-10 -61 -131 -162q-31 -26 -53 -46q-135 30 34 195q46 45 92 87q58 0 58 -60z" />
    <glyph glyph-name="sacute" unicode="&#x15b;" horiz-adv-x="750" 
d="M152 569q0 -39 9 -52t27 -20t64 -7q70 0 167 40q98 40 141 40q71 0 115 -46t47 -104q23 -53 -57 -163q-80 -109 -206 -209t-195 -96q-40 0 -47 24t-7 54q0 -2 43 24t102 69q388 283 211 313q-72 10 -121 -2t-89 -28l-75 -30q-35 -14 -77 -10q-88 0 -121 55t-33 149
t42 179t108 147t152 99t149 37t89 -6t26 -40t-24 -59t-54 -25l-52 24q-64 18 -124 -18t-107 -97t-75 -132t-28 -110zM540 1424v-14q-10 -61 -131 -162q-31 -26 -53 -46q-135 30 34 195q46 45 92 87q58 0 58 -60z" />
    <glyph glyph-name="Scircumflex" unicode="&#x15c;" horiz-adv-x="1108" 
d="M24 842q0 78 34 155t91 149q115 146 284 243t305 97q18 0 38 1t35 -2q35 -7 35 -58t-38 -76t-92 -25l-78 56q-87 0 -213 -95q-193 -146 -272 -335q-25 -60 -25 -119t39 -102t104 -68t149 -37t170 -20t170 -15t149 -25t104 -48t39 -82q43 -62 -105 -155
q-207 -130 -519 -212q-88 -23 -150 -29q-18 0 -31 12t-7 37t52 43t114 38t150 44q320 94 390 210q0 30 -39 46t-104 27t-148 18t-170 20t-170 32t-148 54t-104 89t-39 132zM554 2104q12 0 20 -2l328 -382q40 -8 47 -20t7 -26q0 -32 -17 -55t-51 -23h-8q-2 0 -2 2l-280 350
q-10 18 -38 18h-10l-228 -398q-8 -16 -43 -16t-35 30l2 16l254 474q2 8 22 20t32 12z" />
    <glyph glyph-name="scircumflex" unicode="&#x15d;" horiz-adv-x="750" 
d="M152 569q0 -39 9 -52t27 -20t64 -7q70 0 167 40q98 40 141 40q71 0 115 -46t47 -104q23 -53 -57 -163q-80 -109 -206 -209t-195 -96q-40 0 -47 24t-7 54q0 -2 43 24t102 69q388 283 211 313q-72 10 -121 -2t-89 -28l-75 -30q-35 -14 -77 -10q-88 0 -121 55t-33 149
t42 179t108 147t152 99t149 37t89 -6t26 -40t-24 -59t-54 -25l-52 24q-64 18 -124 -18t-107 -97t-75 -132t-28 -110zM358 1650q12 0 20 -2l328 -382q40 -8 47 -20t7 -26q0 -32 -17 -55t-51 -23h-8q-2 0 -2 2l-280 350q-10 18 -38 18h-10l-228 -398q-8 -16 -43 -16t-35 30
l2 16l254 474q2 8 22 20t32 12z" />
    <glyph glyph-name="Scedilla" unicode="&#x15e;" horiz-adv-x="1108" 
d="M24 842q0 78 34 155t91 149q115 146 284 243t305 97q18 0 38 1t35 -2q35 -7 35 -58t-38 -76t-92 -25l-78 56q-87 0 -213 -95q-193 -146 -272 -335q-25 -60 -25 -119t39 -102t104 -68t149 -37t170 -20t170 -15t149 -25t104 -48t39 -82q43 -62 -105 -155
q-207 -130 -519 -212q-88 -23 -150 -29q-18 0 -31 12t-7 37t52 43t114 38t150 44q320 94 390 210q0 30 -39 46t-104 27t-148 18t-170 20t-170 32t-148 54t-104 89t-39 132zM662 -472q0 6 41 14t94 20t103 29t66 41t-16 57t-142 77q-88 0 -120 55t-32 151q15 160 51 184
q15 10 29 -6t22 -48q20 -81 -2 -148q92 -64 161 -98t115 -66t70 -77t24 -131q-24 -73 -160 -106t-250 -28q-42 0 -48 24t-6 56z" />
    <glyph glyph-name="scedilla" unicode="&#x15f;" horiz-adv-x="750" 
d="M152 569q0 -39 9 -52t27 -20t64 -7q70 0 167 40q98 40 141 40q71 0 115 -46t47 -104q23 -53 -56 -161t-208 -213q-34 -24 -64 -44q16 -71 -4 -132q92 -64 161 -98t115 -66t70 -77t24 -131q-24 -73 -160 -106t-250 -28q-42 0 -48 25t-6 55q0 7 94 26q94 20 144 37t66 42
t-16 57t-142 78q-88 0 -120 54t-32 150q4 38 6 66q-18 -2 -45 -2t-34 24t-7 54q0 -2 43 24t102 69q388 283 211 313q-72 10 -121 -2t-89 -28l-75 -30q-35 -14 -77 -10q-88 0 -121 55t-33 149t42 179t108 147t152 99t149 37t89 -6t26 -40t-24 -59t-54 -25l-52 24
q-64 18 -124 -18t-107 -97t-75 -132t-28 -110z" />
    <glyph glyph-name="Scaron" unicode="&#x160;" horiz-adv-x="1108" 
d="M24 842q0 78 34 155t91 149q115 146 284 243t305 97q18 0 38 1t35 -2q35 -7 35 -58t-38 -76t-92 -25l-78 56q-87 0 -213 -95q-193 -146 -272 -335q-25 -60 -25 -119t39 -102t104 -68t149 -37t170 -20t170 -15t149 -25t104 -48t39 -82q43 -62 -105 -155
q-207 -130 -519 -212q-88 -23 -150 -29q-18 0 -31 12t-7 37t52 43t114 38t150 44q320 94 390 210q0 30 -39 46t-104 27t-148 18t-170 20t-170 32t-148 54t-104 89t-39 132zM212 1862v6q0 20 50 20q14 0 26 -12l218 -272h8q28 0 38 10l266 244h12q36 0 50 -18t14 -32t-7 -21
t-45 -15l-314 -262l-10 -2q-20 0 -39 8t-23 14l-242 328q-2 2 -2 4z" />
    <glyph glyph-name="scaron" unicode="&#x161;" horiz-adv-x="750" 
d="M152 569q0 -39 9 -52t27 -20t64 -7q70 0 167 40q98 40 141 40q71 0 115 -46t47 -104q23 -53 -57 -163q-80 -109 -206 -209t-195 -96q-40 0 -47 24t-7 54q0 -2 43 24t102 69q388 283 211 313q-72 10 -121 -2t-89 -28l-75 -30q-35 -14 -77 -10q-88 0 -121 55t-33 149
t42 179t108 147t152 99t149 37t89 -6t26 -40t-24 -59t-54 -25l-52 24q-64 18 -124 -18t-107 -97t-75 -132t-28 -110zM38 1516v6q0 20 50 20q14 0 26 -12l218 -272h8q28 0 38 10l266 244h12q36 0 50 -18t14 -32t-7 -21t-45 -15l-314 -262l-10 -2q-20 0 -39 8t-23 14l-242 328
q-2 2 -2 4z" />
    <glyph glyph-name="Tcommaaccent" unicode="&#x162;" horiz-adv-x="1220" 
d="M842 -2q-20 0 -48 2q-35 125 -54 307q-28 257 -52 530q-24 274 -50 417h-36q-92 0 -207 -27t-179 -39t-107 -12t-64 5t-21 30t17 46t37 23l536 78q2 8 6 25q18 77 55 77q39 0 65 -39l18 -27q8 -12 20 -12h16q528 53 574 62l62 2q0 -66 -129 -101t-440 -55q-61 -4 -93 -10
q-12 -218 45 -606q23 -156 43 -310t20 -294q16 -54 1 -63t-35 -9zM820 -474q0 86 4 110q-4 2 -7 13t-10 29t-7 34q0 58 28 80t84 22q40 -62 40 -138t-62 -308l-78 -24q8 96 8 182z" />
    <glyph glyph-name="tcommaaccent" unicode="&#x163;" horiz-adv-x="550" 
d="M223 -46q-31 0 -67 30l-50 870q-20 -10 -37 -21t-43 -25t-56 -8q-31 0 -40 87q-2 19 0 29l192 110l12 512q4 26 32 21q65 -12 84 -21q-4 -54 -9 -117q-21 -262 -9 -357l300 84q21 5 32 -96l-340 -144l34 -894q-4 -60 -35 -60zM212 -482q0 86 4 110q-4 2 -7 13t-10 29
t-7 34q0 58 28 80t84 22q40 -62 40 -138t-62 -308l-78 -24q8 96 8 182z" />
    <glyph glyph-name="Tcaron" unicode="&#x164;" horiz-adv-x="1220" 
d="M842 -2q-20 0 -48 2q-35 125 -54 307q-28 257 -52 530q-24 274 -50 417h-36q-92 0 -207 -27t-179 -39t-107 -12t-64 5t-21 30t17 46t37 23l536 78q2 8 6 25q18 77 55 77q39 0 65 -39l18 -27q8 -12 20 -12h16q528 53 574 62l62 2q0 -66 -129 -101t-440 -55q-61 -4 -93 -10
q-12 -218 45 -606q23 -156 43 -310t20 -294q16 -54 1 -63t-35 -9zM446 1994v6q0 20 50 20q14 0 26 -12l218 -272h8q28 0 38 10l266 244h12q36 0 50 -18t14 -32t-7 -21t-45 -15l-314 -262l-10 -2q-20 0 -39 8t-23 14l-242 328q-2 2 -2 4z" />
    <glyph glyph-name="Tbar" unicode="&#x166;" horiz-adv-x="1220" 
d="M326 898q0 13 26 52q88 6 178 16l144 18q-17 165 -36 270h-36q-92 0 -207 -27t-179 -39t-107 -12t-64 5t-21 30t17 46t37 23l536 78q2 8 6 25q18 77 55 77q39 0 65 -39l18 -27q8 -12 20 -12h16q528 53 574 62l62 2q0 -66 -129 -101t-440 -55q-61 -4 -93 -10
q-8 -136 4 -282q137 22 264 22q30 0 30 -58v-14l-4 -32l-280 -22q14 -110 54 -376t40 -448q16 -54 1 -63t-35 -9t-48 2q-35 125 -60 360t-50 528l-206 -16l-56 -2l-18 -2q-78 0 -78 30z" />
    <glyph glyph-name="Utilde" unicode="&#x168;" horiz-adv-x="922" 
d="M141 124q-50 102 -57 313q-2 61 -4 144q-4 153 -11 349t-7 230q-5 50 39 53q13 1 23 1h16q48 0 48 -30v-852q0 -74 31 -122q57 -88 129 -88q76 6 131 81t95 189t66 248t46 258t35 220t33 134q64 57 93 -35q11 -35 13 -76t-4 -59q0 -134 -13 -266t-13 -243q0 -145 26 -369
t26 -290t-2 -83t-9 -31t-19 -24t-28 -9t-20 1l-76 768q-55 -202 -119 -305q-131 -209 -275 -209q-143 0 -193 102zM782 1686q28 8 53 9t35 -35q22 -54 -56 -136t-158 -122q-55 -15 -110 10q-55 24 -68 62q-26 14 -37 42t-24 55t-31 46t-58 18t-58 -21t-30 -48t-25 -57
t-39 -49q-36 -11 -49 3q-12 14 -23 53q7 114 90 166q83 53 183 44t131 -64q48 -159 108 -150q26 4 50 35t45 64t39 58t32 17z" />
    <glyph glyph-name="utilde" unicode="&#x169;" horiz-adv-x="794" 
d="M128 994q28 0 42 -28q0 -94 5 -175q11 -173 16 -296q6 -123 10 -159q3 -36 6 -68q15 -155 57 -160q53 0 112 79t105 178t52 141q19 157 19 474l110 -6q2 -162 -2 -293t-2 -246q4 -249 76 -447q-6 -6 -24 -17t-26 -11q-50 0 -67 33t-22 78t-8 90t-27 71q-19 -56 -86 -122
q-131 -128 -194 -128q-62 0 -103 60t-63 154t-30 209t-10 225t-2 200t-6 136q8 20 21 24t41 4zM682 1422q28 8 53 9t35 -35q22 -54 -56 -136t-158 -122q-55 -15 -110 10q-55 24 -68 62q-26 14 -37 42t-24 55t-31 46t-58 18t-58 -21t-30 -48t-25 -57t-39 -49q-36 -11 -49 3
q-12 14 -23 53q7 114 90 166q83 53 183 44t131 -64q48 -159 108 -150q26 4 50 35t45 64t39 58t32 17z" />
    <glyph glyph-name="Umacron" unicode="&#x16a;" horiz-adv-x="922" 
d="M141 124q-50 102 -57 313q-2 61 -4 144q-4 153 -11 349t-7 230q-5 50 39 53q13 1 23 1h16q48 0 48 -30v-852q0 -74 31 -122q57 -88 129 -88q76 6 131 81t95 189t66 248t46 258t35 220t33 134q64 57 93 -35q11 -35 13 -76t-4 -59q0 -134 -13 -266t-13 -243q0 -145 26 -369
t26 -290t-2 -83t-9 -31t-19 -24t-28 -9t-20 1l-76 768q-55 -202 -119 -305q-131 -209 -275 -209q-143 0 -193 102zM88 1400q0 8 11 28t17 24q121 8 345 39t339 31q28 0 28 -56v-16l-2 -32l-584 -42q-8 -4 -58 -4l-16 -2q-80 0 -80 30z" />
    <glyph glyph-name="umacron" unicode="&#x16b;" horiz-adv-x="794" 
d="M128 994q28 0 42 -28q0 -94 5 -175q11 -173 16 -296q6 -123 10 -159q3 -36 6 -68q15 -155 57 -160q53 0 112 79t105 178t52 141q19 157 19 474l110 -6q2 -162 -2 -293t-2 -246q4 -249 76 -447q-6 -6 -24 -17t-26 -11q-50 0 -67 33t-22 78t-8 90t-27 71q-19 -56 -86 -122
q-131 -128 -194 -128q-62 0 -103 60t-63 154t-30 209t-10 225t-2 200t-6 136q8 20 21 24t41 4zM26 1400q0 8 11 28t17 24q121 8 345 39t339 31q28 0 28 -56v-16l-2 -32l-584 -42q-8 -4 -58 -4l-16 -2q-80 0 -80 30z" />
    <glyph glyph-name="Ubreve" unicode="&#x16c;" horiz-adv-x="922" 
d="M141 124q-50 102 -57 313q-2 61 -4 144q-4 153 -11 349t-7 230q-5 50 39 53q13 1 23 1h16q48 0 48 -30v-852q0 -74 31 -122q57 -88 129 -88q76 6 131 81t95 189t66 248t46 258t35 220t33 134q64 57 93 -35q11 -35 13 -76t-4 -59q0 -134 -13 -266t-13 -243q0 -145 26 -369
t26 -290t-2 -83t-9 -31t-19 -24t-28 -9t-20 1l-76 768q-55 -202 -119 -305q-131 -209 -275 -209q-143 0 -193 102zM340 1432q8 -4 22 -20t33 -32q117 -99 249 108q40 30 62 27t27 -24q11 -47 -17 -103q-162 -209 -287 -155q-59 25 -113 89l-36 46q-44 38 -46 69t17 45t47 5
t42 -55z" />
    <glyph glyph-name="ubreve" unicode="&#x16d;" horiz-adv-x="794" 
d="M128 994q28 0 42 -28q0 -94 5 -175q11 -173 16 -296q6 -123 10 -159q3 -36 6 -68q15 -155 57 -160q53 0 112 79t105 178t52 141q19 157 19 474l110 -6q2 -162 -2 -293t-2 -246q4 -249 76 -447q-6 -6 -24 -17t-26 -11q-50 0 -67 33t-22 78t-8 90t-27 71q-19 -56 -86 -122
q-131 -128 -194 -128q-62 0 -103 60t-63 154t-30 209t-10 225t-2 200t-6 136q8 20 21 24t41 4zM278 1432q8 -4 22 -20t33 -32q117 -99 249 108q40 30 62 27t27 -24q11 -47 -17 -103q-162 -209 -287 -155q-59 25 -113 89l-36 46q-44 38 -46 69t17 45t47 5t42 -55z" />
    <glyph glyph-name="Uring" unicode="&#x16e;" horiz-adv-x="922" 
d="M141 124q-50 102 -57 313q-2 61 -4 144q-4 153 -11 349t-7 230q-5 50 39 53q13 1 23 1h16q48 0 48 -30v-852q0 -74 31 -122q57 -88 129 -88q76 6 131 81t95 189t66 248t46 258t35 220t33 134q64 57 93 -35q11 -35 13 -76t-4 -59q0 -134 -13 -266t-13 -243q0 -145 26 -369
t26 -290t-2 -83t-9 -31t-19 -24t-28 -9t-20 1l-76 768q-55 -202 -119 -305q-131 -209 -275 -209q-143 0 -193 102zM464 1384q30 0 48 6t31 24t33 50q4 34 -14 58t-47 35t-65 11t-65 -11q-71 -27 -67 -99q0 -20 21 -34t43 -34q52 -6 82 -6zM684 1463q0 -167 -318 -151
q-80 0 -115 47t-35 97q-36 72 41 138t211 66q83 0 123 -21t71 -61q22 -64 22 -115z" />
    <glyph glyph-name="uring" unicode="&#x16f;" horiz-adv-x="794" 
d="M128 994q28 0 42 -28q0 -94 5 -175q11 -173 16 -296q6 -123 10 -159q3 -36 6 -68q15 -155 57 -160q53 0 112 79t105 178t52 141q19 157 19 474l110 -6q2 -162 -2 -293t-2 -246q4 -249 76 -447q-6 -6 -24 -17t-26 -11q-50 0 -67 33t-22 78t-8 90t-27 71q-19 -56 -86 -122
q-131 -128 -194 -128q-62 0 -103 60t-63 154t-30 209t-10 225t-2 200t-6 136q8 20 21 24t41 4zM416 1106q30 0 48 6t31 24t33 50q4 34 -14 58t-47 35t-65 11t-65 -11q-71 -27 -67 -99q0 -20 21 -34t43 -34q52 -6 82 -6zM636 1185q0 -167 -318 -151q-80 0 -115 47t-35 97
q-36 72 41 138t211 66q83 0 123 -21t71 -61q22 -64 22 -115z" />
    <glyph glyph-name="Uhungarumlaut" unicode="&#x170;" horiz-adv-x="922" 
d="M141 124q-50 102 -57 313q-2 61 -4 144q-4 153 -11 349t-7 230q-5 50 39 53q13 1 23 1h16q48 0 48 -30v-852q0 -74 31 -122q57 -88 129 -88q76 6 131 81t95 189t66 248t46 258t35 220t33 134q64 57 93 -35q11 -35 13 -76t-4 -59q0 -134 -13 -266t-13 -243q0 -145 26 -369
t26 -290t-2 -83t-9 -31t-19 -24t-28 -9t-20 1l-76 768q-55 -202 -119 -305q-131 -209 -275 -209q-143 0 -193 102zM692 1618v-16q-11 -59 -131 -160q-31 -26 -53 -46q-139 26 34 195q46 45 92 85q58 0 58 -58zM496 1660v-14q-9 -56 -132 -162q-30 -26 -52 -46
q-135 30 34 195q46 45 92 87q58 0 58 -60z" />
    <glyph glyph-name="uhungarumlaut" unicode="&#x171;" horiz-adv-x="794" 
d="M128 994q28 0 42 -28q0 -94 5 -175q11 -173 16 -296q6 -123 10 -159q3 -36 6 -68q15 -155 57 -160q53 0 112 79t105 178t52 141q19 157 19 474l110 -6q2 -162 -2 -293t-2 -246q4 -249 76 -447q-6 -6 -24 -17t-26 -11q-50 0 -67 33t-22 78t-8 90t-27 71q-19 -56 -86 -122
q-131 -128 -194 -128q-62 0 -103 60t-63 154t-30 209t-10 225t-2 200t-6 136q8 20 21 24t41 4zM588 1270v-16q-11 -59 -131 -160q-31 -26 -53 -46q-139 26 34 195q46 45 92 85q58 0 58 -58zM392 1312v-14q-9 -56 -132 -162q-30 -26 -52 -46q-135 30 34 195q46 45 92 87
q58 0 58 -60z" />
    <glyph glyph-name="Uogonek" unicode="&#x172;" horiz-adv-x="922" 
d="M141 124q-50 102 -57 313q-2 61 -4 144q-4 153 -11 349t-7 230q-5 50 39 53q13 1 23 1h16q48 0 48 -30v-852q0 -74 31 -122q57 -88 129 -88q76 6 131 81t95 189t66 248t46 258t35 220t33 134q64 57 93 -35q11 -35 13 -76t-4 -59q0 -134 -13 -266t-13 -243q0 -145 26 -369
t26 -290t-2 -83t-9 -31t-19 -24t-28 -9t-20 1l-10 98q-6 -2 -12 -2q-87 -108 -89 -203t89 -111q42 0 101 24t90 35t65 11q40 -28 28 -64t-58 -66t-117 -45t-149 -1q-76 22 -116 87t-38 147t47 164t139 134h8l-54 560q-55 -202 -119 -305q-131 -209 -275 -209
q-143 0 -193 102z" />
    <glyph glyph-name="uogonek" unicode="&#x173;" horiz-adv-x="794" 
d="M734 -12q-28 -28 -49 -28t-35 6q-16 -16 -38 -16q-85 -105 -87 -203t89 -113q47 0 125 35t131 35q38 -28 27 -64t-57 -66t-117 -45t-151 -1q-76 22 -115 88t-37 148t45 161t131 131q0 6 -3 33t-6 72t-27 71q-19 -56 -86 -122q-131 -128 -194 -128q-62 0 -103 60t-63 154
t-30 209t-10 225t-2 200t-6 136q8 20 21 24t41 4t42 -28q0 -94 5 -175q11 -173 16 -296q6 -123 10 -159q3 -36 6 -68q15 -155 57 -160q53 0 112 79t105 178t52 141q19 157 19 474l110 -6q2 -162 -2 -293t-2 -246q4 -249 76 -447z" />
    <glyph glyph-name="Wcircumflex" unicode="&#x174;" horiz-adv-x="1800" 
d="M1664 1520q33 0 60 -60l-280 -1128q0 -103 -45 -186q-28 -52 -67 -15q-20 19 -42 75q-212 375 -360 868l-256 -844q-22 -159 -85 -220q-45 -43 -105 -35q-22 3 -33 12t-7 13q-78 104 -139 339q-27 103 -53 216t-55 224q-64 245 -163 399q8 21 48 56q40 34 52 40
q28 -21 49 -77q25 -66 111 -347t228 -722q27 20 214 619q34 109 65 208t53 171q6 28 9 55t9 49q14 52 72 52q28 12 52 -28t49 -116t53 -177q123 -445 242 -629l282 1152q9 36 42 36zM854 2112q12 0 20 -2l328 -382q40 -8 47 -20t7 -26q0 -32 -17 -55t-51 -23h-8q-2 0 -2 2
l-280 350q-10 18 -38 18h-10l-228 -398q-8 -16 -43 -16t-35 30l2 16l254 474q2 8 22 20t32 12z" />
    <glyph glyph-name="wcircumflex" unicode="&#x175;" horiz-adv-x="1160" 
d="M56 962q0 47 42 62q44 0 64 -50l230 -590q2 28 10 101t16 155t15 155t10 97t5 50q8 110 74 110q20 0 29 -4t21 -24l384 -656v676q132 0 108 -190q-6 -48 -4 -86l24 -590q14 -40 -1 -53t-41 -9t-52 22t-34 40l-408 692q-22 -478 -54 -844q-10 -37 -49 -19q-15 7 -29 21
l-24 24q-10 30 -34 94l-54 144q-30 80 -64 170t-72 190l-82 220q-30 45 -30 92zM534 1910q12 0 20 -2l328 -382q40 -8 47 -20t7 -26q0 -32 -17 -55t-51 -23h-8q-2 0 -2 2l-280 350q-10 18 -38 18h-10l-228 -398q-8 -16 -43 -16t-35 30l2 16l254 474q2 8 22 20t32 12z" />
    <glyph glyph-name="Ycircumflex" unicode="&#x176;" horiz-adv-x="990" 
d="M384 50q0 72 22 141t48 139t45 139t13 145q-58 64 -128 139q-276 296 -358 501q-2 2 -2 6v8q0 40 56 40q52 -62 111 -141q245 -328 373 -423h26q8 14 28 69t49 131q156 409 203 644q2 4 22 4t39 -27t15 -55q-153 -537 -177 -609q-25 -73 -42 -115t-35 -93l-48 -136
q-60 -170 -184 -557l-24 -2q-52 0 -52 52zM456 2196q12 0 20 -2l328 -382q40 -8 47 -20t7 -26q0 -32 -17 -55t-51 -23h-8q-2 0 -2 2l-280 350q-10 18 -38 18h-10l-228 -398q-8 -16 -43 -16t-35 30l2 16l254 474q2 8 22 20t32 12z" />
    <glyph glyph-name="ycircumflex" unicode="&#x177;" horiz-adv-x="744" 
d="M44 868q0 66 41 66q23 0 43 -9t24 -17q44 -70 91 -156q195 -356 323 -472l48 784l24 2q50 0 62 -32q5 -184 -5 -500q-11 -316 -16 -396t-12 -181t-16 -213t-17 -212t-14 -181t-10 -117h-104l60 774l-516 826q-6 6 -6 34zM330 1910q12 0 20 -2l328 -382q40 -8 47 -20
t7 -26q0 -32 -17 -55t-51 -23h-8q-2 0 -2 2l-280 350q-10 18 -38 18h-10l-228 -398q-8 -16 -43 -16t-35 30l2 16l254 474q2 8 22 20t32 12z" />
    <glyph glyph-name="Ydieresis" unicode="&#x178;" horiz-adv-x="990" 
d="M384 50q0 72 22 141t48 139t45 139t13 145q-58 64 -128 139q-276 296 -358 501q-2 2 -2 6v8q0 40 56 40q52 -62 111 -141q245 -328 373 -423h26q8 14 28 69t49 131q156 409 203 644q2 4 22 4t39 -27t15 -55q-153 -537 -177 -609q-25 -73 -42 -115t-35 -93l-48 -136
q-60 -170 -184 -557l-24 -2q-52 0 -52 52zM656 1530q54 0 54 -52q0 -27 -28 -58t-50 -20q-26 -18 -54 10t-24 68q30 30 50 41t52 11zM390 1530q54 0 54 -52q0 -25 -27 -57t-49 -21q-28 -16 -57 13t-21 65q28 30 48 41t52 11z" />
    <glyph glyph-name="Zacute" unicode="&#x179;" horiz-adv-x="1374" 
d="M44 86q0 18 5 26t31 42t81 105t155 198t251 321t371 476v26q-369 43 -844 24q-20 14 -20 86q0 6 268 6l784 -6l16 -86l-920 -1152h458q182 0 287 1t331 25q20 -8 23 -22t3 -28v-28q0 -53 -42 -48q-185 -23 -565 -28t-571 -24l-28 -2q-38 0 -56 35t-18 53zM774 1812v-14
q-10 -61 -131 -162q-31 -26 -53 -46q-135 30 34 195q46 45 92 87q58 0 58 -60z" />
    <glyph glyph-name="zacute" unicode="&#x17a;" horiz-adv-x="1266" 
d="M812 959q0 -69 -25 -138t-62 -135t-80 -130q-169 -252 -169 -404v-24l732 150h14q28 0 51 -17t34 -38t1 -43t-50 -32q-30 0 -934 -168q-26 120 131 456q43 92 119 246t84 200q0 4 -1 8t-1 6q-56 -22 -123 -49q-249 -100 -387 -131q-8 -6 -28 4t-38 27q-46 44 -12 71
q106 0 339 90q93 36 182 71t157 49q66 0 66 -69zM796 1424v-14q-10 -61 -131 -162q-31 -26 -53 -46q-135 30 34 195q46 45 92 87q58 0 58 -60z" />
    <glyph glyph-name="Zdotaccent" unicode="&#x17b;" horiz-adv-x="1374" 
d="M44 86q0 18 5 26t31 42t81 105t155 198t251 321t371 476v26q-369 43 -844 24q-20 14 -20 86q0 6 268 6l784 -6l16 -86l-920 -1152h458q182 0 287 1t331 25q20 -8 23 -22t3 -28v-28q0 -53 -42 -48q-185 -23 -565 -28t-571 -24l-28 -2q-38 0 -56 35t-18 53zM706 1646
q54 0 54 -52q0 -24 -27 -55t-51 -21q-21 -18 -53 9q-31 27 -23 67q28 32 48 42t52 10z" />
    <glyph glyph-name="zdotaccent" unicode="&#x17c;" horiz-adv-x="1266" 
d="M812 959q0 -69 -25 -138t-62 -135t-80 -130q-169 -252 -169 -404v-24l732 150h14q28 0 51 -17t34 -38t1 -43t-50 -32q-30 0 -934 -168q-26 120 131 456q43 92 119 246t84 200q0 4 -1 8t-1 6q-56 -22 -123 -49q-249 -100 -387 -131q-8 -6 -28 4t-38 27q-46 44 -12 71
q106 0 339 90q93 36 182 71t157 49q66 0 66 -69zM660 1250q54 0 54 -52q0 -24 -27 -55t-51 -21q-21 -18 -53 9q-31 27 -23 67q28 32 48 42t52 10z" />
    <glyph glyph-name="Zcaron" unicode="&#x17d;" horiz-adv-x="1374" 
d="M44 86q0 18 5 26t31 42t81 105t155 198t251 321t371 476v26q-369 43 -844 24q-20 14 -20 86q0 6 268 6l784 -6l16 -86l-920 -1152h458q182 0 287 1t331 25q20 -8 23 -22t3 -28v-28q0 -53 -42 -48q-185 -23 -565 -28t-571 -24l-28 -2q-38 0 -56 35t-18 53zM386 1870v6
q0 20 50 20q14 0 26 -12l218 -272h8q28 0 38 10l266 244h12q36 0 50 -18t14 -32t-7 -21t-45 -15l-314 -262l-10 -2q-20 0 -39 8t-23 14l-242 328q-2 2 -2 4z" />
    <glyph glyph-name="zcaron" unicode="&#x17e;" horiz-adv-x="1266" 
d="M812 959q0 -69 -25 -138t-62 -135t-80 -130q-169 -252 -169 -404v-24l732 150h14q28 0 51 -17t34 -38t1 -43t-50 -32q-30 0 -934 -168q-26 120 131 456q43 92 119 246t84 200q0 4 -1 8t-1 6q-56 -22 -123 -49q-249 -100 -387 -131q-8 -6 -28 4t-38 27q-46 44 -12 71
q106 0 339 90q93 36 182 71t157 49q66 0 66 -69zM238 1462v6q0 20 50 20q14 0 26 -12l218 -272h8q28 0 38 10l266 244h12q36 0 50 -18t14 -32t-7 -21t-45 -15l-314 -262l-10 -2q-20 0 -39 8t-23 14l-242 328q-2 2 -2 4z" />
    <glyph glyph-name="florin" unicode="&#x192;" horiz-adv-x="708" 
d="M540 1508h-6q-2 0 -4 2q-88 224 -137 156q-50 -70 -81 -529q-8 -119 -16 -221q48 12 95 35t132 63t161 42q26 -70 -9 -106t-99 -57t-141 -38t-133 -47q7 -142 20 -327l22 -293q28 -372 22 -484q3 -159 -90 -208q-61 -32 -160 -8q-100 24 -140 48t-24 42q34 38 280 34
q-8 264 -9 474t-3 354t-3 221t-8 77q-13 0 -58 -24t-59 -24q-50 0 -50 38t116 110q26 16 38 32q-11 89 -7 262q5 172 16 292t34 215t61 149t98 34q78 0 131 -82t53 -157t-42 -75z" />
    <glyph glyph-name="AEacute" unicode="&#x1fc;" horiz-adv-x="1452" 
d="M224 502q77 0 140 27q113 48 148 109q-84 369 -180 592q-20 20 -50 0l-4 -34q-4 -67 -12 -143q-8 -75 -14 -147t-17 -181t-11 -223zM1426 480q0 -22 -28 -38q-62 -36 -141 -91t-225 -154t-256 -151l-144 14v162q-22 84 -44 159t-58 121q-42 -20 -100 -34t-112 -35
q-126 -49 -140 -151q-4 -24 -7 -64t-8 -80t-9 -86h-102q6 28 10 72t11 116t16 178t25 258t37 357t55 477q3 28 37 28q35 0 49 -16t25 -36t21 -42t22 -36q20 -46 41 -106t45 -128t48 -137q93 -266 132 -345h6q-9 331 -52 620l-26 78q0 23 18 42q62 67 99 5t37 -151
q238 135 446 191q78 21 150 21q0 -42 -34 -56l-562 -282v-78q2 -20 4 -66t6 -100t7 -107t5 -85q61 17 412 204q66 78 104 26q12 -42 -355 -249q-127 -72 -127 -85l-4 -434q42 -20 178 60q58 34 120 79t162 115t154 82q52 0 52 -42zM726 1882v-14q-10 -61 -131 -162
q-31 -26 -53 -46q-135 30 34 195q46 45 92 87q58 0 58 -60z" />
    <glyph glyph-name="aeacute" unicode="&#x1fd;" horiz-adv-x="1444" 
d="M1108 961q0 73 -130 73q-24 0 -63 -33t-71 -80q-76 -112 -76 -175q65 0 201 79q57 33 98 72t41 64zM512 946q-42 61 -140 -80q-126 -180 -234 -477q-28 -77 -38 -127q0 -72 22 -81t54 23q63 63 151 216t131 240q50 117 53 214q1 34 1 72zM698 84q0 -24 -5 -41t-49 -17
q-21 0 -27 39q-7 39 -20 178t-22 186t-9 57q-55 0 -64 18q-168 -327 -283 -427q-105 -91 -165 -13q-40 53 -52 186q0 92 54 243q97 272 212 441q114 170 218 170q86 14 127 -37t15 -171q0 -82 4 -150q8 18 25 62q57 148 114 225q86 117 231 113q81 0 161 -62q79 -62 79 -144
q27 -54 -332 -252q-126 -70 -162 -92q-28 -77 -28 -142q0 -64 -4 -110q-16 -180 124 -180q165 0 325 218q41 56 73 104t58 81t44 33q68 0 68 -38t-29 -89t-77 -106q-107 -123 -239 -214q-131 -91 -230 -91t-135 54v-32zM884 1424v-14q-10 -61 -131 -162q-31 -26 -53 -46
q-135 30 34 195q46 45 92 87q58 0 58 -60z" />
    <glyph glyph-name="Oslashacute" unicode="&#x1fe;" horiz-adv-x="784" 
d="M318 134q133 0 224 220q90 220 100 463q10 244 -50 355l-320 -1036q22 -2 46 -2zM136 440q0 -134 28 -202q10 -32 30 -54l324 1056q-86 36 -222 -106q-160 -469 -160 -694zM112 -106v14l42 146q-40 44 -69 107q-55 119 -55 267q24 348 100 567t185 320t239 43l22 72h98
l-42 -132q42 -44 82 -110q62 -208 35 -475q-45 -442 -275 -634q-80 -67 -184 -81q-32 0 -60 8l-54 -178q-24 0 -44 20t-20 46zM602 1750v-14q-10 -61 -131 -162q-31 -26 -53 -46q-135 30 34 195q46 45 92 87q58 0 58 -60z" />
    <glyph glyph-name="oslashacute" unicode="&#x1ff;" horiz-adv-x="546" 
d="M190 128q153 0 205 353q15 102 15 199v40q0 58 -4 70l-234 -648q2 -8 6 -14h12zM368 946q-20 30 -50 30q-85 27 -123 -68q-39 -95 -42 -224q-3 -128 -2 -206t1 -142zM64 98q-14 14 -14 176q-14 92 -14 179t14 202t78 371q0 63 86 94q22 8 42 8q70 0 144 -94l56 156h96
l-94 -262q16 -34 28 -58q36 -157 27 -295q-35 -532 -345 -575q-26 0 -44 8l-64 -178q-26 0 -46 17t-20 39v14zM436 1504v-14q-10 -61 -131 -162q-31 -26 -53 -46q-135 30 34 195q46 45 92 87q58 0 58 -60z" />
    <glyph glyph-name="Scommaaccent" unicode="&#x218;" horiz-adv-x="1108" 
d="M24 842q0 78 34 155t91 149q115 146 284 243t305 97q18 0 38 1t35 -2q35 -7 35 -58t-38 -76t-92 -25l-78 56q-87 0 -213 -95q-193 -146 -272 -335q-25 -60 -25 -119t39 -102t104 -68t149 -37t170 -20t170 -15t149 -25t104 -48t39 -82q43 -62 -105 -155
q-207 -130 -519 -212q-88 -23 -150 -29q-18 0 -31 12t-7 37t52 43t114 38t150 44q320 94 390 210q0 30 -39 46t-104 27t-148 18t-170 20t-170 32t-148 54t-104 89t-39 132zM484 -482q0 86 4 110q-4 2 -7 13t-10 29t-7 34q0 58 28 80t84 22q40 -62 40 -138t-62 -308l-78 -24
q8 96 8 182z" />
    <glyph glyph-name="scommaaccent" unicode="&#x219;" horiz-adv-x="750" 
d="M152 569q0 -39 9 -52t27 -20t64 -7q70 0 167 40q98 40 141 40q71 0 115 -46t47 -104q23 -53 -57 -163q-80 -109 -206 -209t-195 -96q-40 0 -47 24t-7 54q0 -2 43 24t102 69q388 283 211 313q-72 10 -121 -2t-89 -28l-75 -30q-35 -14 -77 -10q-88 0 -121 55t-33 149
t42 179t108 147t152 99t149 37t89 -6t26 -40t-24 -59t-54 -25l-52 24q-64 18 -124 -18t-107 -97t-75 -132t-28 -110zM310 -482q0 86 4 110q-4 2 -7 13t-10 29t-7 34q0 58 28 80t84 22q40 -62 40 -138t-62 -308l-78 -24q8 96 8 182z" />
    <glyph glyph-name="circumflex" unicode="&#x2c6;" 
d="M366 1910q12 0 20 -2l328 -382q40 -8 47 -20t7 -26q0 -32 -17 -55t-51 -23h-8q-2 0 -2 2l-280 350q-10 18 -38 18h-10l-228 -398q-8 -16 -43 -16t-35 30l2 16l254 474q2 8 22 20t32 12z" />
    <glyph glyph-name="caron" unicode="&#x2c7;" 
d="M110 1614v6q0 20 50 20q14 0 26 -12l218 -272h8q28 0 38 10l266 244h12q36 0 50 -18t14 -32t-7 -21t-45 -15l-314 -262l-10 -2q-20 0 -39 8t-23 14l-242 328q-2 2 -2 4z" />
    <glyph glyph-name="breve" unicode="&#x2d8;" 
d="M242 1432q8 -4 22 -20t33 -32q117 -99 249 108q40 30 62 27t27 -24q11 -47 -17 -103q-162 -209 -287 -155q-59 25 -113 89l-36 46q-44 38 -46 69t17 45t47 5t42 -55z" />
    <glyph glyph-name="dotaccent" unicode="&#x2d9;" horiz-adv-x="264" 
d="M140 1250q54 0 54 -52q0 -24 -27 -55t-51 -21q-21 -18 -53 9q-31 27 -23 67q28 32 48 42t52 10z" />
    <glyph glyph-name="ring" unicode="&#x2da;" horiz-adv-x="546" 
d="M292 1106q30 0 48 6t31 24t33 50q4 34 -14 58t-47 35t-65 11t-65 -11q-71 -27 -67 -99q0 -20 21 -34t43 -34q52 -6 82 -6zM512 1185q0 -167 -318 -151q-80 0 -115 47t-35 97q-36 72 41 138t211 66q83 0 123 -21t71 -61q22 -64 22 -115z" />
    <glyph glyph-name="ogonek" unicode="&#x2db;" horiz-adv-x="750" 
d="M448 -1q0 -29 -18 -51t-44 -22q-85 -110 -87 -202q-1 -44 21 -75t68 -37q50 0 105 24t86 35t65 11q40 -30 28 -66t-58 -65t-117 -45t-149 -2q-76 22 -116 88t-38 148t47 164t139 134q26 0 47 -5t21 -34z" />
    <glyph glyph-name="tilde" unicode="&#x2dc;" horiz-adv-x="940" 
d="M754 1422q28 8 53 9t35 -35q22 -54 -56 -136t-158 -122q-55 -15 -110 10q-55 24 -68 62q-26 14 -37 42t-24 55t-31 46t-58 18t-58 -21t-30 -48t-25 -57t-39 -49q-36 -11 -49 3q-12 14 -23 53q7 114 90 166q83 53 183 44t131 -64q48 -159 108 -150q26 4 50 35t45 64t39 58
t32 17z" />
    <glyph glyph-name="hungarumlaut" unicode="&#x2dd;" horiz-adv-x="490" 
d="M468 1160v-16q-11 -59 -131 -160q-31 -26 -53 -46q-139 26 34 195q46 45 92 85q58 0 58 -58zM272 1202v-14q-9 -56 -132 -162q-30 -26 -52 -46q-135 30 34 195q46 45 92 87q58 0 58 -60z" />
    <glyph glyph-name="Wgrave" unicode="&#x1e80;" horiz-adv-x="1800" 
d="M1664 1520q33 0 60 -60l-280 -1128q0 -103 -45 -186q-28 -52 -67 -15q-20 19 -42 75q-212 375 -360 868l-256 -844q-22 -159 -85 -220q-45 -43 -105 -35q-22 3 -33 12t-7 13q-78 104 -139 339q-27 103 -53 216t-55 224q-64 245 -163 399q8 21 48 56q40 34 52 40
q28 -21 49 -77q25 -66 111 -347t228 -722q27 20 214 619q34 109 65 208t53 171q6 28 9 55t9 49q14 52 72 52q28 12 52 -28t49 -116t53 -177q123 -445 242 -629l282 1152q9 36 42 36zM808 1906q0 66 50 66q111 -122 140 -175q28 -53 24 -85t-52 -44q-20 22 -46 49
q-111 115 -116 175v14z" />
    <glyph glyph-name="wgrave" unicode="&#x1e81;" horiz-adv-x="1160" 
d="M56 962q0 47 42 62q44 0 64 -50l230 -590q2 28 10 101t16 155t15 155t10 97t5 50q8 110 74 110q20 0 29 -4t21 -24l384 -656v676q132 0 108 -190q-6 -48 -4 -86l24 -590q14 -40 -1 -53t-41 -9t-52 22t-34 40l-408 692q-22 -478 -54 -844q-10 -37 -49 -19q-15 7 -29 21
l-24 24q-10 30 -34 94l-54 144q-30 80 -64 170t-72 190l-82 220q-30 45 -30 92zM436 1448q0 66 50 66q111 -122 140 -175q28 -53 24 -85t-52 -44q-20 22 -46 49q-111 115 -116 175v14z" />
    <glyph glyph-name="Wacute" unicode="&#x1e82;" horiz-adv-x="1800" 
d="M1664 1520q33 0 60 -60l-280 -1128q0 -103 -45 -186q-28 -52 -67 -15q-20 19 -42 75q-212 375 -360 868l-256 -844q-22 -159 -85 -220q-45 -43 -105 -35q-22 3 -33 12t-7 13q-78 104 -139 339q-27 103 -53 216t-55 224q-64 245 -163 399q8 21 48 56q40 34 52 40
q28 -21 49 -77q25 -66 111 -347t228 -722q27 20 214 619q34 109 65 208t53 171q6 28 9 55t9 49q14 52 72 52q28 12 52 -28t49 -116t53 -177q123 -445 242 -629l282 1152q9 36 42 36zM962 1806v-14q-10 -61 -131 -162q-31 -26 -53 -46q-135 30 34 195q46 45 92 87
q58 0 58 -60z" />
    <glyph glyph-name="wacute" unicode="&#x1e83;" horiz-adv-x="1160" 
d="M56 962q0 47 42 62q44 0 64 -50l230 -590q2 28 10 101t16 155t15 155t10 97t5 50q8 110 74 110q20 0 29 -4t21 -24l384 -656v676q132 0 108 -190q-6 -48 -4 -86l24 -590q14 -40 -1 -53t-41 -9t-52 22t-34 40l-408 692q-22 -478 -54 -844q-10 -37 -49 -19q-15 7 -29 21
l-24 24q-10 30 -34 94l-54 144q-30 80 -64 170t-72 190l-82 220q-30 45 -30 92zM744 1424v-14q-10 -61 -131 -162q-31 -26 -53 -46q-135 30 34 195q46 45 92 87q58 0 58 -60z" />
    <glyph glyph-name="Wdieresis" unicode="&#x1e84;" horiz-adv-x="1800" 
d="M1664 1520q33 0 60 -60l-280 -1128q0 -103 -45 -186q-28 -52 -67 -15q-20 19 -42 75q-212 375 -360 868l-256 -844q-22 -159 -85 -220q-45 -43 -105 -35q-22 3 -33 12t-7 13q-78 104 -139 339q-27 103 -53 216t-55 224q-64 245 -163 399q8 21 48 56q40 34 52 40
q28 -21 49 -77q25 -66 111 -347t228 -722q27 20 214 619q34 109 65 208t53 171q6 28 9 55t9 49q14 52 72 52q28 12 52 -28t49 -116t53 -177q123 -445 242 -629l282 1152q9 36 42 36zM1076 1716q54 0 54 -52q0 -27 -28 -58t-50 -20q-26 -18 -54 10t-24 68q30 30 50 41t52 11z
M810 1716q54 0 54 -52q0 -25 -27 -57t-49 -21q-28 -16 -57 13t-21 65q28 30 48 41t52 11z" />
    <glyph glyph-name="wdieresis" unicode="&#x1e85;" horiz-adv-x="1160" 
d="M56 962q0 47 42 62q44 0 64 -50l230 -590q2 28 10 101t16 155t15 155t10 97t5 50q8 110 74 110q20 0 29 -4t21 -24l384 -656v676q132 0 108 -190q-6 -48 -4 -86l24 -590q14 -40 -1 -53t-41 -9t-52 22t-34 40l-408 692q-22 -478 -54 -844q-10 -37 -49 -19q-15 7 -29 21
l-24 24q-10 30 -34 94l-54 144q-30 80 -64 170t-72 190l-82 220q-30 45 -30 92zM742 1530q54 0 54 -52q0 -27 -28 -58t-50 -20q-26 -18 -54 10t-24 68q30 30 50 41t52 11zM476 1530q54 0 54 -52q0 -25 -27 -57t-49 -21q-28 -16 -57 13t-21 65q28 30 48 41t52 11z" />
    <glyph glyph-name="Ygrave" unicode="&#x1ef2;" horiz-adv-x="990" 
d="M384 50q0 72 22 141t48 139t45 139t13 145q-58 64 -128 139q-276 296 -358 501q-2 2 -2 6v8q0 40 56 40q52 -62 111 -141q245 -328 373 -423h26q8 14 28 69t49 131q156 409 203 644q2 4 22 4t39 -27t15 -55q-153 -537 -177 -609q-25 -73 -42 -115t-35 -93l-48 -136
q-60 -170 -184 -557l-24 -2q-52 0 -52 52zM380 1946q0 66 50 66q111 -122 140 -175q28 -53 24 -85t-52 -44q-20 22 -46 49q-111 115 -116 175v14z" />
    <glyph glyph-name="ygrave" unicode="&#x1ef3;" horiz-adv-x="744" 
d="M44 868q0 66 41 66q23 0 43 -9t24 -17q44 -70 91 -156q195 -356 323 -472l48 784l24 2q50 0 62 -32q5 -184 -5 -500q-11 -316 -16 -396t-12 -181t-16 -213t-17 -212t-14 -181t-10 -117h-104l60 774l-516 826q-6 6 -6 34zM226 1448q0 66 50 66q111 -122 140 -175
q28 -53 24 -85t-52 -44q-20 22 -46 49q-111 115 -116 175v14z" />
    <glyph glyph-name="endash" unicode="&#x2013;" horiz-adv-x="818" 
d="M26 408q0 8 10 28t16 24q88 6 177 38t177 69t173 68t165 31q28 0 28 -58v-14l-4 -32l-590 -178q-8 -4 -58 -4l-16 -2q-78 0 -78 30z" />
    <glyph glyph-name="emdash" unicode="&#x2014;" horiz-adv-x="1126" 
d="M26 408q0 8 10 28t16 24q99 7 243 38q143 32 233 52q351 78 458 78q30 0 30 -58v-14l-4 -32l-834 -140q-8 -4 -58 -4l-16 -2q-78 0 -78 30z" />
    <glyph glyph-name="quoteleft" unicode="&#x2018;" horiz-adv-x="318" 
d="M66 1218q0 66 50 66q95 0 89 -262q-1 -42 -4 -73t-3 -41v-44l-4 -172q-30 2 -51 24t-24 45t-7 58t-9 77t-11 90t-14 120t-12 98v14z" />
    <glyph glyph-name="quoteright" unicode="&#x2019;" horiz-adv-x="318" 
d="M66 1218q0 66 50 66q95 0 89 -262q-1 -42 -4 -73t-3 -41v-44l-4 -172q-30 2 -51 24t-24 45t-7 58t-9 77t-11 90t-14 120t-12 98v14z" />
    <glyph glyph-name="quotesinglbase" unicode="&#x201a;" horiz-adv-x="318" 
d="M218 150q0 -40 -2 -100t-2 -74q-30 4 -51 26t-24 45t-7 57t-10 77t-11 90t-10 90t-9 78t-6 51v14q0 64 50 64q56 0 77 -89q11 -48 11 -171l-6 -114v-44z" />
    <glyph glyph-name="quotedblleft" unicode="&#x201c;" horiz-adv-x="436" 
d="M360 1538v-452q-30 0 -54 16t-24 50v438q30 7 54 -12q24 -20 24 -40zM180 1181q0 -75 1 -91q4 -68 -41 -68q-25 0 -37 87q-16 124 -28 282q-13 158 -23 199q8 20 22 23t34 3t34 -9t12 -45q26 -306 26 -381z" />
    <glyph glyph-name="quotedblright" unicode="&#x201d;" horiz-adv-x="436" 
d="M360 1538v-452q-30 0 -54 16t-24 50v438q30 7 54 -12q24 -20 24 -40zM180 1181q0 -75 1 -91q4 -68 -41 -68q-25 0 -37 87q-16 124 -28 282q-13 158 -23 199q8 20 22 23t34 3t34 -9t12 -45q26 -306 26 -381z" />
    <glyph glyph-name="quotedblbase" unicode="&#x201e;" horiz-adv-x="436" 
d="M366 502v-452q-32 0 -55 16t-23 50v438q25 9 52 -12q26 -22 26 -40zM100 582q34 0 48 -9t12 -45q26 -312 26 -384t1 -88q4 -68 -41 -68q-25 0 -37 86q-22 170 -30 291t-21 189q8 28 42 28z" />
    <glyph glyph-name="dagger" unicode="&#x2020;" horiz-adv-x="550" 
d="M223 -46q-31 0 -67 30l-50 870q-20 -10 -37 -21t-43 -25t-56 -8q-31 0 -40 87q-2 19 0 29l192 110l12 512q4 26 32 21q65 -12 84 -21q-4 -54 -9 -117q-21 -262 -9 -357l300 84q21 5 32 -96l-340 -144l34 -894q-4 -60 -35 -60z" />
    <glyph glyph-name="daggerdbl" unicode="&#x2021;" horiz-adv-x="668" 
d="M324 -46q-30 0 -66 30l-44 622q-10 -4 -37 -15q-133 -54 -133 -27v16q0 52 10 72q16 4 38 13t45 18t43 19t34 14l-8 138q-18 -10 -36 -21t-44 -25t-56 -8q-17 0 -31 45t-9 71l194 110l10 512q6 26 34 21t58 -13q16 0 24 -8q-2 -54 -8 -117q-21 -223 -10 -357l302 84
q12 4 19 -28t11 -68l-338 -144q0 -14 2 -56t4 -100q169 58 296 80q21 4 33 -30q11 -34 11 -56v-14l-340 -88l26 -630q-4 -60 -34 -60z" />
    <glyph glyph-name="bullet" unicode="&#x2022;" horiz-adv-x="388" 
d="M246 746q88 0 88 -110q0 -52 -30 -96q-57 -84 -98 -62q-20 -18 -46 -10t-46 32q-49 59 -34 136q44 64 80 87q37 23 86 23z" />
    <glyph glyph-name="ellipsis" unicode="&#x2026;" horiz-adv-x="794" 
d="M682 130q54 0 54 -52q0 -26 -27 -57t-51 -21q-22 -18 -53 10q-31 29 -23 68q28 30 48 41t52 11zM418 130q54 0 54 -52q0 -26 -27 -58t-51 -20q-24 -20 -53 9t-25 69q30 30 50 41t52 11zM152 130q54 0 54 -52q0 -24 -26 -57t-50 -21q-26 -18 -56 12t-22 66q28 30 48 41
t52 11z" />
    <glyph glyph-name="guilsinglleft" unicode="&#x2039;" horiz-adv-x="838" 
d="M812 1211q0 -3 -2 -5q-66 -92 -131 -150t-135 -108t-147 -102t-165 -132l14 -32q8 -16 164 -108t178 -105t45 -23t50 -20t51 -19t34 -11q28 -101 -78 -136q-36 33 -161 108q-254 151 -325 204q-127 95 -106 154q6 9 6 12l606 504q10 10 17 23t19 28t41 5t32 -33t-2 -37
t-5 -17z" />
    <glyph glyph-name="guilsinglright" unicode="&#x203a;" horiz-adv-x="922" 
d="M112 1313q16 24 36 39l612 -354q90 -60 -7 -208q-76 -117 -233 -253q-157 -137 -262 -212q-106 -75 -133 -88t-3 7q-22 0 -25 20t0 46t56 79t126 110t154 117t144 115q147 128 105 191l-560 302q-6 6 -16 25t-10 29t16 35z" />
    <glyph glyph-name="fraction" unicode="&#x2044;" horiz-adv-x="628" 
d="M12 -106v14l464 1522h98l-496 -1602q-26 0 -46 20t-20 46z" />
    <glyph glyph-name="Euro" unicode="&#x20ac;" horiz-adv-x="1208" 
d="M131 692q-67 0 -67 64q0 20 6 38q30 4 100 14t154 20q105 450 285 606q67 58 132 58q107 0 155 -62t48 -160q-36 0 -57 19t-39 41t-38 41t-64 19t-94 -49t-105 -154t-117 -347l228 30l108 4q0 -80 -362 -146q-24 -124 -36 -212q116 36 230 71t238 35q0 -56 -46 -84
t-107 -42t-120 -18t-86 -12t-115 -36v-20q0 -146 25 -201t64 -82t113 -27q165 0 308 75t182 197q8 4 34 4t48 -5t22 -37q-26 -120 -154 -211q-128 -92 -276 -126t-224 3q-117 0 -188 128q-56 101 -56 230v40l-164 -60q-78 35 -78 52q0 8 10 28t16 24q83 6 222 42
q4 48 13 105t19 121q-100 -18 -167 -18z" />
    <glyph glyph-name="trademark" unicode="&#x2122;" horiz-adv-x="2618" 
d="M1408 1352q0 -186 35 -503t51 -484t16 -309q10 -18 -4 -34t-36 -24t-49 -1t-45 33q-18 158 -19 322t-3 331q-5 416 -44 665q-94 -30 -301 -46q-208 -16 -241 -22q-12 -218 45 -606q23 -156 43 -310t20 -294q16 -54 1 -63t-35 -9t-48 2q-35 125 -54 307q-28 257 -52 530
q-24 274 -50 417h-36q-92 0 -207 -27t-179 -39t-107 -12t-64 5t-21 30t17 46t37 23l536 78q2 8 6 25q18 77 55 77q39 0 65 -39l18 -27q8 -12 20 -12h16q35 6 164 18q130 12 206 21t130 13q-22 108 -5 119t52 11t74 -23t72 -58t57 -77t42 -72t46 -86l66 -130q36 -72 74 -151
q131 -273 186 -355q8 0 14 6t17 34t31 86t53 160t83 258t122 380q4 10 27 18t41 8t24 -12t17 -111t22 -284q44 -734 149 -1103l-138 -54l-116 1332q-8 4 -23 -45t-38 -126t-51 -174t-60 -193q-79 -236 -128 -310q-71 -106 -110 4q-14 28 -44 89t-68 137t-79 160t-79 159
t-69 135t-50 96t-38 63t-59 27z" />
    <glyph glyph-name="minus" unicode="&#x2212;" horiz-adv-x="734" 
d="M82 562q0 6 11 26t17 26q136 9 280 31q145 21 268 21q30 0 30 -58v-14l-4 -32l-448 -26q-8 -4 -58 -4l-16 -2q-80 0 -80 32z" />
    <glyph glyph-name="commaaccent" unicode="&#xf6c3;" horiz-adv-x="922" 
d="M368 -482q0 86 4 110q-4 2 -7 13t-10 29t-7 34q0 58 28 80t84 22q40 -62 40 -138t-62 -308l-78 -24q8 96 8 182z" />
    <glyph glyph-name="fi" unicode="&#xfb01;" horiz-adv-x="838" 
d="M584 1468q0 38 46 38t56 -26t10 -60q-22 -48 -67 -33q-45 14 -45 81zM728 289q0 -139 3 -214t-12 -86t-39 -11q-57 0 -50 56q0 130 -10 420t-8 436v10l-4 -2q-43 -32 -157 -54q-114 -21 -149 -36q7 -147 26 -312q20 -166 25 -229t2 -101t-2 -63q4 -107 -55 -107
q-24 0 -36 11t-16 45q-34 459 -34 586v92q0 8 -2 8q-14 0 -59 -24t-59 -24q-50 0 -50 38t116 110q26 16 38 32q-11 89 -7 262q5 172 16 292t34 215t61 149t98 34q78 0 131 -82t53 -157t-42 -75h-6q-2 0 -4 2q-88 224 -137 156q-50 -70 -81 -529q-8 -119 -16 -221
q90 22 132 48q100 61 190 84q4 56 12 108q8 4 37 4t46 -9t17 -41l-2 -539v-282z" />
    <glyph glyph-name="fl" unicode="&#xfb02;" horiz-adv-x="854" 
d="M298 -4q-24 0 -36 11t-16 45q-34 459 -34 586v92q0 8 -2 8q-14 0 -59 -24t-59 -24q-50 0 -50 38t116 110q26 16 38 32q-11 89 -7 262q5 172 16 292t34 215t61 149t98 34q78 0 131 -82t53 -157t-42 -75h-6q-2 0 -4 2q-88 224 -137 156q-50 -70 -81 -529q-8 -119 -16 -221
q90 22 132 48t74 40q109 47 154 50q-20 427 -60 616q42 28 67 28t35 -28q40 -390 55 -789t25 -793q0 -80 -4 -80q-49 -28 -89 -4q-39 24 -39 54q43 283 16 846l-2 52q-39 -70 -126 -93q-42 -11 -119 -25t-113 -30q7 -147 26 -312q20 -166 25 -229t2 -101t-2 -63
q4 -107 -55 -107z" />
  </font>
</defs>
</svg>
